<svg width="28" height="33" viewBox="0 0 28 33" fill="none" xmlns="http://www.w3.org/2000/svg">
<path d="M14.5933 18.9717H13.1339C12.6961 18.9717 12.4043 18.6798 12.4043 18.242C12.4043 17.8043 12.6962 17.5124 13.1339 17.5124H15.3229C15.7607 17.5124 16.0526 17.2205 16.0526 16.7827C16.0526 16.345 15.7608 16.053 15.323 16.053H14.5933V15.3234C14.5933 14.8856 14.3014 14.5938 13.8637 14.5938C13.426 14.5938 13.1341 14.8856 13.1341 15.3234V16.053C11.8936 16.053 10.9451 17.0016 10.9451 18.242C10.9451 19.4825 11.8936 20.431 13.1341 20.431H14.5934C15.0312 20.431 15.323 20.7229 15.323 21.1607C15.323 21.5985 15.0312 21.8903 14.5934 21.8903H12.4044C11.9666 21.8903 11.6748 22.1822 11.6748 22.6199C11.6748 23.0577 11.9667 23.3496 12.4044 23.3496H13.1341V24.0794C13.1341 24.5172 13.426 24.809 13.8637 24.809C14.3014 24.809 14.5933 24.5171 14.5933 24.0794V23.3497C15.8338 23.3497 16.7823 22.4012 16.7823 21.1607C16.7823 19.9203 15.8337 18.9717 14.5933 18.9717Z" fill="#B06E15"/>
<path d="M24.4438 12.9098L19.4821 7.51028C19.1902 7.21838 18.7524 7.21838 18.4605 7.43729C18.1686 7.72918 18.1686 8.16693 18.3875 8.45882L23.3493 13.8583C25.1734 15.9014 26.195 18.5282 26.195 21.2279V28.4516C26.195 29.6921 25.2464 30.6406 24.006 30.6406H3.64834C2.4079 30.6406 1.45935 29.6921 1.45935 28.4516V21.3009C1.45935 18.5282 2.48088 15.9014 4.30505 13.9313L9.04786 8.75072H13.134V11.7423C9.04786 12.1072 5.83733 15.5366 5.83733 19.6957C5.83733 24.1466 9.41268 27.722 13.8636 27.722C18.3146 27.722 21.89 24.1466 21.89 19.6957C21.89 15.5366 18.6794 12.1072 14.5933 11.7423V8.75072H16.0526C16.4904 8.75072 16.7823 8.45882 16.7823 8.02108C16.7823 7.58333 16.4904 7.29143 16.0526 7.29143H8.75596C8.53706 7.29143 8.39114 7.36442 8.24522 7.51034L3.28352 12.9099C1.16745 15.2447 0 18.2363 0 21.3009V28.4516C0 30.4947 1.60526 32.1 3.64834 32.1H24.079C26.122 32.1 27.7273 30.4947 27.7273 28.4516V21.3009C27.7273 18.2363 26.5598 15.2447 24.4438 12.9098ZM20.4306 19.6957C20.4306 23.344 17.512 26.2626 13.8636 26.2626C10.2153 26.2626 7.29668 23.344 7.29668 19.6957C7.29668 16.0473 10.2153 13.1287 13.8636 13.1287C17.512 13.1287 20.4306 16.0473 20.4306 19.6957Z" fill="#B06E15"/>
<path d="M21.0143 0.291895C20.8684 0.0729894 20.6495 0 20.4306 0H7.29667C7.07776 0 6.85886 0.145916 6.71294 0.291895C6.56702 0.437873 6.49404 0.729705 6.63995 0.948611L8.0993 5.32659C8.17229 5.61849 8.46412 5.83733 8.75602 5.83733C8.829 5.83733 8.90193 5.83733 8.97492 5.76434C9.33974 5.61842 9.55865 5.2536 9.41273 4.81579L8.3182 1.45935H19.4091L18.4606 4.37798H11.6746C11.2368 4.37798 10.945 4.66988 10.945 5.10762C10.945 5.54537 11.2369 5.83727 11.6746 5.83727H18.9713C19.2632 5.83727 19.5551 5.61836 19.628 5.32653L21.0873 0.948548C21.2332 0.729643 21.1603 0.510737 21.0143 0.291895Z" fill="#B06E15"/>
</svg>
