<svg width="15" height="16" viewBox="0 0 15 16" fill="none" xmlns="http://www.w3.org/2000/svg">
<path fill-rule="evenodd" clip-rule="evenodd" d="M13.5026 13.8255H12.879C12.119 13.8255 11.4954 13.2019 11.4954 12.4418V6.23198L9.79811 7.92926L4.96086 12.7665L3.0053 14.7221C2.319 15.4084 1.19732 15.4084 0.514719 14.7221C-0.171573 14.0358 -0.171573 12.9141 0.514719 12.2315L2.47028 10.2759L7.30753 5.43868L9.2631 3.48312C9.29631 3.44991 9.32951 3.42039 9.36272 3.39087H2.44445C1.68437 3.39087 1.0608 2.76731 1.0608 2.00722V1.38365C1.0608 0.623566 1.68437 0 2.44445 0H11.4954H12.119C13.6391 0 14.8826 1.24344 14.8826 2.76362V3.38718V12.4381C14.8826 13.1982 14.259 13.8218 13.4989 13.8218L13.5026 13.8255Z" fill="#0043B4"/>
</svg>
