<svg width="39" height="39" viewBox="0 0 39 39" fill="none" xmlns="http://www.w3.org/2000/svg">
<circle cx="19.0811" cy="19.0811" r="19.0811" fill="#F6F6F6"/>
<path d="M27.9505 13.6178L19.6267 8.35706C19.4174 8.22473 19.1505 8.22473 18.9413 8.35706L10.6174 13.6178C10.376 13.7704 10.2646 14.0642 10.3439 14.3385C10.4233 14.6128 10.6745 14.8016 10.9601 14.8016H27.6077C27.8933 14.8016 28.1445 14.6128 28.2239 14.3385C28.3034 14.0642 28.1918 13.7704 27.9505 13.6178Z" fill="#8CBCFF"/>
<path d="M26.5133 15.1875H24.2809C23.9266 15.1875 23.6394 15.4747 23.6394 15.829V25.2244C23.6394 25.5787 23.9266 25.8659 24.2809 25.8659H26.5133C26.8676 25.8659 27.1548 25.5787 27.1548 25.2244V15.829C27.1548 15.4747 26.8676 15.1875 26.5133 15.1875Z" fill="#8CBCFF"/>
<path d="M20.4001 15.1875H18.1676C17.8133 15.1875 17.5261 15.4747 17.5261 15.829V25.2244C17.5261 25.5787 17.8133 25.8659 18.1676 25.8659H20.4001C20.7543 25.8659 21.0415 25.5787 21.0415 25.2244V15.829C21.0416 15.4747 20.7544 15.1875 20.4001 15.1875Z" fill="#8CBCFF"/>
<path d="M14.2433 15.1875H12.0109C11.6566 15.1875 11.3694 15.4747 11.3694 15.829V25.2244C11.3694 25.5787 11.6566 25.8659 12.0109 25.8659H14.2433C14.5976 25.8659 14.8848 25.5787 14.8848 25.2244V15.829C14.8848 15.4747 14.5976 15.1875 14.2433 15.1875Z" fill="#8CBCFF"/>
<path d="M14.0632 15.4766H13.4082V25.7906H14.0632C14.271 25.7906 14.4396 25.513 14.4396 25.1711V16.0961C14.4396 15.7541 14.271 15.4766 14.0632 15.4766Z" fill="#6AA9FF"/>
<path d="M28.7971 13.5156H9.77045C9.11183 13.5156 8.57593 14.0515 8.57593 14.7101V15.9382C8.57593 16.5968 9.11179 17.1327 9.77045 17.1327H28.7971C29.4558 17.1327 29.9917 16.5968 29.9917 15.9382V14.7101C29.9917 14.0514 29.4558 13.5156 28.7971 13.5156Z" fill="#2682FF"/>
<path d="M27.6075 23.9609H10.9598C10.6056 23.9609 10.3184 24.2481 10.3184 24.6024V26.9365C10.3184 27.2908 10.6056 27.578 10.9598 27.578H27.6074C27.9617 27.578 28.2489 27.2908 28.2489 26.9365V24.6024C28.249 24.2481 27.9618 23.9609 27.6075 23.9609Z" fill="#2682FF"/>
<path d="M29.262 25.7891H8.90001C8.54169 25.7891 8.25122 26.1166 8.25122 26.5207V29.183C8.25122 29.5871 8.54169 29.9147 8.90001 29.9147H29.262C29.6203 29.9147 29.9108 29.5871 29.9108 29.183V26.5207C29.9108 26.1166 29.6203 25.7891 29.262 25.7891Z" fill="#0051BF"/>
<path d="M28.2238 14.3387C28.1447 14.6128 27.8932 14.8019 27.6075 14.8019H19.2839V8.25781C19.4028 8.25781 19.5217 8.29072 19.6265 8.35701L27.7936 13.5189L27.9505 13.6181C28.1917 13.7704 28.3033 14.0642 28.2238 14.3387Z" fill="#6AA9FF"/>
<path d="M26.5129 15.1875H25.3967V25.8662H26.5129C26.867 25.8662 27.1544 25.5788 27.1544 25.2247V15.829C27.1544 15.4749 26.867 15.1875 26.5129 15.1875Z" fill="#6AA9FF"/>
<path d="M20.4001 15.1875H19.2839V25.8662H20.4002C20.7543 25.8662 21.0416 25.5788 21.0416 25.2247V15.829C21.0416 15.4749 20.7542 15.1875 20.4001 15.1875Z" fill="#6AA9FF"/>
<path d="M29.9917 14.7101V15.9379C29.9917 16.5965 29.4559 17.1324 28.7973 17.1324H19.2839V13.5156H28.7973C29.4559 13.5156 29.9917 14.0515 29.9917 14.7101Z" fill="#046EFF"/>
<path d="M28.249 24.6024V26.9366C28.249 27.2907 27.9621 27.5781 27.6075 27.5781H19.2839V23.9609H27.6075C27.9621 23.9609 28.249 24.2483 28.249 24.6024Z" fill="#046EFF"/>
<path d="M29.9108 26.5207V29.183C29.9108 29.5869 29.6344 29.9147 29.2929 29.9147H19.5967V25.7891H29.2929C29.6343 25.7891 29.9108 26.1163 29.9108 26.5207Z" fill="#00347B"/>
</svg>
