<svg width="15" height="14" viewBox="0 0 15 14" fill="none" xmlns="http://www.w3.org/2000/svg">
<path d="M1.46826 6.28862C1.19024 6.2894 0.918123 6.36888 0.68339 6.51786C0.448657 6.66684 0.260901 6.87923 0.141842 7.13047C0.0227838 7.38171 -0.022711 7.66152 0.0106213 7.93753C0.0439536 8.21354 0.154751 8.47448 0.330195 8.69015L4.07025 13.2717C4.2036 13.4373 4.37453 13.5687 4.56885 13.6549C4.76317 13.7412 4.97527 13.7798 5.18752 13.7676C5.64148 13.7433 6.05133 13.5004 6.31263 13.1011L14.0817 0.589114C14.0829 0.587038 14.0843 0.584963 14.0856 0.582918C14.1585 0.470993 14.1349 0.249185 13.9844 0.109844C13.9431 0.0715786 13.8944 0.0421805 13.8412 0.0234596C13.7881 0.00473877 13.7317 -0.00290842 13.6755 0.000989164C13.6193 0.00488675 13.5645 0.0202466 13.5145 0.0461226C13.4645 0.0719985 13.4203 0.107843 13.3846 0.151448C13.3818 0.154876 13.379 0.158253 13.376 0.161578L5.54083 9.01415C5.51102 9.04784 5.47481 9.07527 5.4343 9.09484C5.3938 9.11442 5.34981 9.12575 5.30489 9.12818C5.25997 9.13061 5.21502 9.12409 5.17264 9.109C5.13026 9.09391 5.0913 9.07055 5.05803 9.04027L2.45768 6.67394C2.18761 6.42637 1.83463 6.2889 1.46826 6.28862Z" fill="#0043B4"/>
</svg>
