<svg width="25" height="25" viewBox="0 0 25 25" fill="none" xmlns="http://www.w3.org/2000/svg">
<path d="M24.9951 6.16567C24.966 5.89663 24.7988 5.65859 24.5491 5.54199L12.8304 0.0732603C12.6209 -0.0244445 12.379 -0.0243957 12.1696 0.0732603L0.450877 5.54199C0.201171 5.65854 0.0340819 5.89648 0.00483397 6.16543C0.0041992 6.17104 0 6.24585 0 6.24995V19.5312C0 19.8506 0.194482 20.1379 0.491112 20.2565L12.2098 24.944C12.303 24.9812 12.4015 24.9999 12.5 24.9999C12.5984 24.9999 12.6969 24.9813 12.79 24.944L15.9654 23.6742C16.9236 24.4999 18.1701 24.9999 19.5312 24.9999C22.5467 24.9999 24.9999 22.5466 24.9999 19.5312V6.24995C24.9999 6.24604 24.9957 6.17104 24.9951 6.16567ZM12.5 1.64332L22.253 6.19477L18.4975 7.69696L8.56086 3.48155L12.5 1.64332ZM11.7187 23.0647L1.56249 19.0022V7.40385L11.7187 11.4663V23.0647ZM12.5 10.096L2.74687 6.19477L6.65569 4.37066L16.4382 8.52069L12.5 10.096ZM19.5312 23.4374C17.3773 23.4374 15.6249 21.6851 15.6249 19.5312C15.6249 17.3773 17.3773 15.6249 19.5312 15.6249C21.6851 15.6249 23.4374 17.3773 23.4374 19.5312C23.4374 21.6851 21.6851 23.4374 19.5312 23.4374ZM19.5312 14.0624C16.5157 14.0624 14.0625 16.5157 14.0625 19.5312C14.0625 20.5915 14.3661 21.5821 14.8906 22.4212L13.2812 23.0648V11.4663L23.4374 7.40385V15.708C22.4441 14.6933 21.06 14.0624 19.5312 14.0624Z" fill="#D02F2F" fill-opacity="0.9"/>
<path d="M20.6359 19.5313L21.2553 18.9119C21.5604 18.6067 21.5604 18.1121 21.2553 17.807C20.9502 17.5019 20.4555 17.5019 20.1505 17.807L19.531 18.4264L18.9116 17.8069C18.6065 17.5019 18.1118 17.5019 17.8067 17.8069C17.5016 18.1121 17.5016 18.6067 17.8067 18.9118L18.4262 19.5313L17.8068 20.1507C17.5016 20.4559 17.5016 20.9505 17.8068 21.2556C17.9593 21.4081 18.1592 21.4844 18.3592 21.4844C18.5591 21.4844 18.759 21.4081 18.9116 21.2556L19.531 20.6361L20.1505 21.2556C20.3031 21.4081 20.503 21.4844 20.7029 21.4844C20.9029 21.4844 21.1028 21.4081 21.2553 21.2556C21.5604 20.9505 21.5604 20.4559 21.2553 20.1507L20.6359 19.5313Z" fill="#D02F2F" fill-opacity="0.9"/>
</svg>
