<svg width="105" height="137" viewBox="0 0 105 137" fill="none" xmlns="http://www.w3.org/2000/svg">
<path d="M105 51.9655C105 106.293 52.5 137 52.5 137C52.5 137 0 106.293 0 51.9655C0 38.1834 5.53124 24.9658 15.3769 15.2203C25.2226 5.47492 38.5761 0 52.5 0C66.4239 0 79.7775 5.47492 89.6231 15.2203C99.4688 24.9658 105 38.1834 105 51.9655Z" fill="#0043B4"/>
<path d="M52.5 87C72.1061 87 88 71.1061 88 51.5C88 31.8939 72.1061 16 52.5 16C32.8939 16 17 31.8939 17 51.5C17 71.1061 32.8939 87 52.5 87Z" fill="white"/>
<path d="M43.7242 73C42.5306 73.0011 41.3816 72.5415 40.512 71.7152L30.4852 62.2159C30.0349 61.7893 29.6723 61.2772 29.4179 60.7089C29.1635 60.1406 29.0223 59.5273 29.0024 58.9039C28.9826 58.2805 29.0844 57.6592 29.3021 57.0756C29.5199 56.4919 29.8492 55.9573 30.2713 55.5023C30.6935 55.0473 31.2002 54.6808 31.7625 54.4237C32.3248 54.1666 32.9317 54.0239 33.5486 54.0038C34.1654 53.9838 34.7802 54.0867 35.3577 54.3067C35.9352 54.5267 36.4641 54.8596 36.9144 55.2862L43.5832 61.6032L67.9371 36.4278C68.8096 35.5271 70.0004 35.0136 71.2476 35.0003C72.4947 34.9869 73.696 35.4748 74.5872 36.3566C75.4784 37.2383 75.9865 38.4418 75.9997 39.7022C76.013 40.9625 75.5302 42.1766 74.6577 43.0773L47.0939 71.5751C46.6553 72.0285 46.131 72.3883 45.5521 72.633C44.9733 72.8778 44.3517 73.0026 43.7242 73Z" fill="#24AE5F"/>
</svg>
