<svg width="38" height="38" viewBox="0 0 38 38" fill="none" xmlns="http://www.w3.org/2000/svg">
<circle cx="19" cy="19" r="19" fill="#D9D9D9"/>
<path d="M25.7572 22.1454L23.6379 20.026C22.881 19.2691 21.5943 19.5719 21.2915 20.5559C21.0644 21.2371 20.3075 21.6156 19.6263 21.4642C18.1125 21.0857 16.0689 19.1178 15.6904 17.5283C15.4634 16.847 15.9175 16.0901 16.5987 15.8631C17.5827 15.5603 17.8855 14.2736 17.1286 13.5167L15.0092 11.3974C14.4037 10.8675 13.4954 10.8675 12.9656 11.3974L11.5275 12.8355C10.0894 14.3493 11.6789 18.3609 15.2363 21.9183C18.7937 25.4757 22.8053 27.1409 24.3191 25.6271L25.7572 24.189C26.2871 23.5835 26.2871 22.6752 25.7572 22.1454Z" fill="black"/>
</svg>
