<svg width="44" height="38" viewBox="0 0 44 38" fill="none" xmlns="http://www.w3.org/2000/svg">
<path d="M44 22C44 18.3821 43.1077 14.82 41.4023 11.6293C39.6968 8.43855 37.2307 5.71768 34.2225 3.70767C31.2144 1.69766 27.7569 0.460554 24.1564 0.105936C20.5559 -0.248682 16.9235 0.290131 13.581 1.67465C10.2384 3.05917 7.28896 5.24666 4.99377 8.04335C2.69859 10.84 1.12855 14.1596 0.422724 17.708C-0.283098 21.2564 -0.102915 24.9241 0.947312 28.3863C1.99754 31.8484 3.88539 34.9981 6.44365 37.5563L9.60225 34.3977C7.56343 32.3589 6.05889 29.8488 5.22191 27.0896C4.38492 24.3304 4.24132 21.4074 4.80383 18.5795C5.36634 15.7515 6.6176 13.106 8.44676 10.8771C10.2759 8.6483 12.6265 6.90496 15.2904 5.80156C17.9542 4.69816 20.8491 4.26875 23.7185 4.55136C26.588 4.83398 29.3434 5.8199 31.7408 7.42179C34.1382 9.02368 36.1036 11.1921 37.4628 13.735C38.822 16.2778 39.5331 19.1167 39.5331 22H44Z" fill="#009045"/>
</svg>
