<svg width="188" height="157" viewBox="0 0 188 157" fill="none" xmlns="http://www.w3.org/2000/svg">
<path d="M184.708 73.7667C179.086 46.5728 161.283 23.4589 136.386 11.1624C133.774 9.87258 131.002 8.57047 128.062 7.26353C91.2726 -9.08717 70.091 5.03389 59.3144 21.3846C48.5378 37.7353 35.16 65.9774 26.613 79.7269C18.066 93.4763 6.91784 122.462 28.471 142.528C50.0242 162.595 70.4626 155.906 84.5837 150.332C98.7047 144.758 112.826 149.589 138.838 149.589C164.851 149.589 186.404 129.522 187.89 104.625C188.434 95.512 186.888 84.3092 184.708 73.7667Z" fill="#0043B4"/>
<path opacity="0.7" d="M184.708 73.7667C179.086 46.5728 161.283 23.4589 136.386 11.1624C133.774 9.87258 131.002 8.57047 128.062 7.26353C91.2726 -9.08717 70.091 5.03389 59.3144 21.3846C48.5378 37.7353 35.16 65.9774 26.613 79.7269C18.066 93.4763 6.91784 122.462 28.471 142.528C50.0242 162.595 70.4626 155.906 84.5837 150.332C98.7047 144.758 112.826 149.589 138.838 149.589C164.851 149.589 186.404 129.522 187.89 104.625C188.434 95.512 186.888 84.3092 184.708 73.7667Z" fill="white"/>
<path d="M142.14 79.5589C137.603 63.4928 122.835 51.7188 105.316 51.7188C90.3196 51.7188 77.3383 60.347 71.0654 72.9103" stroke="#263238" stroke-miterlimit="10" stroke-linecap="round" stroke-linejoin="round"/>
<path d="M143.568 89.1844C143.531 87.3543 143.365 85.5556 143.08 83.7969" stroke="#263238" stroke-miterlimit="10" stroke-linecap="round" stroke-linejoin="round"/>
<path d="M72.8047 110.155C79.5561 121.01 91.5926 128.237 105.317 128.237C125.005 128.237 141.22 113.365 143.342 94.2422" stroke="#263238" stroke-miterlimit="10" stroke-linecap="round" stroke-linejoin="round"/>
<path d="M70.377 105.594C70.7478 106.422 71.1468 107.235 71.5737 108.031" stroke="#263238" stroke-miterlimit="10" stroke-linecap="round" stroke-linejoin="round"/>
<path d="M69.6756 76.0391C67.985 80.3584 67.0566 85.0606 67.0566 89.9793C67.0566 94.489 67.8369 98.8162 69.2696 102.834" stroke="#263238" stroke-miterlimit="10" stroke-linecap="round" stroke-linejoin="round"/>
<path d="M131.75 97.7203C132.115 96.4693 132.394 95.1813 132.58 93.8634L130.76 93.672C130.247 93.6178 129.875 93.1579 129.928 92.6446C129.983 92.1316 130.441 91.757 130.956 91.8127L132.776 92.0042C132.824 91.3342 132.858 90.6601 132.858 89.9778C132.858 87.3535 132.483 84.8179 131.798 82.4139L129.927 83.0215C129.831 83.0525 129.734 83.0674 129.638 83.0674C129.244 83.0674 128.878 82.8162 128.75 82.4214C128.59 81.9301 128.859 81.4029 129.35 81.2437L131.229 80.6331C130.113 77.5397 128.458 74.7061 126.379 72.24L124.834 73.6308C124.656 73.7916 124.432 73.8709 124.209 73.8709C123.953 73.8709 123.699 73.7666 123.515 73.5617C123.169 73.1781 123.2 72.587 123.584 72.2415L125.126 70.8533C122.868 68.5151 120.205 66.571 117.243 65.1458L116.363 67.1228C116.208 67.4709 115.866 67.6776 115.508 67.6776C115.381 67.6776 115.252 67.6518 115.129 67.5965C114.657 67.3864 114.445 66.8342 114.655 66.3627L115.528 64.4003C112.563 63.2151 109.345 62.5324 105.975 62.4531V64.6242C105.975 65.1405 105.557 65.5589 105.041 65.5589C104.524 65.5589 104.106 65.1405 104.106 64.6242V62.4673C100.745 62.6128 97.5389 63.356 94.5954 64.601L95.4703 66.5657C95.6804 67.0376 95.4684 67.5898 94.9966 67.7999C94.8732 67.8552 94.7438 67.881 94.6167 67.881C94.2585 67.881 93.9172 67.6743 93.7624 67.3266L92.9025 65.3951C89.9758 66.8761 87.3493 68.861 85.1386 71.2407L86.6629 72.6132C87.0465 72.9586 87.0775 73.5497 86.7321 73.9333C86.5474 74.1382 86.2928 74.2425 86.037 74.2425C85.8142 74.2425 85.5906 74.1632 85.4119 74.0025L83.9123 72.652C81.887 75.151 80.294 78.0115 79.2381 81.1218L81.0765 81.7192C81.5677 81.8789 81.8362 82.4064 81.6765 82.8969C81.5483 83.2921 81.1819 83.543 80.7878 83.543C80.6921 83.543 80.5945 83.5281 80.4988 83.497L78.6941 82.9104C78.0967 85.1667 77.7744 87.5349 77.7744 89.9789C77.7744 90.8283 77.8185 91.6673 77.8941 92.4973L79.6771 92.31C80.19 92.2528 80.6503 92.6285 80.7041 93.1419C80.7583 93.6552 80.3856 94.115 79.8722 94.1693L78.1236 94.3532C78.6399 97.5883 79.7212 100.634 81.2604 103.389L82.7054 102.555C83.1526 102.296 83.7243 102.45 83.9822 102.897C84.2402 103.344 84.0873 103.916 83.6401 104.174L82.2284 104.989C83.9744 107.669 86.1705 110.029 88.7155 111.954L89.6397 110.682C89.9433 110.265 90.528 110.173 90.9453 110.475C91.3629 110.779 91.4556 111.363 91.152 111.781L90.2457 113.028C92.8741 114.75 95.8139 116.033 98.963 116.777L99.2797 115.286C99.387 114.781 99.885 114.459 100.388 114.566C100.893 114.674 101.216 115.17 101.108 115.675L100.796 117.146C102.267 117.389 103.776 117.521 105.316 117.521C107.011 117.521 108.667 117.36 110.277 117.067L109.959 115.571C109.852 115.066 110.174 114.57 110.679 114.463C111.182 114.355 111.681 114.677 111.788 115.183L112.105 116.676C115.243 115.881 118.166 114.548 120.769 112.779L119.831 111.488C119.528 111.071 119.62 110.486 120.038 110.183C120.456 109.879 121.04 109.972 121.343 110.389L122.276 111.672C124.791 109.703 126.955 107.307 128.659 104.591L127.189 103.743C126.742 103.485 126.589 102.913 126.847 102.466C127.105 102.019 127.678 101.866 128.124 102.124L129.601 102.977C130.204 101.853 130.731 100.682 131.175 99.4712" stroke="#263238" stroke-miterlimit="10" stroke-linecap="round" stroke-linejoin="round"/>
<path d="M89.3276 81.0337C87.8429 83.6804 86.9961 86.7334 86.9961 89.9839C86.9961 100.102 95.1982 108.304 105.316 108.304C115.434 108.304 123.636 100.102 123.636 89.9839C123.636 79.8661 115.434 71.6641 105.316 71.6641C99.5321 71.6641 94.3741 74.3444 91.0167 78.531" stroke="#263238" stroke-miterlimit="10" stroke-linecap="round" stroke-linejoin="round"/>
<path d="M85.4551 27.2533C88.35 19.0763 96.1606 13.2031 105.317 13.2031C116.93 13.2031 126.379 22.6513 126.379 34.2646V44.4358" stroke="#263238" stroke-miterlimit="10" stroke-linecap="round" stroke-linejoin="round"/>
<path d="M133.108 59.4807V34.2678C133.108 18.9438 120.641 6.47656 105.317 6.47656C89.9926 6.47656 77.5254 18.9438 77.5254 34.2678V63.6816C79.5409 61.552 81.7991 59.655 84.2551 58.0323V34.2678C84.2551 32.7225 84.4223 31.2158 84.7397 29.7648" stroke="#263238" stroke-miterlimit="10" stroke-linecap="round" stroke-linejoin="round"/>
<path d="M126.378 48.1484V58.0303C128.834 59.6529 131.092 61.55 133.108 63.6796V61.0415" stroke="#263238" stroke-miterlimit="10" stroke-linecap="round" stroke-linejoin="round"/>
<path d="M131.238 148.18H79.3939C76.5719 148.18 74.2842 145.893 74.2842 143.071C74.2842 140.249 76.5719 137.961 79.3939 137.961H131.238C134.06 137.961 136.348 140.249 136.348 143.071C136.347 145.893 134.06 148.18 131.238 148.18Z" fill="#263238" stroke="#263238" stroke-miterlimit="10" stroke-linecap="round" stroke-linejoin="round"/>
<path d="M81.2081 142.506L80.7296 139.469H82.3866L81.908 142.506L84.6511 141.126L85.1663 142.691L82.1473 143.206L84.3012 145.36L82.9758 146.336L81.5581 143.611L80.1407 146.336L78.8153 145.36L80.9692 143.206L77.9502 142.691L78.4658 141.126L81.2081 142.506Z" fill="#0043B4"/>
<path d="M93.1271 142.506L92.6485 139.469H94.3055L93.827 142.506L96.5701 141.126L97.0853 142.691L94.0663 143.206L96.2201 145.36L94.8948 146.336L93.477 143.611L92.0597 146.336L90.7343 145.36L92.8882 143.206L89.8691 142.691L90.3843 141.126L93.1271 142.506Z" fill="#0043B4"/>
<path d="M105.045 142.506L104.566 139.469H106.224L105.745 142.506L108.488 141.126L109.003 142.691L105.984 143.206L108.138 145.36L106.813 146.336L105.395 143.611L103.978 146.336L102.652 145.36L104.806 143.206L101.787 142.691L102.302 141.126L105.045 142.506Z" fill="#0043B4"/>
<path d="M116.964 142.506L116.485 139.469H118.142L117.664 142.506L120.407 141.126L120.922 142.691L117.903 143.206L120.056 145.36L118.731 146.335L117.313 143.611L115.896 146.335L114.57 145.36L116.724 143.206L113.705 142.69L114.22 141.125L116.964 142.506Z" fill="#0043B4"/>
<path d="M128.882 142.506L128.404 139.469H130.061L129.582 142.506L132.325 141.126L132.841 142.691L129.822 143.206L131.975 145.36L130.65 146.336L129.232 143.611L127.815 146.336L126.489 145.36L128.643 143.206L125.624 142.691L126.139 141.126L128.882 142.506Z" fill="#0043B4"/>
<path d="M180.679 29.6736C180.723 29.8306 180.866 29.933 181.021 29.933C181.053 29.933 181.085 29.9286 181.118 29.9196C181.307 29.8661 181.417 29.6695 181.364 29.4807C181.09 28.5112 180.687 27.6154 180.165 26.8172C180.057 26.653 179.837 26.6067 179.672 26.7144C179.507 26.822 179.461 27.0426 179.569 27.2071C180.052 27.9444 180.425 28.774 180.679 29.6736Z" fill="#263238"/>
<path d="M161.405 26.3054C161.469 26.3548 161.545 26.3783 161.62 26.3783C161.727 26.3783 161.833 26.3301 161.903 26.2385C161.934 26.1974 165.128 22.1169 170.909 22.7387C174.326 23.1065 176.932 24.2181 178.657 26.0426C178.792 26.1854 179.017 26.1918 179.16 26.0568C179.303 25.9218 179.309 25.6967 179.174 25.5539C177.33 23.6031 174.575 22.4182 170.986 22.0317C164.794 21.365 161.475 25.6261 161.337 25.8078C161.218 25.9633 161.249 26.1865 161.405 26.3054Z" fill="#263238"/>
<path d="M181.459 32.0275C179.588 31.6809 178.779 29.77 178.13 28.2341C177.982 27.8857 177.843 27.5563 177.702 27.2748C176.871 25.6125 173.318 23.9021 169.985 24.1877C168.576 24.3085 163.83 25.0786 161.942 29.9158C161.101 32.0708 161.073 34.4472 161.197 36.0616C161.211 36.2481 161.367 36.3902 161.551 36.3902C161.56 36.3902 161.57 36.3898 161.579 36.3891C161.775 36.3741 161.921 36.2029 161.906 36.007C161.788 34.4666 161.813 32.2043 162.605 30.1745C164.343 25.7198 168.74 25.0087 170.046 24.8966C173.313 24.6162 176.436 26.3337 177.066 27.5926C177.196 27.8539 177.331 28.1732 177.474 28.5108C178.152 30.1144 179.081 32.3101 181.33 32.7266C181.522 32.761 181.709 32.6346 181.745 32.4414C181.78 32.2492 181.652 32.0634 181.459 32.0275Z" fill="#263238"/>
<path d="M161.9 38.7913C161.928 38.7913 161.956 38.788 161.985 38.7812C162.175 38.7345 162.292 38.5419 162.246 38.3513C162.245 38.3475 162.153 37.971 162.06 37.3571C162.031 37.1627 161.85 37.0292 161.655 37.0588C161.461 37.0883 161.327 37.2696 161.357 37.4641C161.455 38.1124 161.551 38.5042 161.554 38.5203C161.594 38.6825 161.74 38.7913 161.9 38.7913Z" fill="#263238"/>
<path d="M181.326 34.9785L177.53 32.1763C177.492 31.9737 177.397 31.6005 177.159 30.9459C176.77 29.8762 175.123 27.0127 172.209 26.6108C170.443 26.3671 168.664 26.5951 167.199 27.2528C167.019 27.3331 166.939 27.544 167.02 27.7231C167.1 27.9026 167.311 27.9826 167.49 27.9022C168.835 27.2984 170.476 27.0901 172.112 27.3159C174.663 27.6678 176.165 30.2961 176.49 31.1889C176.818 32.0926 176.841 32.373 176.841 32.373C176.841 32.4859 176.895 32.5921 176.986 32.6594L180.903 35.5509C180.967 35.598 181.041 35.6204 181.114 35.6204C181.223 35.6204 181.331 35.5703 181.401 35.4758C181.518 35.318 181.484 35.0952 181.326 34.9785Z" fill="#263238"/>
<path d="M164.48 37.3094C163.864 35.2285 163.468 32.2483 165.086 29.869C165.45 29.334 165.913 28.8677 166.462 28.4834C166.623 28.3709 166.662 28.1488 166.549 27.9876C166.437 27.8269 166.215 27.7876 166.053 27.9001C165.434 28.3342 164.91 28.8618 164.498 29.4685C163.093 31.5342 162.851 34.3155 163.798 37.5113C164.441 39.6809 161.339 40.8897 161.308 40.9016C161.124 40.9712 161.032 41.1764 161.101 41.3604C161.155 41.5028 161.29 41.5903 161.434 41.5903C161.476 41.5903 161.519 41.5828 161.56 41.5671C162.861 41.0755 165.145 39.5519 164.48 37.3094Z" fill="#263238"/>
<path d="M181.03 37.6726C180.993 37.6479 177.243 35.1691 176.081 33.6497C175.428 32.7965 175.357 32.5068 175.281 32.1998C175.216 31.9329 175.141 31.63 174.795 31.0677C174.035 29.8321 172.238 28.5351 169.679 28.9441C167.214 29.3385 165.742 31.2483 165.742 34.0523C165.742 35.2099 165.831 36.2085 165.917 37.1746C166.024 38.3751 166.126 39.509 166.023 40.7387C165.861 42.6866 163.167 43.3958 163.12 43.4078C162.93 43.4557 162.814 43.6486 162.861 43.8393C162.902 44.0011 163.047 44.1088 163.206 44.1088C163.235 44.1088 163.264 44.1055 163.293 44.098C163.425 44.0651 166.527 43.2616 166.732 40.7974C166.84 39.5068 166.736 38.3433 166.626 37.111C166.541 36.1606 166.454 35.1777 166.454 34.052C166.454 31.5915 167.67 29.9857 169.792 29.6466C172.005 29.2922 173.544 30.3914 174.19 31.4405C174.477 31.9078 174.532 32.1321 174.591 32.3695C174.681 32.7337 174.773 33.1102 175.516 34.0819C176.751 35.697 180.481 38.1627 180.639 38.267C180.803 38.3751 181.024 38.3295 181.132 38.1657C181.24 38.0012 181.195 37.7806 181.03 37.6726Z" fill="#263238"/>
<path d="M170.386 37.8425L170.208 37.6197C168.834 35.9081 168.077 34.9655 169.2 33.1201C169.591 32.4774 170.031 32.1596 170.501 32.1813C171.194 32.2101 172.014 32.9713 172.588 34.1202C172.913 34.7696 173.758 35.7765 175.172 37.1983C175.31 37.3378 175.535 37.3382 175.675 37.1998C175.814 37.0611 175.815 36.836 175.676 36.6966C174.007 35.0171 173.421 34.1954 173.224 33.8017C172.515 32.3825 171.508 31.5106 170.53 31.4702C170.012 31.4489 169.259 31.6534 168.591 32.75C167.208 35.0216 168.234 36.2984 169.652 38.0653L169.83 38.2874C171.329 40.1602 176.383 44.3199 176.598 44.496C176.664 44.5502 176.744 44.5767 176.824 44.5767C176.927 44.5767 177.029 44.5326 177.099 44.4466C177.224 44.2948 177.202 44.0705 177.05 43.9456C176.998 43.9034 171.839 39.6577 170.386 37.8425Z" fill="#263238"/>
<path d="M176.995 37.9809C176.853 37.8452 176.628 37.8512 176.492 37.9936C176.357 38.136 176.363 38.3611 176.505 38.4965C178.003 39.9205 179.375 41.1173 179.389 41.1293C179.456 41.188 179.54 41.2168 179.623 41.2168C179.722 41.2168 179.821 41.1753 179.891 41.0945C180.02 40.9465 180.005 40.7218 179.856 40.5924C179.842 40.5804 178.481 39.3934 176.995 37.9809Z" fill="#263238"/>
<path d="M178.443 42.1649C178.396 42.1279 173.708 38.4441 172.536 36.9123C171.382 35.4026 170.92 33.872 170.916 33.8566C170.86 33.6682 170.663 33.5605 170.474 33.6162C170.286 33.672 170.178 33.8694 170.233 34.0578C170.253 34.1251 170.732 35.7253 171.971 37.3449C173.197 38.9481 177.808 42.5717 178.004 42.7253C178.069 42.7765 178.146 42.8012 178.223 42.8012C178.328 42.8012 178.433 42.7545 178.503 42.6651C178.624 42.51 178.597 42.286 178.443 42.1649Z" fill="#263238"/>
<path d="M170.668 43.5378C169.322 44.366 169.02 47.047 169.008 47.1607C168.987 47.3562 169.128 47.5316 169.324 47.5525C169.337 47.554 169.35 47.5544 169.362 47.5544C169.541 47.5544 169.696 47.419 169.715 47.2366C169.788 46.5584 170.168 44.6808 171.04 44.1439C171.754 43.7042 173.3 45.159 173.937 45.9321C174.061 46.0839 174.286 46.1056 174.438 45.9811C174.589 45.8562 174.612 45.6323 174.487 45.4805C174.247 45.1885 172.104 42.6536 170.668 43.5378Z" fill="#263238"/>
<path d="M168.153 39.4023C167.963 39.4521 167.85 39.6461 167.899 39.836C167.904 39.8528 168.324 41.5248 167.633 43.2517C166.96 44.9349 165.657 45.4542 165.599 45.4763C165.416 45.5458 165.323 45.7503 165.392 45.9339C165.445 46.0767 165.581 46.165 165.725 46.165C165.766 46.165 165.809 46.1575 165.85 46.1422C165.917 46.1171 167.499 45.5043 168.294 43.5161C169.075 41.5641 168.608 39.7328 168.587 39.6558C168.537 39.4659 168.344 39.3526 168.153 39.4023Z" fill="#263238"/>
<path d="M167.008 20.9132C169.209 20.3816 172.544 20.0526 175.938 21.5069C175.984 21.5264 176.031 21.5357 176.078 21.5357C176.216 21.5357 176.347 21.455 176.405 21.32C176.482 21.1394 176.399 20.9301 176.218 20.8527C172.644 19.3213 169.146 19.6641 166.841 20.2216C166.65 20.2675 166.532 20.4601 166.578 20.6511C166.624 20.8418 166.816 20.9596 167.008 20.9132Z" fill="#263238"/>
<path d="M164.513 21.7221C164.564 21.7221 164.615 21.7112 164.665 21.6877C164.668 21.6862 165.007 21.5265 165.592 21.3254C165.777 21.2615 165.876 21.0588 165.812 20.873C165.748 20.6872 165.546 20.5881 165.36 20.6524C164.734 20.8678 164.374 21.0379 164.359 21.045C164.182 21.1295 164.107 21.3415 164.191 21.5191C164.252 21.6469 164.38 21.7221 164.513 21.7221Z" fill="#263238"/>
<path d="M82.5728 88.0385C82.5728 88.0385 82.9467 90.0948 83.4141 90.8426C83.8814 91.5903 85.19 92.4315 85.2834 94.0205C85.3769 95.6095 85.2834 97.1984 85.2834 97.1984C85.2834 97.1984 89.3026 99.6286 92.574 101.311C95.8454 102.993 98.6494 103.835 98.6494 103.835L97.7147 111.593C97.7147 111.593 87.8071 104.676 85.4704 102.526C83.1336 100.376 80.9839 97.9462 80.61 97.8527C80.2361 97.7592 77.2451 93.6466 77.1517 93.1793C77.0582 92.7119 78.5537 91.7772 79.021 91.8707C79.4884 91.9642 80.0492 90.8426 80.3296 89.9079C80.61 88.9732 80.61 87.8516 81.2643 87.8516C81.9186 87.8516 82.5728 88.0385 82.5728 88.0385Z" fill="white" stroke="#263238" stroke-miterlimit="10" stroke-linecap="round" stroke-linejoin="round"/>
<path d="M68.9992 88.1253L80.4839 99.7729C80.8286 100.123 81.3719 100.179 81.7816 99.909L84.7356 97.9593C85.2665 97.6089 85.3548 96.8657 84.9207 96.4006L74.4462 85.178C74.1606 84.8718 73.7172 84.7697 73.3261 84.92L69.3619 86.4447C68.671 86.7105 68.4796 87.5981 68.9992 88.1253Z" fill="#263238" stroke="#263238" stroke-miterlimit="10" stroke-linecap="round" stroke-linejoin="round"/>
<path d="M92.7979 126.129C96.7202 127.487 100.931 128.226 105.316 128.226C111.519 128.226 117.373 126.744 122.555 124.124C122.795 120.795 122.95 116.784 122.95 115.327C122.95 112.803 125.1 103.457 126.222 98.4092C127.343 93.3619 125.848 87.7538 124.539 82.4261C123.231 77.0984 118.09 73.4531 118.09 73.4531L105.378 79.5286C105.378 79.5286 95.8446 88.0342 95.0033 92.6142C94.1621 97.1941 97.527 101.4 97.527 102.428C97.527 103.278 94.0171 119.826 92.7979 126.129Z" fill="#0043B4" stroke="#263238" stroke-miterlimit="10" stroke-linecap="round" stroke-linejoin="round"/>
<path d="M118.33 102.493C118.33 102.493 123.149 98.9273 123.534 98.7344" stroke="#263238" stroke-miterlimit="10" stroke-linecap="round" stroke-linejoin="round"/>
<path d="M117.366 104.133L122.667 102.977" stroke="#263238" stroke-miterlimit="10" stroke-linecap="round" stroke-linejoin="round"/>
<path d="M103.416 72.5224L104.537 74.8591L114.632 68.1294L111.921 64.3906L102.948 71.8681L103.416 72.5224Z" fill="#263238" stroke="#263238" stroke-miterlimit="10" stroke-linecap="round" stroke-linejoin="round"/>
<path d="M113.382 67.1527L103.615 74.0051C103.062 74.3932 102.853 75.1132 103.112 75.7372L105.099 80.5169C105.393 81.2257 106.251 81.5043 106.906 81.1035L118.233 74.1685C118.86 73.7849 119.022 72.9463 118.584 72.3563L114.898 67.3972C114.542 66.9187 113.87 66.8106 113.382 67.1527Z" fill="#0043B4" stroke="#263238" stroke-miterlimit="10" stroke-linecap="round" stroke-linejoin="round"/>
<path d="M88.9551 52.1401C88.9551 52.1401 89.2762 56.6348 90.2393 58.5614C91.2024 60.4876 92.8079 62.4141 92.3263 63.2168C91.8448 64.0196 91.042 65.9458 92.1659 66.7485C93.2898 67.5512 94.2529 67.3908 94.2529 67.3908C94.2529 67.3908 97.0293 74.1067 98.9428 74.4978C102.267 75.1778 107.417 69.1566 107.898 68.9958C108.38 68.8354 112.554 65.9458 112.874 62.2537C113.196 58.5614 111.269 53.2639 109.664 52.622C108.059 51.9801 104.687 52.7824 101.798 51.6589C98.908 50.5347 89.597 47.8057 88.9551 52.1401Z" fill="white" stroke="#263238" stroke-miterlimit="10" stroke-linecap="round" stroke-linejoin="round"/>
<path d="M94.0918 60.1641L94.5733 61.6087C94.5733 61.6087 96.3392 62.0903 97.463 60.4848" stroke="#263238" stroke-miterlimit="10" stroke-linecap="round" stroke-linejoin="round"/>
<path d="M92.8984 57.9542C92.8984 57.9542 93.7296 56.5189 96.4491 57.2745" stroke="#263238" stroke-miterlimit="10" stroke-linecap="round" stroke-linejoin="round"/>
<path d="M95.4668 68.3802C95.4668 68.3802 96.449 68.3047 96.9776 67.8516" stroke="#263238" stroke-miterlimit="10" stroke-linecap="round" stroke-linejoin="round"/>
<path d="M87.8318 42.8414C87.8318 42.8414 84.6214 46.2126 85.1029 48.9415C85.5845 51.6704 89.1161 54.2389 91.0427 54.2389C92.9689 54.2389 94.0927 53.7574 96.5005 53.7574C98.9082 53.7574 101.477 55.5232 102.44 56.4863C103.403 57.4494 104.688 58.7337 105.49 57.4494C106.293 56.1651 105.811 55.0416 109.022 55.3624C112.232 55.6836 111.59 60.6599 110.467 63.068C109.343 65.4761 108.54 66.76 107.256 66.76C105.972 66.76 104.206 65.9573 105.169 67.4023C106.132 68.847 109.022 72.2182 115.604 70.9339C122.185 69.6497 124.272 64.1918 124.272 60.981C124.272 57.7706 122.025 52.9547 120.419 49.5835C118.814 46.2122 115.604 39.149 107.738 36.9016C99.8717 34.6543 91.0427 37.5436 87.8318 42.8414Z" fill="#263238" stroke="#263238" stroke-miterlimit="10" stroke-linecap="round" stroke-linejoin="round"/>
<path d="M105.515 58.6413C105.515 58.6413 105.364 55.4686 107.252 54.8641C109.141 54.2599 111.029 55.3927 111.105 57.6591C111.18 59.9256 110.878 62.2675 110.047 63.0983C109.216 63.9294 106.95 63.2493 106.95 63.2493" fill="white"/>
<path d="M105.515 58.6413C105.515 58.6413 105.364 55.4686 107.252 54.8641C109.141 54.2599 111.029 55.3927 111.105 57.6591C111.18 59.9256 110.878 62.2675 110.047 63.0983C109.216 63.9294 106.95 63.2493 106.95 63.2493" stroke="#263238" stroke-miterlimit="10" stroke-linecap="round" stroke-linejoin="round"/>
<path d="M112.483 81.8672C112.483 81.8672 107.903 85.2321 106.968 89.3447C106.033 93.4573 103.79 105.141 103.79 105.141C103.79 105.141 102.295 104.954 102.295 105.328C102.295 105.702 101.921 106.73 101.921 106.73C101.921 106.73 100.706 106.73 100.612 107.197C100.519 107.665 90.5175 102.524 87.9939 100.841C85.4702 99.1589 82.2923 96.8222 81.7315 96.0744C81.1706 95.3267 79.2078 92.99 78.1797 92.0553C77.1515 91.1206 75.0952 89.812 74.7213 89.5316C74.3474 89.2512 73.7866 86.821 72.9454 87.1949C72.1042 87.5688 72.2911 89.2512 72.665 89.9055C73.0389 90.5598 74.5344 93.2704 74.5344 93.2704C74.5344 93.2704 71.3564 93.5508 70.7022 94.0181C70.0479 94.4854 69.674 96.0744 70.4218 96.6352C71.1695 97.196 72.8519 97.383 72.8519 97.383C72.8519 97.383 73.3193 99.7197 74.254 100.374C75.1887 101.028 76.7776 101.683 77.6188 102.056C78.4601 102.43 81.3576 102.524 81.3576 102.524C81.3576 102.524 85.2833 106.917 87.9939 109.627C90.7044 112.338 101.36 120.002 102.949 120.563C104.538 121.124 106.407 119.909 107.061 118.974C107.716 118.04 118.652 102.617 121.269 97.4764" fill="white"/>
<path d="M112.483 81.8672C112.483 81.8672 107.903 85.2321 106.968 89.3447C106.033 93.4573 103.79 105.141 103.79 105.141C103.79 105.141 102.295 104.954 102.295 105.328C102.295 105.702 101.921 106.73 101.921 106.73C101.921 106.73 100.706 106.73 100.612 107.197C100.519 107.665 90.5175 102.524 87.9939 100.841C85.4702 99.1589 82.2923 96.8222 81.7315 96.0744C81.1706 95.3267 79.2078 92.99 78.1797 92.0553C77.1515 91.1206 75.0952 89.812 74.7213 89.5316C74.3474 89.2512 73.7866 86.821 72.9454 87.1949C72.1042 87.5688 72.2911 89.2512 72.665 89.9055C73.0389 90.5598 74.5344 93.2704 74.5344 93.2704C74.5344 93.2704 71.3564 93.5508 70.7022 94.0181C70.0479 94.4854 69.674 96.0744 70.4218 96.6352C71.1695 97.196 72.8519 97.383 72.8519 97.383C72.8519 97.383 73.3193 99.7197 74.254 100.374C75.1887 101.028 76.7776 101.683 77.6188 102.056C78.4601 102.43 81.3576 102.524 81.3576 102.524C81.3576 102.524 85.2833 106.917 87.9939 109.627C90.7044 112.338 101.36 120.002 102.949 120.563C104.538 121.124 106.407 119.909 107.061 118.974C107.716 118.04 118.652 102.617 121.269 97.4764" stroke="#263238" stroke-miterlimit="10" stroke-linecap="round" stroke-linejoin="round"/>
<path d="M112.483 81.8672C112.483 81.8672 107.903 85.2321 106.968 89.3447C106.034 93.4573 103.79 105.141 103.79 105.141C103.79 105.141 102.295 104.954 102.295 105.328C102.295 105.702 101.921 106.73 101.921 106.73C101.921 106.73 100.706 106.73 100.612 107.197C100.569 107.417 98.3378 106.399 95.7233 105.083L91.583 112.661C95.7891 115.952 101.788 120.153 102.949 120.563C104.538 121.124 106.408 119.909 107.062 118.974C107.705 118.055 119.167 102.285 122.003 96.9052" fill="#0043B4"/>
<path d="M112.483 81.8672C112.483 81.8672 107.903 85.2321 106.968 89.3447C106.034 93.4573 103.79 105.141 103.79 105.141C103.79 105.141 102.295 104.954 102.295 105.328C102.295 105.702 101.921 106.73 101.921 106.73C101.921 106.73 100.706 106.73 100.612 107.197C100.569 107.417 98.3378 106.399 95.7233 105.083L91.583 112.661C95.7891 115.952 101.788 120.153 102.949 120.563C104.538 121.124 106.408 119.909 107.062 118.974C107.705 118.055 119.167 102.285 122.003 96.9052" stroke="#263238" stroke-miterlimit="10" stroke-linecap="round" stroke-linejoin="round"/>
<path d="M82.2921 88.9712C82.2921 88.9712 81.077 92.2426 80.5162 92.523C79.9554 92.8034 79.3945 92.71 79.0207 91.8687C78.6468 91.0275 79.8619 88.4104 79.8619 88.4104C79.8619 88.4104 80.2358 87.1953 81.3574 87.1953C82.479 87.1953 82.5725 88.0365 82.5725 88.0365L82.2921 88.9712Z" fill="white" stroke="#263238" stroke-miterlimit="10" stroke-linecap="round" stroke-linejoin="round"/>
<path d="M39.2708 29.6599L30.3166 31.2356L30.3132 31.2695C30.2163 32.2703 29.715 32.997 29.0394 33.1162L28.6507 33.1845C27.9749 33.3033 27.2558 32.7912 26.8229 31.8839L26.8084 31.8531L17.8542 33.4289C15.3602 33.8678 13.6942 36.2451 14.1331 38.7391L24.1606 97.8015C24.4126 99.2326 25.7766 100.189 27.2077 99.9366L52.4732 95.4901C53.9043 95.2381 54.8604 93.8741 54.6083 92.443L44.5809 33.3806C44.1421 30.887 41.7648 29.2209 39.2708 29.6599Z" fill="#0043B4" stroke="#263238" stroke-miterlimit="10" stroke-linecap="round" stroke-linejoin="round"/>
<path d="M44.8131 34.6963L44.5815 33.3805C44.1425 30.8866 41.7652 29.2205 39.2713 29.6595L30.3171 31.2352L30.3136 31.2691C30.2167 32.2699 29.7154 32.9966 29.0398 33.1158L28.6511 33.1841C27.9754 33.3029 27.2562 32.7908 26.8234 31.8834L26.8088 31.8527L17.8546 33.4284C15.3606 33.8674 13.6946 36.2447 14.1335 38.7387L14.3652 40.0544L44.8131 34.6963Z" fill="white" stroke="#263238" stroke-miterlimit="10" stroke-linecap="round" stroke-linejoin="round"/>
<path d="M49.6618 52.9864L48.6549 47.2641L48.1371 47.355L45.8187 32.0976C45.3797 29.6037 43.0021 27.9378 40.5085 28.3766L16.2534 32.6452C13.7594 33.0841 12.0934 35.4614 12.5323 37.9554L22.8593 98.7204C23.2983 101.214 25.676 102.88 28.1696 102.441L52.4247 98.1728C54.9186 97.7339 56.5845 95.3562 56.1457 92.8626L50.0022 57.954L50.5199 57.863L49.9248 54.4817L49.4071 54.5727L49.1439 53.077L49.6618 52.9864ZM54.1592 89.8873C54.5981 92.3813 52.9321 94.7586 50.4381 95.1975L29.0215 98.9665C26.5275 99.4055 24.1502 97.7394 23.7112 95.2455L14.1334 38.738C13.6944 36.2441 15.3605 33.8668 17.8544 33.4278L26.8086 31.8521L26.8232 31.8828C27.2562 32.7906 27.9752 33.3023 28.6509 33.1835L29.0397 33.1152C29.7154 32.9964 30.2167 32.2696 30.3135 31.2684L30.3169 31.2346L39.2711 29.6588C41.7651 29.2199 44.1424 30.8859 44.5813 33.3799L54.1592 89.8873Z" fill="#707070" stroke="#263238" stroke-miterlimit="10" stroke-linecap="round" stroke-linejoin="round"/>
<path d="M39.8274 29.1417L17.1547 33.1317C14.5126 33.5969 12.7479 36.1155 13.2127 38.7578L23.2263 97.742C23.6915 100.384 26.2101 102.149 28.8524 101.684L51.525 97.694C54.1671 97.2288 55.9318 94.7102 55.4672 92.0683L45.4535 33.0841C44.9882 30.4416 42.4695 28.6766 39.8274 29.1417ZM54.1596 89.8907C54.5986 92.3847 52.9325 94.762 50.4386 95.2009L29.0219 98.9699C26.528 99.4088 24.1506 97.7428 23.7117 95.2488L14.1339 38.7414C13.6949 36.2475 15.3609 33.8702 17.8549 33.4312L26.8091 31.8555L26.8237 31.8862C27.2567 32.7939 27.9757 33.3057 28.6514 33.1869L29.0401 33.1186C29.7159 32.9997 30.2172 32.273 30.3139 31.2718L30.3174 31.238L39.2716 29.6622C41.7655 29.2233 44.1428 30.8893 44.5818 33.3833L54.1596 89.8907Z" fill="#263238" stroke="#263238" stroke-miterlimit="10" stroke-linecap="round" stroke-linejoin="round"/>
<path d="M28.9322 31.6986C28.8909 31.4644 28.6676 31.308 28.4337 31.3492C28.1996 31.3906 28.0431 31.6135 28.0844 31.8477C28.1257 32.0819 28.349 32.2382 28.5828 32.197C28.8168 32.1562 28.9732 31.9329 28.9322 31.6986Z" fill="#707070"/>
<path d="M16.3681 35.5848C16.4438 36.0137 15.989 36.2531 16.0449 36.5806L16.0488 36.6029L16.516 36.5207L16.5416 36.6649L15.9176 36.7749L15.8963 36.6529C15.8153 36.1934 16.2816 36.0194 16.2109 35.619C16.1851 35.4728 16.1228 35.4043 16.005 35.4248C15.8893 35.4454 15.853 35.5376 15.8749 35.6636L15.8973 35.7894L15.7491 35.8156L15.7286 35.6999C15.6903 35.4825 15.7643 35.3205 15.9837 35.2819C16.2054 35.2428 16.3298 35.3674 16.3681 35.5848Z" fill="#263238"/>
<path d="M17.1468 35.4469L17.1531 35.4833C17.179 35.6295 17.1385 35.7437 17.0321 35.8062C17.16 35.8299 17.2315 35.9283 17.2567 36.0705L17.2759 36.1805C17.3142 36.3979 17.2377 36.5579 17.018 36.5967C16.8006 36.635 16.674 36.5103 16.6357 36.2929L16.6186 36.1951L16.7668 36.1689L16.7855 36.2765C16.8079 36.4048 16.8745 36.4726 16.9884 36.4527C17.1041 36.4322 17.1418 36.3482 17.1163 36.2039L17.0971 36.094C17.0722 35.9537 17.0015 35.8971 16.8808 35.9142L16.7954 35.929L16.7706 35.7866L16.8641 35.7703C16.969 35.7476 17.0226 35.6692 17.0006 35.5454L16.9892 35.48C16.9633 35.3338 16.8994 35.2676 16.7836 35.2878C16.6697 35.3076 16.6308 35.3963 16.6536 35.5244L16.6663 35.5976L16.5182 35.6238L16.5069 35.5588C16.4686 35.3414 16.5454 35.1834 16.7628 35.1451C16.9821 35.1073 17.1085 35.2295 17.1468 35.4469Z" fill="#263238"/>
<path d="M17.4727 35.5012L17.5075 35.6982L17.355 35.7252L17.3203 35.5282L17.4727 35.5012ZM17.6089 36.2754L17.6437 36.4725L17.4912 36.4995L17.4565 36.3024L17.6089 36.2754Z" fill="#263238"/>
<path d="M17.816 35.5673C17.8471 35.4821 17.9112 35.429 18.0067 35.4123C18.1896 35.38 18.2944 35.5 18.3303 35.7033L18.3792 35.9818C18.4175 36.1992 18.3391 36.3595 18.1217 36.3978C17.9043 36.4361 17.7773 36.3116 17.739 36.0942L17.7224 35.9987L17.8706 35.9725L17.8893 36.078C17.9117 36.2063 17.9784 36.2741 18.0921 36.2539C18.2059 36.234 18.2452 36.1474 18.2228 36.019L18.1741 35.7426C18.1519 35.6146 18.0851 35.5465 17.9714 35.5667C17.8842 35.5819 17.8336 35.6411 17.8377 35.7476L17.8434 35.7801L17.6953 35.8063L17.5949 35.0088L18.1557 34.9103L18.1809 35.0526L17.7621 35.1264L17.816 35.5673Z" fill="#263238"/>
<path d="M19.0413 35.1139L19.046 35.1404L18.8978 35.1666L18.8915 35.1302C18.8691 35.0019 18.8028 34.9361 18.6871 34.9567C18.567 34.9777 18.5278 35.0643 18.5547 35.2168L18.6108 35.5359C18.6321 35.4315 18.7 35.3631 18.8137 35.3429C18.9967 35.3106 19.1011 35.4286 19.1373 35.6339L19.1753 35.8493C19.2136 36.0667 19.1305 36.228 18.9131 36.2663C18.6937 36.3049 18.5609 36.1814 18.5226 35.964L18.3948 35.2383C18.3551 35.0127 18.4322 34.8545 18.6579 34.8147C18.8771 34.7757 19.0034 34.8963 19.0413 35.1139ZM18.6454 35.7326L18.6831 35.9461C18.7055 36.0744 18.7721 36.1421 18.8877 36.1216C19.0015 36.1013 19.0428 36.0147 19.0204 35.8864L18.9828 35.6729C18.9603 35.5446 18.8918 35.4772 18.7781 35.4974C18.6619 35.5177 18.6226 35.6044 18.6454 35.7326Z" fill="#263238"/>
<path d="M34.5903 32.4371L34.1885 32.5078L34.3652 33.5123L34.767 33.4416L34.5903 32.4371Z" fill="#263238"/>
<path d="M35.0873 32.1402L34.6855 32.2109L34.8978 33.4166L35.2996 33.3459L35.0873 32.1402Z" fill="#263238"/>
<path d="M35.5981 31.898L35.1963 31.9688L35.4337 33.3173L35.8355 33.2466L35.5981 31.898Z" fill="#263238"/>
<path d="M36.0903 31.5621L35.6885 31.6328L35.9696 33.2295L36.3713 33.1588L36.0903 31.5621Z" fill="#263238"/>
<path d="M41.3349 32.2539L38.9247 32.6782L38.6655 31.2052L41.0757 30.7809L41.3349 32.2539ZM39.0351 32.5207L41.1776 32.1439L40.9655 30.9387L38.8229 31.3156L39.0351 32.5207Z" fill="#263238"/>
<path d="M40.3239 31.1901L39.0518 31.4141L39.2126 32.3278L40.4848 32.1039L40.3239 31.1901Z" fill="#263238"/>
<path d="M41.3968 31.306L41.0938 31.3594L41.1548 31.7062L41.4579 31.6529L41.3968 31.306Z" fill="#263238"/>
<path d="M37.9835 32.5119C37.9678 32.5145 37.9511 32.5133 37.9351 32.5073C37.3933 32.3021 37.1168 32.6298 37.105 32.6438C37.0732 32.683 37.0157 32.6886 36.9766 32.6571C36.9374 32.6253 36.9309 32.5685 36.9627 32.5293C36.9774 32.5108 37.3292 32.0828 38 32.3367C38.0473 32.3546 38.0711 32.4073 38.0531 32.4546C38.0416 32.4857 38.014 32.5065 37.9835 32.5119Z" fill="#263238"/>
<path d="M38.1124 32.1759C38.0967 32.1785 38.08 32.1773 38.0643 32.1712C37.2808 31.8741 36.876 32.3661 36.8716 32.3711C36.8403 32.4105 36.7827 32.4169 36.7431 32.3852C36.7037 32.3539 36.6972 32.2963 36.7289 32.2567C36.734 32.2502 37.2221 31.657 38.1291 32.0002C38.1764 32.0181 38.2002 32.0708 38.1822 32.1181C38.1699 32.1494 38.1429 32.1705 38.1124 32.1759Z" fill="#263238"/>
<path d="M38.2157 31.7986C38.2 31.8013 38.1833 31.8001 38.1673 31.7941C37.1752 31.4181 36.6663 32.0259 36.6451 32.0523C36.6132 32.0915 36.5558 32.0974 36.5168 32.066C36.4777 32.0345 36.4714 31.9772 36.5027 31.9378C36.5086 31.9302 37.1114 31.1983 38.2322 31.6234C38.2795 31.6414 38.3032 31.6941 38.2853 31.7413C38.2738 31.7724 38.2462 31.7933 38.2157 31.7986Z" fill="#263238"/>
<path d="M37.7394 32.7106C37.7614 32.8353 37.678 32.9542 37.5532 32.9761C37.4285 32.998 37.3096 32.9146 37.2877 32.7899C37.2658 32.6651 37.3492 32.5463 37.4739 32.5244C37.5983 32.5026 37.7172 32.586 37.7394 32.7106Z" fill="#263238"/>
<path d="M47.0431 74.5774L25.8228 78.3119C24.6903 78.5111 23.6111 77.7548 23.4121 76.6227L20.2776 58.8109C20.0784 57.6784 20.8347 56.5992 21.9667 56.3998L43.187 52.6653C44.3195 52.4661 45.3987 53.2224 45.5979 54.3549L48.7324 72.1667C48.9317 73.2986 48.1752 74.3784 47.0431 74.5774Z" fill="white" stroke="#263238" stroke-miterlimit="10"/>
<path d="M24.6813 52.5309L23.6875 50.6797L24.0422 50.6172L24.7844 52.0387L25.001 50.4485L25.3244 50.3917L25.0185 52.4717L25.2118 53.5701L24.8746 53.6293L24.6813 52.5309Z" fill="#263238"/>
<path d="M25.6083 51.1046C25.526 50.6361 25.7047 50.2934 26.1732 50.2111C26.6456 50.1281 26.9307 50.3891 27.0134 50.8574L27.2923 52.4418C27.3742 52.9059 27.196 53.253 26.7232 53.3361C26.2547 53.4184 25.9691 53.1531 25.8873 52.689L25.6083 51.1046ZM26.2272 52.6471C26.2764 52.9272 26.4234 53.0683 26.6686 53.0252C26.9181 52.9814 27.0033 52.7993 26.9538 52.5194L26.6688 50.9002C26.6204 50.6245 26.4773 50.4781 26.2278 50.522C25.9825 50.565 25.8935 50.7523 25.9422 51.0279L26.2272 52.6471Z" fill="#263238"/>
<path d="M27.9439 52.343C27.9923 52.6187 28.1311 52.7658 28.3806 52.722C28.6258 52.679 28.706 52.4934 28.6573 52.2178L28.2453 49.8763L28.5652 49.82L28.9742 52.1438C29.056 52.6079 28.8958 52.9561 28.4235 53.0395C27.955 53.1218 27.6858 52.8489 27.6045 52.3851L27.1955 50.0612L27.5321 50.0018L27.9439 52.343Z" fill="#263238"/>
<path d="M29.5851 49.6417C30.0665 49.557 30.3109 49.7667 30.391 50.2219L30.4348 50.4714C30.494 50.8085 30.4127 51.0396 30.1647 51.1687C30.4595 51.2024 30.6045 51.4119 30.6623 51.7399L30.7462 52.217C30.7701 52.3527 30.7966 52.4786 30.872 52.5739L30.5263 52.6346C30.4715 52.554 30.4399 52.4784 30.404 52.2726L30.3193 51.7913C30.2585 51.4456 30.0772 51.3646 29.7926 51.4147L29.5521 51.4572L29.7822 52.7656L29.4408 52.8255L28.9016 49.7618L29.5851 49.6417ZM29.7517 51.1015C30.023 51.0536 30.1697 50.9378 30.111 50.6051L30.0593 50.3119C30.011 50.0361 29.8848 49.9092 29.6307 49.954L29.2983 50.0125L29.4979 51.1461L29.7517 51.1015Z" fill="#263238"/>
<path d="M32.7894 49.84L32.8378 50.1158L32.514 50.1727L32.4623 49.8795C32.4136 49.6039 32.2751 49.4566 32.0256 49.5005C31.7804 49.5435 31.696 49.7299 31.7443 50.0056L32.0294 51.6248C32.0777 51.9006 32.2208 52.0469 32.4661 52.0039C32.7156 51.96 32.7957 51.7744 32.747 51.4988L32.6769 51.1008L33.0006 51.0438L33.0676 51.4247C33.1495 51.8888 32.9845 52.2334 32.5114 52.3166C32.0434 52.3992 31.7707 52.1314 31.6888 51.6673L31.4099 50.0829C31.3282 49.6192 31.493 49.2742 31.9613 49.1915C32.4352 49.108 32.708 49.3762 32.7894 49.84Z" fill="#263238"/>
<path d="M33.0748 49.7922C32.9926 49.324 33.1711 48.981 33.6396 48.8987C34.1124 48.8156 34.3975 49.0765 34.4801 49.5449L34.7591 51.1293C34.8409 51.5934 34.6628 51.9405 34.19 52.0236C33.7215 52.1059 33.4359 51.8405 33.3541 51.3765L33.0748 49.7922ZM33.6936 51.3347C33.7428 51.6148 33.8898 51.7559 34.1346 51.713C34.3842 51.6692 34.4697 51.4869 34.4202 51.207L34.1352 49.5878C34.0868 49.3121 33.9433 49.1659 33.6938 49.2097C33.4491 49.253 33.3599 49.4399 33.4086 49.7155L33.6936 51.3347Z" fill="#263238"/>
<path d="M35.3917 48.6202C35.8687 48.5364 36.1385 48.7865 36.2215 49.2593L36.4934 50.8042C36.576 51.2722 36.4078 51.5997 35.9308 51.6836L35.2132 51.8099L34.674 48.7462L35.3917 48.6202ZM35.8716 51.374C36.1169 51.3309 36.2076 51.1568 36.1585 50.8767L35.8812 49.3013C35.8321 49.0212 35.6871 48.8886 35.4375 48.9324L35.07 48.9972L35.4997 51.4392L35.8716 51.374Z" fill="#263238"/>
<path d="M37.7359 49.6063L37.79 49.9124L37.0416 50.0442L37.2333 51.134L38.1523 50.9725L38.2069 51.2834L36.9466 51.5052L36.4074 48.4415L37.6677 48.2197L37.7223 48.5306L36.8033 48.6921L36.9876 49.7381L37.7359 49.6063Z" fill="#263238"/>
<path d="M26.8787 64.9395C27.0052 64.5936 27.2653 64.3777 27.6532 64.3093C28.3966 64.1786 28.8225 64.6655 28.9677 65.491L29.1669 66.6223C29.3223 67.5056 29.003 68.1578 28.1193 68.3135C27.236 68.4689 26.7213 67.9635 26.5658 67.0802L26.4976 66.6918L27.1006 66.5856L27.176 67.015C27.2675 67.5355 27.5375 67.8114 27.9996 67.7298C28.4622 67.6485 28.6216 67.2969 28.53 66.7764L28.3323 65.6534C28.2407 65.1329 27.9708 64.857 27.5083 64.9387C27.1533 65.0013 26.9488 65.2416 26.9647 65.6727L26.9882 65.8048L26.3856 65.9109L25.9773 62.6711L28.2565 62.2699L28.3582 62.8478L26.6569 63.1473L26.8787 64.9395Z" fill="#263238"/>
<path d="M31.8537 63.0715L31.8728 63.179L31.2699 63.2852L31.2439 63.1365C31.1525 62.6165 30.884 62.3488 30.4132 62.4315C29.9259 62.5172 29.7665 62.8688 29.8753 63.4883L30.1033 64.7846C30.1905 64.3607 30.465 64.0825 30.9276 64.0012C31.6706 63.8706 32.0954 64.3489 32.2422 65.1829L32.3963 66.0584C32.5518 66.9417 32.2161 67.5969 31.3324 67.7525C30.4405 67.9096 29.9011 67.4085 29.7456 66.5252L29.227 63.5771C29.0655 62.6606 29.3785 62.0179 30.2951 61.8568C31.1864 61.6992 31.6981 62.1878 31.8537 63.0715ZM30.244 65.5851L30.3966 66.452C30.4882 66.9725 30.7585 67.2483 31.2289 67.1656C31.691 67.0841 31.8591 66.7312 31.7675 66.2107L31.6149 65.3438C31.5235 64.8238 31.2448 64.5491 30.7827 64.6306C30.3123 64.7132 30.1525 65.065 30.244 65.5851Z" fill="#263238"/>
<path d="M35.0656 62.5012L35.0847 62.6087L34.4818 62.7149L34.4558 62.5662C34.3644 62.0461 34.0959 61.7784 33.6251 61.8612C33.1378 61.9469 32.9785 62.2985 33.0872 62.918L33.3152 64.2143C33.4024 63.7903 33.6769 63.5122 34.1395 63.4309C34.8825 63.3003 35.3073 63.7786 35.4541 64.6126L35.6082 65.4881C35.7637 66.3714 35.428 67.0266 34.5443 67.1822C33.6524 67.3393 33.113 66.8382 32.9576 65.9548L32.4389 63.0068C32.2775 62.0903 32.5904 61.4476 33.5071 61.2865C34.3981 61.1294 34.9101 61.6179 35.0656 62.5012ZM33.456 65.0152L33.6086 65.8821C33.7002 66.4025 33.9705 66.6783 34.441 66.5957C34.9032 66.5145 35.0712 66.1613 34.9796 65.6408L34.827 64.7739C34.7355 64.2538 34.4573 63.979 33.9952 64.0605C33.524 64.1434 33.3646 64.4951 33.456 65.0152Z" fill="#263238"/>
<path d="M38.2789 61.9467L38.7976 64.8947C38.959 65.8112 38.6475 66.4622 37.7226 66.6247C36.8393 66.7802 36.3178 66.2844 36.1623 65.4011L36.1432 65.2936L36.7458 65.1875L36.7719 65.3365C36.8634 65.8566 37.1404 66.1227 37.6027 66.0416C38.0981 65.9545 38.2575 65.6028 38.15 64.992L37.922 63.6957C37.8351 64.1196 37.5592 64.3895 37.0965 64.4708C36.3535 64.6014 35.9303 64.1313 35.7835 63.2973L35.6278 62.4136C35.4723 61.5303 35.8013 60.8848 36.6929 60.7279C37.5855 60.5705 38.1238 61.0632 38.2789 61.9467ZM36.2585 62.2685L36.4111 63.1354C36.5026 63.6555 36.7808 63.9303 37.243 63.8487C37.7138 63.766 37.8732 63.4143 37.7816 62.8938L37.629 62.0269C37.5359 61.4983 37.2675 61.2306 36.7971 61.3136C36.3345 61.3949 36.1655 61.7398 36.2585 62.2685Z" fill="#263238"/>
<path d="M41.5443 61.3466L41.5762 61.5285C41.6794 62.1146 41.5488 62.5805 41.1248 62.834C41.6371 62.9395 41.8987 63.3617 42.0004 63.9396L42.0758 64.369C42.2328 65.2609 41.8676 65.8955 40.9679 66.0539C40.0678 66.2124 39.5078 65.7404 39.3507 64.8486L39.2753 64.4191C39.1721 63.833 39.2766 63.3632 39.7291 63.0793C39.2264 62.9802 38.9543 62.5942 38.851 62.0076L38.8191 61.8258C38.662 60.9339 39.0385 60.3146 39.9304 60.1575C40.8222 60.0013 41.3874 60.4551 41.5443 61.3466ZM39.4584 61.7308L39.5078 62.0116C39.6066 62.5731 39.9223 62.7728 40.3767 62.6929C40.8307 62.6132 41.0597 62.3173 40.9608 61.7558L40.9114 61.475C40.8066 60.8803 40.4863 60.6561 40.0322 60.7358C39.578 60.8161 39.3537 61.1364 39.4584 61.7308ZM39.8988 64.233L39.9844 64.7202C40.0891 65.3146 40.4024 65.5489 40.8651 65.4676C41.3272 65.3861 41.5339 65.0603 41.4375 64.4645L41.3518 63.9772C41.253 63.4157 40.9576 63.187 40.4786 63.2712C39.9995 63.3554 39.7999 63.6715 39.8988 64.233Z" fill="#263238"/>
<path d="M27.5518 83.0312L47.5161 79.5178" stroke="#263238" stroke-miterlimit="10"/>
<path d="M28.2373 86.9297L48.2018 83.4166" stroke="#263238" stroke-miterlimit="10"/>
<path d="M52.5452 57.8881L56.7853 55.4861" stroke="#263238" stroke-miterlimit="10"/>
<path d="M53.8242 63.3438L56.5122 63.116" stroke="#263238" stroke-miterlimit="10"/>
<path d="M54.1475 68.375L59.8343 69.7835" stroke="#263238" stroke-miterlimit="10"/>
</svg>
