<svg width="19" height="21" viewBox="0 0 19 21" fill="none" xmlns="http://www.w3.org/2000/svg">
<path d="M12.2 2.03333H6.10004C5.8304 2.03333 5.57181 1.92622 5.38115 1.73556C5.19049 1.5449 5.08337 1.2863 5.08337 1.01667C5.08337 0.74703 5.19049 0.488437 5.38115 0.297775C5.57181 0.107113 5.8304 0 6.10004 0H12.2C12.4697 0 12.7283 0.107113 12.9189 0.297775C13.1096 0.488437 13.2167 0.74703 13.2167 1.01667C13.2167 1.2863 13.1096 1.5449 12.9189 1.73556C12.7283 1.92622 12.4697 2.03333 12.2 2.03333Z" fill="#E63946"/>
<path d="M12.2002 20.337H6.10024C5.02169 20.337 3.98732 19.9085 3.22467 19.1459C2.46202 18.3832 2.03357 17.3489 2.03357 16.2703V4.07031H16.2669V16.2703C16.2669 17.3489 15.8385 18.3832 15.0758 19.1459C14.3132 19.9085 13.2788 20.337 12.2002 20.337Z" fill="#E63946"/>
<path d="M17.2833 6.10365H1.01667C0.74703 6.10365 0.488437 5.99653 0.297775 5.80587C0.107113 5.61521 0 5.35662 0 5.08698C0 4.81734 0.107113 4.55875 0.297775 4.36809C0.488437 4.17743 0.74703 4.07031 1.01667 4.07031H17.2833C17.553 4.07031 17.8116 4.17743 18.0022 4.36809C18.1929 4.55875 18.3 4.81734 18.3 5.08698C18.3 5.35662 18.1929 5.61521 18.0022 5.80587C17.8116 5.99653 17.553 6.10365 17.2833 6.10365Z" fill="#C9273A"/>
<path d="M7.11652 16.2818C6.84688 16.2818 6.58829 16.1747 6.39763 15.984C6.20697 15.7933 6.09985 15.5347 6.09985 15.2651V9.1651C6.09985 8.89547 6.20697 8.63687 6.39763 8.44621C6.58829 8.25555 6.84688 8.14844 7.11652 8.14844C7.38616 8.14844 7.64475 8.25555 7.83541 8.44621C8.02607 8.63687 8.13319 8.89547 8.13319 9.1651V15.2651C8.13319 15.5347 8.02607 15.7933 7.83541 15.984C7.64475 16.1747 7.38616 16.2818 7.11652 16.2818Z" fill="#EDEBEA"/>
<path d="M11.183 16.2818C10.9134 16.2818 10.6548 16.1747 10.4642 15.984C10.2735 15.7933 10.1664 15.5347 10.1664 15.2651V9.1651C10.1664 8.89547 10.2735 8.63687 10.4642 8.44621C10.6548 8.25555 10.9134 8.14844 11.183 8.14844C11.4527 8.14844 11.7113 8.25555 11.9019 8.44621C12.0926 8.63687 12.1997 8.89547 12.1997 9.1651V15.2651C12.1997 15.5347 12.0926 15.7933 11.9019 15.984C11.7113 16.1747 11.4527 16.2818 11.183 16.2818Z" fill="#EDEBEA"/>
</svg>
