<svg width="26" height="27" viewBox="0 0 26 27" fill="none" xmlns="http://www.w3.org/2000/svg">
<path d="M5.03631 13.5089C5.08102 13.482 5.13422 13.4729 5.18535 13.4834C5.23647 13.4939 5.28178 13.5232 5.31226 13.5656C5.72524 14.1074 6.14827 14.6555 6.58135 15.2099M5.03631 13.5089L5.29424 13.9373L5.29212 13.9385M5.03631 13.5089C4.71514 13.7002 4.39969 13.8888 4.08996 14.0749L5.03631 13.5089ZM6.58135 15.2099L6.17784 15.5051C6.17978 15.5078 6.18174 15.5104 6.18371 15.5131M6.58135 15.2099L6.18733 15.5177C6.18613 15.5162 6.18492 15.5146 6.18371 15.5131M6.58135 15.2099C6.61627 15.2576 6.66558 15.2929 6.72203 15.3105M6.18371 15.5131C5.80461 15.0278 5.43314 14.5472 5.06931 14.0714M6.18371 15.5131C6.28141 15.6431 6.41754 15.7392 6.57295 15.7878L6.72203 15.3105M5.06931 14.0714C5.14327 14.0272 5.21754 13.983 5.29212 13.9385M5.06931 14.0714C4.8253 14.2169 4.58467 14.361 4.34741 14.5035L4.34683 14.5039C3.77457 14.8465 3.2044 14.3499 3.20175 13.8291L5.29212 13.9385M5.06931 14.0714C5.01759 14.0037 4.96601 13.9361 4.9146 13.8687L4.9063 13.8578L4.90645 13.8577C4.90912 13.8614 4.91187 13.865 4.9147 13.8686C4.95727 13.9222 5.01744 13.9594 5.0848 13.9732L5.1418 13.6955L5.08481 13.9732C5.15584 13.9878 5.22974 13.9754 5.29212 13.9385M6.72203 15.3105C6.77849 15.3282 6.83911 15.3272 6.89499 15.3079L6.57296 15.7878L6.72203 15.3105ZM12.604 21.0439C12.6042 19.5217 13.0481 18.0326 13.8813 16.7586C14.7147 15.4846 15.9012 14.481 17.2959 13.8708C18.6906 13.2605 20.233 13.07 21.7343 13.3225C22.8843 13.516 23.9721 13.963 24.9208 14.6259C24.9376 12.4704 24.9131 10.3149 24.8476 8.15939L24.8475 8.15626C24.81 6.60388 23.93 5.04775 22.4735 4.28396L22.4721 4.28321C21.7005 3.87535 20.9022 3.48139 20.0935 3.10601C16.6834 4.21481 12.7153 5.6664 8.7161 7.45471L8.71414 7.45559C8.40588 7.59184 8.1418 7.81148 7.95166 8.08975C7.76205 8.36725 7.65348 8.69205 7.63809 9.02776C7.57454 10.9926 7.55488 13.0207 7.58067 15.0262C7.58498 15.1898 7.5375 15.3506 7.44492 15.4856L14.2315 25.8559C14.2379 25.8537 14.2443 25.8515 14.2507 25.8493C13.184 24.4827 12.5997 22.7919 12.604 21.0439ZM12.604 21.0439C12.604 21.0437 12.604 21.0434 12.604 21.0432L13.104 21.0444L12.604 21.0444C12.604 21.0442 12.604 21.0441 12.604 21.0439ZM4.95198 5.43217L4.95209 5.43212C8.42371 3.71745 12.0948 2.28062 15.3678 1.15898C14.9856 1.01959 14.6055 0.884547 14.229 0.752651C13.2464 0.415642 12.1796 0.415783 11.1971 0.753075C8.52302 1.67578 5.60691 2.87894 2.95506 4.28304L2.95337 4.28394L2.95337 4.28393C1.49761 5.0476 0.618274 6.60374 0.579356 8.15671L0.579283 8.15959H0.579275C0.473575 11.5897 0.473575 15.0197 0.579275 18.4498L0.579378 18.4531C0.616862 20.0054 1.49732 21.5617 2.95337 22.3255L2.95506 22.3264C5.60707 23.7305 8.52334 24.9337 11.199 25.8559C12.1817 26.1932 13.2488 26.1932 14.2314 25.8559L4.95198 5.43217ZM4.95198 5.43217C4.03146 5.88711 3.405 6.81995 3.34958 7.82771L4.95198 5.43217ZM3.34957 7.8278C3.24144 9.78886 3.19131 11.8116 3.20175 13.8289L3.34957 7.8278Z" stroke="#2FD053"/>
<path d="M23.971 20.4643L24.0226 20.41L24.0309 20.3936C24.2548 20.1143 24.3705 19.7625 24.3551 19.4033C24.3385 19.0199 24.1739 18.6579 23.8958 18.3935C23.6177 18.1291 23.2478 17.983 22.8641 17.9859C22.4803 17.9888 22.1127 18.1405 21.8386 18.4091L21.8324 18.4151L21.8265 18.4214L19.5444 20.818L18.842 20.095C18.8419 20.095 18.8419 20.0949 18.8418 20.0948C18.5682 19.813 18.1939 19.6514 17.8012 19.6455C17.4084 19.6396 17.0293 19.79 16.7474 20.0636L17.0683 20.3943L16.7474 20.0636C16.4655 20.3372 16.3038 20.7116 16.2979 21.1044C16.292 21.4973 16.4424 21.8763 16.716 22.1582L16.7161 22.1583L18.4908 23.9865L18.491 23.9868C18.6291 24.1289 18.7943 24.2418 18.9768 24.319C19.1592 24.3961 19.3553 24.436 19.5535 24.4361H19.5537L19.5584 24.4361L19.5604 24.4361C19.76 24.4353 19.9573 24.3941 20.1405 24.315C20.3237 24.236 20.4891 24.1206 20.6266 23.976L23.971 20.4643ZM17.6217 16.8303C18.4544 16.2738 19.4336 15.9767 20.4352 15.9766C21.1002 15.9765 21.7588 16.1074 22.3732 16.3619C22.9877 16.6163 23.546 16.9893 24.0163 17.4595C24.4866 17.9298 24.8597 18.488 25.1143 19.1024C25.3689 19.7168 25.4999 20.3753 25.5 21.0404C25.5001 22.042 25.2031 23.0212 24.6467 23.8541C24.0903 24.6869 23.2995 25.3361 22.3741 25.7195C21.4488 26.1029 20.4305 26.2033 19.4481 26.008C18.4657 25.8127 17.5633 25.3304 16.855 24.6222C16.1467 23.914 15.6642 23.0117 15.4687 22.0293C15.2732 21.047 15.3734 20.0287 15.7567 19.1033C16.1399 18.1779 16.7889 17.3869 17.6217 16.8303Z" stroke="#2FD053"/>
</svg>
