<svg width="17" height="19" viewBox="0 0 17 19" fill="none" xmlns="http://www.w3.org/2000/svg">
<path d="M2.09 5.4223C1.90823 5.21233 1.6759 5.33701 1.57101 5.70035C1.46603 6.06389 1.52837 6.52855 1.71004 6.73832C1.89171 6.94829 2.12414 6.82362 2.22902 6.46028C2.33401 6.09674 2.27167 5.63207 2.09 5.4223Z" fill="#009045"/>
<path d="M16.2135 4.30573H15.7068V3.6724C15.7068 3.32241 15.4803 3.03906 15.2002 3.03906C14.9202 3.03906 14.6935 3.32241 14.6935 3.6724V4.30573H14.1868C13.9069 4.30573 13.6802 4.58908 13.6802 4.93906C13.6802 5.28921 13.9069 5.5724 14.1868 5.5724H14.6935V6.20573C14.6935 6.55571 14.9202 6.83906 15.2002 6.83906C15.4803 6.83906 15.7068 6.55571 15.7068 6.20573V5.5724H16.2135C16.4935 5.5724 16.7202 5.28921 16.7202 4.93906C16.7202 4.58908 16.4935 4.30573 16.2135 4.30573Z" fill="#009045"/>
<path d="M1.01333 2.53333C1.01333 2.81345 1.23988 3.04 1.52 3.04C1.79999 3.04 2.02667 2.81345 2.02667 2.53333V2.02667H2.53333C2.81332 2.02667 3.04 1.80012 3.04 1.52C3.04 1.24001 2.81332 1.01333 2.53333 1.01333H2.02667V0.506667C2.02667 0.226681 1.79999 0 1.52 0C1.23988 0 1.01333 0.226681 1.01333 0.506667V1.01333H0.506667C0.226681 1.01333 0 1.24001 0 1.52C0 1.80012 0.226681 2.02667 0.506667 2.02667H1.01333V2.53333Z" fill="#009045"/>
<path d="M4.7319 1.06558C5.2486 2.15092 5.53558 3.34908 5.60782 4.56H11.1124C11.1845 3.34923 11.4715 2.15092 11.9882 1.06558L12.1027 0.825116C12.2072 0.605879 12.1663 0.340925 12.0009 0.167258C11.8361 -0.0064091 11.5838 -0.0493064 11.3744 0.060386L9.55286 1.01659L8.7438 0.167258C8.53175 -0.0553921 8.18822 -0.0553921 7.97617 0.167258L7.16726 1.01659L5.34572 0.0602376C5.13579 -0.0493064 4.88514 -0.00700283 4.71917 0.167258C4.55377 0.340777 4.51292 0.605731 4.61739 0.825116L4.7319 1.06558Z" fill="#009045"/>
<path d="M11.5814 5.32031H5.13846L3.08411 8.00643C2.0755 9.32595 1.52002 11.034 1.52002 12.7478C1.52002 16.5462 4.2048 19.0003 8.35995 19.0003C12.5152 19.0003 15.2 16.5462 15.2 12.7478C15.2 11.034 14.6445 9.36384 13.6354 8.04432L11.5814 5.32031ZM8.35433 11.209C9.22482 11.209 9.93281 11.9739 9.93281 12.9143C9.93281 13.6521 9.49434 14.2757 8.88611 14.5128V15.0215C8.88611 15.3356 8.65085 15.5899 8.35995 15.5899C8.06919 15.5899 7.83393 15.3356 7.83393 15.0215V14.5167C7.2198 14.283 6.77586 13.6565 6.77586 12.9143C6.77586 12.6 7.01126 12.3459 7.30201 12.3459C7.59291 12.3459 7.82817 12.6 7.82817 12.9143C7.82817 13.228 8.06412 13.4827 8.35433 13.4827C8.64468 13.4827 8.88049 13.228 8.88049 12.9143C8.88049 12.6006 8.64468 12.3459 8.35433 12.3459C7.48398 12.3459 6.77586 11.5809 6.77586 10.6406C6.77586 9.89822 7.2198 9.27192 7.83393 9.03818V8.20034C7.83393 7.88623 8.06919 7.63192 8.35995 7.63192C8.65085 7.63192 8.88611 7.88623 8.88611 8.20034V9.04203C9.49434 9.27917 9.93281 9.90281 9.93281 10.6406C9.93281 10.9548 9.69755 11.209 9.40665 11.209C9.11589 11.209 8.88049 10.9548 8.88049 10.6406C8.88049 10.3271 8.64468 10.0722 8.35433 10.0722C8.06412 10.0722 7.82817 10.3271 7.82817 10.6406C7.82817 10.9543 8.06399 11.209 8.35433 11.209Z" fill="#009045"/>
</svg>
