<svg width="30" height="30" viewBox="0 0 30 30" fill="none" xmlns="http://www.w3.org/2000/svg">
<path d="M29.5 15C29.5 23.0081 23.0081 29.5 15 29.5C6.99187 29.5 0.5 23.0081 0.5 15C0.5 6.99187 6.99187 0.5 15 0.5C23.0081 0.5 29.5 6.99187 29.5 15Z" fill="#0043B4" stroke="white"/>
<path d="M20.2239 13.9111L20.2157 13.9029L16.0813 9.76562C16.0813 9.76562 11.0422 14.8047 8.61409 17.2832C8.31175 17.5914 8.08265 18.0203 7.94671 18.4352C7.54827 19.6533 7.21839 20.8961 6.85159 22.1266C6.75315 22.4564 6.77308 22.7471 7.03147 22.9932C7.27522 23.2275 7.54944 23.2357 7.86585 23.1408C9.03772 22.7893 10.2172 22.4547 11.3944 22.1178C11.9997 21.9423 12.5484 21.6112 12.9858 21.1574C15.2991 18.8301 20.2239 13.9111 20.2239 13.9111Z" fill="white"/>
<path d="M22.6375 8.77652L21.2236 7.36265C20.8611 7.00038 20.3695 6.79688 19.8569 6.79688C19.3444 6.79688 18.8528 7.00038 18.4902 7.36265L16.8877 8.96343L21.0355 13.1125L22.6381 11.5099C23.0003 11.1473 23.2037 10.6556 23.2036 10.1431C23.2035 9.63055 22.9999 9.13902 22.6375 8.77652Z" fill="white"/>
</svg>
