<svg width="29" height="19" viewBox="0 0 29 19" fill="none" xmlns="http://www.w3.org/2000/svg">
<path d="M25.8298 3.84731H17.7662L15.1378 1.22008C13.6373 -0.281592 11.2584 -0.411018 9.60239 0.909235L3.62945 5.68803C3.43365 5.84622 3.3186 6.08405 3.3186 6.33627V16.2921C3.3186 16.6284 3.52104 16.9315 3.83243 17.0592L4.1206 17.1776C6.76221 18.2412 9.56367 18.781 12.4448 18.781H15.7634C17.1356 18.781 18.2523 17.6643 18.2523 16.2921C18.2523 15.9691 18.1909 15.6593 18.0776 15.375C19.134 15.0874 19.9116 14.119 19.9116 12.9735C19.9116 12.6505 19.8503 12.3407 19.7369 12.0564C20.2064 11.9287 20.6207 11.6665 20.9354 11.3142C21.3309 10.8734 21.5709 10.2915 21.5709 9.65487C21.5709 9.36394 21.5206 9.08463 21.4283 8.82522H25.8298C27.2021 8.82522 28.3188 7.70851 28.3188 6.33627C28.3188 4.96402 27.2021 3.84731 25.8298 3.84731Z" fill="#FEC478"/>
<path d="M19.7369 12.0548C19.8503 12.3391 19.9116 12.6488 19.9116 12.9718C19.9116 14.1173 19.134 15.0858 18.0776 15.3734C18.1909 15.6577 18.2523 15.9674 18.2523 16.2904C18.2523 17.6627 17.1356 18.7794 15.7634 18.7794H12.4448C9.56367 18.7794 6.76221 18.2395 4.1206 17.1759L3.83243 17.0576C3.52104 16.9298 3.3186 16.6267 3.3186 16.2904V11.3125H20.9354C20.6207 11.6649 20.2064 11.927 19.7369 12.0548Z" fill="#FEB756"/>
<path d="M2.48896 18.7853H0.829652C0.371076 18.7853 0 18.4142 0 17.9556V4.68121C0 4.22264 0.371076 3.85156 0.829652 3.85156H2.48896C3.86142 3.85156 4.97791 4.96805 4.97791 6.34052V16.2963C4.97791 17.6689 3.86142 18.7853 2.48896 18.7853Z" fill="#FD003A"/>
<path d="M0 11.3125V17.9497C0 18.4083 0.371076 18.7794 0.829652 18.7794H2.48896C3.86142 18.7794 4.97791 17.6629 4.97791 16.2904V11.3125H0Z" fill="#E50027"/>
</svg>
