<svg width="25" height="25" viewBox="0 0 25 25" fill="none" xmlns="http://www.w3.org/2000/svg">
<path fill-rule="evenodd" clip-rule="evenodd" d="M10.0295 0.769472C11.5189 -0.256491 13.4811 -0.256491 14.9705 0.769472L23.0955 6.36647C24.2874 7.1875 25 8.54778 25 10.0018V20.5953C25 23.0279 23.0413 25 20.625 25H4.375C1.95875 25 0 23.0279 0 20.5953V10.0018C0 8.54778 0.71265 7.1875 1.90451 6.36647L10.0295 0.769472ZM9.375 19.3368C9.02983 19.3368 8.75 19.6185 8.75 19.966C8.75 20.3135 9.02983 20.5953 9.375 20.5953H15.625C15.9701 20.5953 16.25 20.3135 16.25 19.966C16.25 19.6185 15.9701 19.3368 15.625 19.3368H9.375Z" fill="#0043B4"/>
</svg>
