<svg width="351" height="256" viewBox="0 0 351 256" fill="none" xmlns="http://www.w3.org/2000/svg">
<path d="M285.861 250.063H48.9246C34.9032 250.063 24.762 234.236 28.5709 218.29L72.0397 35.1569C74.6107 24.3591 82.9188 16.8984 92.4172 16.8984H329.33C343.351 16.8984 353.492 32.7256 349.707 48.6958L306.238 231.805C303.667 242.603 295.335 250.063 285.861 250.063Z" fill="#060478" fill-opacity="0.2"/>
<mask id="mask0_3338_20993" style="mask-type:luminance" maskUnits="userSpaceOnUse" x="27" y="16" width="324" height="235">
<path d="M285.861 250.063H48.9246C34.9032 250.063 24.762 234.236 28.5709 218.29L72.0397 35.1569C74.6107 24.3591 82.9188 16.8984 92.4172 16.8984H329.33C343.351 16.8984 353.492 32.7256 349.707 48.6958L306.238 231.805C303.667 242.603 295.335 250.063 285.861 250.063Z" fill="white"/>
</mask>
<g mask="url(#mask0_3338_20993)">
<path opacity="0.41" d="M356.896 83.6892L367.466 46.0043H301.549L307.405 13.6587L268.602 6.50781L261.46 45.9089H161.477L166.667 16.9719L127.864 9.82103L121.436 46.0043H58.3991L47.8295 83.6892H114.485L107.343 122.709H28.0233L17.4536 160.394H177.236L172.808 184.874H19.4295L8.85986 222.558H200.208L205.47 223.512L205.66 222.558H317.927L328.544 184.874H212.492L216.92 160.394H326.425L336.995 122.709H287.622L294.764 83.6892H356.896ZM247.605 122.709H147.622L154.764 83.6892H254.747L247.605 122.709Z" fill="#060478" fill-opacity="0.2"/>
</g>
<path d="M85.252 200.219C85.252 200.219 86.8707 200.552 89.7512 201.029" stroke="black" stroke-width="2.69" stroke-linecap="round" stroke-linejoin="round"/>
<path d="M98.9165 202.606C131.006 207.183 208.422 213.857 207.66 171.619C206.779 117.845 116.961 157.961 117.842 108.573C118.58 66.2397 241.63 69.9343 276.791 71.8412" stroke="black" stroke-width="2.69" stroke-linecap="round" stroke-linejoin="round" stroke-dasharray="3.9 3.9"/>
<path d="M281.457 72.1484C284.385 72.3153 286.028 72.4583 286.028 72.4583" stroke="black" stroke-width="2.69" stroke-linecap="round" stroke-linejoin="round"/>
<path d="M19.2153 252.109H165.81" stroke="black" stroke-width="2.09" stroke-linecap="round" stroke-linejoin="round"/>
<path d="M194.519 252.109H331.567" stroke="black" stroke-width="2.09" stroke-linecap="round" stroke-linejoin="round"/>
<path d="M179.736 255.998C181.84 255.998 183.545 254.354 183.545 252.327C183.545 250.3 181.84 248.656 179.736 248.656C177.633 248.656 175.927 250.3 175.927 252.327C175.927 254.354 177.633 255.998 179.736 255.998Z" fill="black"/>
<path d="M43.2112 246.371V177.938C43.264 177.08 43.1409 176.221 42.8495 175.413C42.5582 174.605 42.1047 173.866 41.517 173.24C40.9294 172.614 40.22 172.115 39.4326 171.775C38.6451 171.434 37.7963 171.258 36.9385 171.258C36.0806 171.258 35.2318 171.434 34.4444 171.775C33.6569 172.115 32.9475 172.614 32.3599 173.24C31.7722 173.866 31.3188 174.605 31.0274 175.413C30.736 176.221 30.6129 177.08 30.6657 177.938V246.371" fill="#FBFBFB"/>
<path d="M43.2112 246.371V177.938C43.264 177.08 43.1409 176.221 42.8495 175.413C42.5582 174.605 42.1047 173.866 41.517 173.24C40.9294 172.614 40.22 172.115 39.4326 171.775C38.6451 171.434 37.7963 171.258 36.9385 171.258C36.0806 171.258 35.2318 171.434 34.4444 171.775C33.6569 172.115 32.9475 172.614 32.3599 173.24C31.7722 173.866 31.3188 174.605 31.0274 175.413C30.736 176.221 30.6129 177.08 30.6657 177.938V246.371" stroke="black" stroke-width="1.11" stroke-linecap="round" stroke-linejoin="round"/>
<path d="M46.6061 179.77C60.6302 173.905 67.2504 157.767 61.3926 143.724C55.5348 129.682 39.4172 123.054 25.393 128.919C11.3688 134.784 4.7487 150.923 10.6065 164.965C16.4643 179.007 32.5819 185.636 46.6061 179.77Z" fill="#FBFBFB"/>
<mask id="mask1_3338_20993" style="mask-type:luminance" maskUnits="userSpaceOnUse" x="8" y="126" width="56" height="56">
<path d="M46.6061 179.77C60.6302 173.905 67.2504 157.767 61.3926 143.724C55.5348 129.682 39.4172 123.054 25.393 128.919C11.3688 134.784 4.7487 150.923 10.6065 164.965C16.4643 179.007 32.5819 185.636 46.6061 179.77Z" fill="white"/>
</mask>
<g mask="url(#mask1_3338_20993)">
<path d="M38.6165 146.305H33.3793C32.2486 146.305 31.332 147.222 31.332 148.355V153.599C31.332 154.731 32.2486 155.648 33.3793 155.648H38.6165C39.7472 155.648 40.6638 154.731 40.6638 153.599V148.355C40.6638 147.222 39.7472 146.305 38.6165 146.305Z" fill="black"/>
<path d="M26.4046 146.305H21.1674C20.0367 146.305 19.1201 147.222 19.1201 148.355V153.599C19.1201 154.731 20.0367 155.648 21.1674 155.648H26.4046C27.5353 155.648 28.4519 154.731 28.4519 153.599V148.355C28.4519 147.222 27.5353 146.305 26.4046 146.305Z" fill="black"/>
<path d="M50.8528 146.305H45.6156C44.485 146.305 43.5684 147.222 43.5684 148.355V153.599C43.5684 154.731 44.485 155.648 45.6156 155.648H50.8528C51.9835 155.648 52.9001 154.731 52.9001 153.599V148.355C52.9001 147.222 51.9835 146.305 50.8528 146.305Z" fill="black"/>
<path d="M32.9036 158.312H27.6664C26.5357 158.312 25.6191 159.23 25.6191 160.362V165.606C25.6191 166.739 26.5357 167.656 27.6664 167.656H32.9036C34.0343 167.656 34.9509 166.739 34.9509 165.606V160.362C34.9509 159.23 34.0343 158.312 32.9036 158.312Z" fill="black"/>
<path d="M45.116 158.312H39.8788C38.7481 158.312 37.8315 159.23 37.8315 160.362V165.606C37.8315 166.739 38.7481 167.656 39.8788 167.656H45.116C46.2467 167.656 47.1633 166.739 47.1633 165.606V160.362C47.1633 159.23 46.2467 158.312 45.116 158.312Z" fill="black"/>
</g>
<path d="M46.6061 179.77C60.6302 173.905 67.2504 157.767 61.3926 143.724C55.5348 129.682 39.4172 123.054 25.393 128.919C11.3688 134.784 4.7487 150.923 10.6065 164.965C16.4643 179.007 32.5819 185.636 46.6061 179.77Z" stroke="black" stroke-width="1.11" stroke-linecap="round" stroke-linejoin="round"/>
<path d="M37.9263 195.453V250.658" stroke="black" stroke-width="1.11" stroke-linecap="round" stroke-linejoin="round"/>
<path d="M22.0723 250.999C22.0973 248.908 22.9427 246.911 24.426 245.439C25.9093 243.967 27.9113 243.139 29.9995 243.133H43.3782C45.4787 243.139 47.4914 243.977 48.9767 245.465C50.4619 246.952 51.2991 248.967 51.3054 251.07H22.0723V250.999Z" fill="#060478" fill-opacity="0.2" stroke="black" stroke-width="1.1" stroke-miterlimit="10"/>
<path d="M303.62 86.5707C297.306 86.5707 291.251 84.0594 286.787 79.5893C282.323 75.1191 279.814 69.0563 279.814 62.7346C279.814 56.4128 282.323 50.35 286.787 45.8799C291.251 41.4097 297.306 38.8984 303.62 38.8984C309.934 38.8984 315.989 41.4097 320.453 45.8799C324.917 50.35 327.425 56.4128 327.425 62.7346C327.425 69.0563 324.917 75.1191 320.453 79.5893C315.989 84.0594 309.934 86.5707 303.62 86.5707Z" fill="#0043B4" stroke="black" stroke-width="0.94" stroke-miterlimit="10"/>
<path d="M304.334 77.8946L312.547 61.4477C313.242 59.8968 313.522 58.1915 313.359 56.4995C313.197 54.8074 312.597 53.1868 311.62 51.797C310.642 50.4071 309.321 49.2958 307.784 48.5723C306.248 47.8488 304.55 47.538 302.858 47.6704" fill="#FBFBFB"/>
<path d="M304.334 77.8946L312.547 61.4477C313.242 59.8968 313.522 58.1915 313.359 56.4995C313.197 54.8074 312.597 53.1868 311.62 51.797C310.642 50.4071 309.321 49.2958 307.784 48.5723C306.248 47.8488 304.55 47.538 302.858 47.6704" stroke="black" stroke-width="0.7" stroke-linecap="round" stroke-linejoin="round"/>
<path d="M304.334 77.9039L294.812 61.2186C294.121 59.8827 293.763 58.3991 293.769 56.8945C293.775 55.39 294.144 53.9092 294.846 52.5788C295.548 51.2485 296.561 50.108 297.799 49.2548C299.036 48.4017 300.462 47.8612 301.953 47.6797H302.858" fill="#FBFBFB"/>
<path d="M304.334 77.9039L294.812 61.2186C294.121 59.8827 293.763 58.3991 293.769 56.8945C293.775 55.39 294.144 53.9092 294.846 52.5788C295.548 51.2485 296.561 50.108 297.799 49.2548C299.036 48.4017 300.462 47.8612 301.953 47.6797H302.858" stroke="black" stroke-width="0.7" stroke-linecap="round" stroke-linejoin="round"/>
<path d="M308.547 57.067C308.581 58.0493 308.32 59.0192 307.799 59.8522C307.278 60.6853 306.521 61.3436 305.624 61.7427C304.727 62.1419 303.731 62.2637 302.765 62.0926C301.798 61.9215 300.904 61.4652 300.199 60.7823C299.493 60.0993 299.006 59.2209 298.802 58.2595C298.598 57.2981 298.686 56.2976 299.053 55.3863C299.421 54.4749 300.052 53.6942 300.866 53.1443C301.679 52.5944 302.638 52.3004 303.62 52.2998C304.259 52.2774 304.896 52.3841 305.493 52.6136C306.09 52.8432 306.635 53.1908 307.095 53.6357C307.555 54.0806 307.92 54.6138 308.17 55.2033C308.419 55.7928 308.548 56.4267 308.547 57.067Z" fill="#060478" fill-opacity="0.2" stroke="black" stroke-width="0.83" stroke-miterlimit="10"/>
<path d="M89.6082 222.985C83.2946 222.985 77.2396 220.473 72.7752 216.003C68.3108 211.533 65.8027 205.47 65.8027 199.149C65.8027 192.827 68.3108 186.764 72.7752 182.294C77.2396 177.824 83.2946 175.313 89.6082 175.312C95.9219 175.313 101.977 177.824 106.441 182.294C110.906 186.764 113.414 192.827 113.414 199.149C113.414 205.47 110.906 211.533 106.441 216.003C101.977 220.473 95.9219 222.985 89.6082 222.985Z" fill="#0043B4" stroke="black" stroke-width="0.94" stroke-miterlimit="10"/>
<path d="M73.373 198.982L101.535 188.398L87.4421 214.404L85.252 203.153L73.373 198.982Z" fill="#FBFBFB" stroke="black" stroke-width="1.11" stroke-linecap="round" stroke-linejoin="round"/>
<path d="M108.224 3.48438H168.024" stroke="black" stroke-width="2.09" stroke-linecap="round" stroke-linejoin="round"/>
<path d="M93.4412 7.34153C95.5448 7.34153 97.2501 5.69807 97.2501 3.67076C97.2501 1.64346 95.5448 0 93.4412 0C91.3376 0 89.6323 1.64346 89.6323 3.67076C89.6323 5.69807 91.3376 7.34153 93.4412 7.34153Z" fill="black"/>
<path d="M25.6191 96.2266L39.4977 108.836" stroke="#31302E" stroke-width="1.7" stroke-linecap="round" stroke-linejoin="round"/>
<path d="M38.8548 95.5781L26.2617 109.475" stroke="#31302E" stroke-width="1.7" stroke-linecap="round" stroke-linejoin="round"/>
<path d="M317.689 222.992L331.568 235.601" stroke="#31302E" stroke-width="1.7" stroke-linecap="round" stroke-linejoin="round"/>
<path d="M330.925 222.344L318.332 236.24" stroke="#31302E" stroke-width="1.7" stroke-linecap="round" stroke-linejoin="round"/>
</svg>
