<svg width="335" height="336" viewBox="0 0 335 336" fill="none" xmlns="http://www.w3.org/2000/svg">
<g clip-path="url(#clip0_3338_20933)">
<path opacity="0.25" d="M171.017 0.0722716C152.689 -0.27968 134.475 3.02954 117.443 9.80598C111.31 8.56467 105.067 7.94061 98.809 7.9431C44.1636 7.9431 -0.139648 55.1912 -0.139648 113.477C-0.139564 120.573 0.531115 127.652 1.86352 134.621C6.42274 157.95 7.66946 181.805 5.56702 205.482C3.00479 233.169 0.186488 263.512 0.186488 265.864C0.186488 361.012 81.7118 326.641 170.877 326.641C260.043 326.641 334.884 355.4 334.884 260.252C334.884 165.103 310.799 5.47472 171.017 0.0722716Z" fill="#CCE3FA"/>
<path d="M210.499 92.1641H129.649C114.212 92.1641 101.697 104.675 101.697 120.108V305.747C101.697 321.18 114.212 333.691 129.649 333.691H210.499C225.936 333.691 238.451 321.18 238.451 305.747V120.108C238.451 104.675 225.936 92.1641 210.499 92.1641Z" fill="#FBFBFB" stroke="black" stroke-width="2" stroke-linecap="round" stroke-linejoin="round"/>
<path d="M181.662 309.83C181.667 311.926 181.049 313.977 179.887 315.723C178.725 317.468 177.072 318.83 175.135 319.635C173.199 320.441 171.068 320.654 169.01 320.248C166.953 319.842 165.062 318.834 163.578 317.353C162.093 315.873 161.081 313.985 160.671 311.929C160.26 309.873 160.469 307.741 161.27 305.804C162.071 303.867 163.43 302.21 165.173 301.045C166.917 299.88 168.967 299.258 171.064 299.258C173.871 299.258 176.563 300.371 178.55 302.353C180.536 304.335 181.656 307.024 181.662 309.83Z" fill="#FBFBFB" stroke="black" stroke-width="1.57" stroke-linecap="round" stroke-linejoin="round"/>
<path d="M223.03 110.492H120.891V291.87H223.03V110.492Z" fill="#0043B4" stroke="black" stroke-width="0.94" stroke-miterlimit="10"/>
<mask id="mask0_3338_20933" style="mask-type:luminance" maskUnits="userSpaceOnUse" x="120" y="110" width="104" height="182">
<path d="M223.03 110.492H120.891V291.87H223.03V110.492Z" fill="white"/>
</mask>
<g mask="url(#mask0_3338_20933)">
<path d="M139.176 210.367H203.232" stroke="black" stroke-width="2" stroke-linecap="round" stroke-linejoin="round"/>
<path d="M139.176 232.484H203.232" stroke="black" stroke-width="2" stroke-linecap="round" stroke-linejoin="round"/>
<path d="M139.176 254.609H203.232" stroke="black" stroke-width="2" stroke-linecap="round" stroke-linejoin="round"/>
<path d="M195.312 135.266H150.589C146.537 135.266 143.252 138.55 143.252 142.601V184.982C143.252 189.033 146.537 192.317 150.589 192.317H195.312C199.364 192.317 202.649 189.033 202.649 184.982V142.601C202.649 138.55 199.364 135.266 195.312 135.266Z" fill="#EFEFEF"/>
<mask id="mask1_3338_20933" style="mask-type:luminance" maskUnits="userSpaceOnUse" x="143" y="135" width="60" height="58">
<path d="M195.312 135.242H150.589C146.537 135.242 143.252 138.526 143.252 142.577V184.959C143.252 189.01 146.537 192.294 150.589 192.294H195.312C199.364 192.294 202.649 189.01 202.649 184.959V142.577C202.649 138.526 199.364 135.242 195.312 135.242Z" fill="white"/>
</mask>
<g mask="url(#mask1_3338_20933)">
<path d="M170.016 148.355V153.711H162.515C162.087 153.711 161.663 153.795 161.268 153.959C160.872 154.123 160.512 154.363 160.209 154.666C159.907 154.968 159.667 155.328 159.503 155.723C159.339 156.119 159.254 156.543 159.254 156.971V256.87H186.135V148.355C186.135 147.496 185.794 146.673 185.186 146.066C184.579 145.459 183.756 145.118 182.897 145.118H173.347C172.915 145.109 172.485 145.185 172.083 145.344C171.68 145.502 171.314 145.738 171.004 146.04C170.694 146.341 170.447 146.701 170.277 147.098C170.108 147.495 170.019 147.923 170.016 148.355Z" fill="#EFEFEF" stroke="black" stroke-width="1.5" stroke-linecap="round" stroke-linejoin="round"/>
<path d="M164.821 164.867H180.428" stroke="black" stroke-linecap="round" stroke-linejoin="round"/>
<path d="M164.821 171.641H180.428" stroke="black" stroke-linecap="round" stroke-linejoin="round"/>
<path d="M164.821 178.414H180.428" stroke="black" stroke-linecap="round" stroke-linejoin="round"/>
<path d="M164.821 185.195H180.428" stroke="black" stroke-linecap="round" stroke-linejoin="round"/>
<path d="M164.821 191.945H180.428" stroke="black" stroke-linecap="round" stroke-linejoin="round"/>
</g>
<path d="M195.312 135.266H150.589C146.537 135.266 143.252 138.55 143.252 142.601V184.982C143.252 189.033 146.537 192.317 150.589 192.317H195.312C199.364 192.317 202.649 189.033 202.649 184.982V142.601C202.649 138.55 199.364 135.266 195.312 135.266Z" stroke="black" stroke-width="1.5" stroke-linecap="round" stroke-linejoin="round"/>
</g>
<path d="M153.198 100.734H190.607" stroke="black" stroke-width="0.95" stroke-linecap="round" stroke-linejoin="round"/>
<path d="M99.6244 72.3984H48.3798C41.3923 72.4169 34.6962 75.2 29.7553 80.1395C24.8144 85.079 22.0307 91.7732 22.0122 98.7587V123.675C22.0368 130.659 24.8225 137.349 29.7621 142.288C34.7017 147.226 41.3942 150.011 48.3798 150.035H71.6728L76.7971 158.908C77.4405 160.025 78.3672 160.953 79.4835 161.598C80.5999 162.244 81.8668 162.583 83.1563 162.583C84.4459 162.583 85.7125 162.244 86.8288 161.598C87.9452 160.953 88.8719 160.025 89.5153 158.908L94.6396 150.035H99.6244C106.614 150.017 113.312 147.235 118.257 142.296C123.202 137.357 125.991 130.663 126.015 123.675V98.7587C125.991 91.7711 123.202 85.0769 118.257 80.1381C113.312 75.1992 106.614 72.4168 99.6244 72.3984Z" fill="#FBFBFB" stroke="black" stroke-width="1.89" stroke-linecap="round" stroke-linejoin="round"/>
<path d="M75.1664 138.021L91.9839 113.454C93.3488 110.42 93.9001 107.082 93.5833 103.77C93.2664 100.458 92.0924 97.2852 90.1769 94.5643C88.2614 91.8434 85.6702 89.6678 82.6584 88.2518C79.6467 86.8358 76.318 86.2281 73 86.4884" fill="#FBFBFB"/>
<path d="M75.1664 138.021L91.9839 113.454C93.3488 110.42 93.9001 107.082 93.5833 103.77C93.2664 100.458 92.0924 97.2852 90.1769 94.5643C88.2614 91.8434 85.6702 89.6678 82.6584 88.2518C79.6467 86.8358 76.318 86.2281 73 86.4884" stroke="black" stroke-width="1.41" stroke-linecap="round" stroke-linejoin="round"/>
<path d="M75.1664 138.018L57.2076 113.078C51.5707 101.761 58.6518 87.6957 71.1834 86.5547C71.7658 86.5547 72.3714 86.5547 72.9537 86.5547" fill="#FBFBFB"/>
<path d="M75.1664 138.018L57.2076 113.078C51.5707 101.761 58.6518 87.6957 71.1834 86.5547C71.7658 86.5547 72.3714 86.5547 72.9537 86.5547" stroke="black" stroke-width="1.41" stroke-linecap="round" stroke-linejoin="round"/>
<path d="M74.5144 114.269C79.8402 114.269 84.1577 110.067 84.1577 104.884C84.1577 99.7016 79.8402 95.5 74.5144 95.5C69.1885 95.5 64.8711 99.7016 64.8711 104.884C64.8711 110.067 69.1885 114.269 74.5144 114.269Z" fill="#0043B4" stroke="black" stroke-width="1.67" stroke-miterlimit="10"/>
<path d="M164.682 332.203H308.143" stroke="black" stroke-width="2.09" stroke-linecap="round" stroke-linejoin="round"/>
<path d="M31.8647 332.203H165.963" stroke="black" stroke-width="2.09" stroke-linecap="round" stroke-linejoin="round"/>
<path d="M321.769 336C323.828 336 325.496 334.395 325.496 332.414C325.496 330.434 323.828 328.828 321.769 328.828C319.711 328.828 318.042 330.434 318.042 332.414C318.042 334.395 319.711 336 321.769 336Z" fill="black"/>
<path d="M145.186 183.942H144.976C144.859 183.618 144.668 183.325 144.417 183.089C144.166 182.852 143.863 182.678 143.532 182.581C143.202 182.484 142.852 182.466 142.513 182.529C142.174 182.592 141.855 182.735 141.582 182.945C141.308 183.155 141.088 183.426 140.939 183.737C140.791 184.048 140.717 184.39 140.726 184.735C140.734 185.079 140.824 185.417 140.988 185.721C141.152 186.024 141.385 186.284 141.668 186.481C141.063 187.472 140.768 188.621 140.822 189.781C140.875 190.941 141.275 192.059 141.968 192.99C142.662 193.921 143.618 194.624 144.715 195.008C145.811 195.391 146.997 195.439 148.12 195.143C149.615 194.754 150.895 193.787 151.676 192.455C152.458 191.123 152.679 189.535 152.29 188.041C151.901 186.546 150.933 185.268 149.601 184.486C148.269 183.704 146.681 183.484 145.186 183.873V183.942Z" fill="white" stroke="black" stroke-linecap="round" stroke-linejoin="round"/>
<path d="M80.7336 247.977C80.7336 247.977 77.3794 262.787 87.7215 262.321L90.5165 250.212L80.7336 247.977Z" fill="white" stroke="black" stroke-width="1.3" stroke-linecap="round" stroke-linejoin="round"/>
<path d="M106.752 173.367L122.358 177.023L122.591 198.796C122.618 199.561 122.426 200.317 122.038 200.977C121.651 201.637 121.083 202.173 120.402 202.522C119.109 203.058 117.71 203.291 116.312 203.202C114.915 203.113 113.557 202.705 112.342 202.009C112.342 202.009 116.116 211.184 120.635 213.652C120.932 213.808 121.185 214.035 121.371 214.314C121.557 214.592 121.67 214.913 121.7 215.247C121.73 215.58 121.676 215.916 121.543 216.223C121.41 216.531 121.202 216.8 120.937 217.006C116.744 219.69 111.814 220.992 106.842 220.729C101.87 220.466 97.1051 218.651 93.2188 215.539C93.2188 215.539 102.349 205.619 100.672 200.286C99.3913 196.188 94.5931 187.385 96.7826 179.142C97.3818 177.082 98.7524 175.332 100.609 174.256C102.466 173.181 104.666 172.862 106.752 173.367Z" fill="white" stroke="black" stroke-width="0.99" stroke-linecap="round" stroke-linejoin="round"/>
<path d="M88.1875 332.855C92.7543 332.855 96.4565 331.354 96.4565 329.502C96.4565 327.65 92.7543 326.148 88.1875 326.148C83.6206 326.148 79.9185 327.65 79.9185 329.502C79.9185 331.354 83.6206 332.855 88.1875 332.855Z" fill="black" stroke="black" stroke-width="1.3" stroke-linecap="round" stroke-linejoin="round"/>
<path d="M130.79 329.408C130.79 331.248 127.087 332.761 122.521 332.761C117.956 332.761 114.252 331.248 114.252 329.408C114.252 327.568 117.956 326.055 122.521 326.055C127.087 326.055 130.79 327.661 130.79 329.408Z" fill="black" stroke="black" stroke-width="1.3" stroke-linecap="round" stroke-linejoin="round"/>
<path d="M90.9593 255.641L79.9185 328.9H92.6363L106.1 272.64L115.417 327.014L125.014 327.34L126.388 305.497C127.042 295.179 126.526 284.821 124.85 274.619L121.846 256.432L90.9593 255.641Z" fill="white" stroke="black" stroke-width="1.3" stroke-linecap="round" stroke-linejoin="round"/>
<path d="M151.335 194.419L139.455 186.805L128.694 201.592C124.967 208.997 118.538 210.697 110.269 210.324L98.4363 211.069C83.2958 209.323 80.8036 218.567 80.5241 227.02L79.7319 251.727L88.4901 252.356L87.7915 262.323L126.225 262.928L126.691 228.487L151.335 194.419Z" fill="black" stroke="black" stroke-width="1.27" stroke-linecap="round" stroke-linejoin="round"/>
<path d="M116.441 167.148C115.168 167.154 113.92 167.5 112.827 168.152C111.733 168.803 110.834 169.735 110.222 170.851C109.068 170.382 107.835 170.137 106.588 170.129C104.948 170.082 103.328 170.493 101.908 171.316C100.489 172.138 99.3267 173.34 98.5525 174.786C96.2432 175.399 94.2115 176.78 92.7929 178.702C91.3744 180.624 90.6534 182.972 90.7491 185.358C90.6005 186.702 90.7373 188.062 91.15 189.35C91.5628 190.638 92.2424 191.824 93.1447 192.831C94.047 193.838 95.1516 194.644 96.3864 195.195C97.6212 195.747 98.9586 196.032 100.311 196.032C101.664 196.032 103.001 195.747 104.236 195.195C105.47 194.644 106.575 193.838 107.477 192.831C108.38 191.824 109.059 190.638 109.472 189.35C109.885 188.062 110.021 186.702 109.873 185.358C109.873 185.079 109.873 184.776 109.873 184.497C111.681 183.89 113.227 182.682 114.252 181.074C115 181.337 115.788 181.471 116.581 181.469C118.484 181.469 120.309 180.714 121.654 179.369C123 178.024 123.755 176.199 123.755 174.297C123.755 172.395 123 170.571 121.654 169.226C120.309 167.881 118.484 167.125 116.581 167.125L116.441 167.148Z" fill="black" stroke="black" stroke-width="1.27" stroke-linecap="round" stroke-linejoin="round"/>
<path d="M271.177 199.516L244.367 329.291" stroke="black" stroke-width="2" stroke-linecap="round" stroke-linejoin="round"/>
<path d="M235.329 224.059L289.625 232.838C290.058 232.911 290.502 232.897 290.93 232.796C291.357 232.696 291.761 232.511 292.117 232.253C292.472 231.995 292.773 231.669 293.001 231.294C293.229 230.918 293.38 230.501 293.445 230.067L295.774 215.536C295.916 214.663 295.707 213.769 295.192 213.049C294.677 212.329 293.899 211.842 293.026 211.694L238.544 202.891C237.8 202.778 237.04 202.908 236.377 203.264L227.06 208.457C226.642 208.687 226.279 209.005 225.996 209.388C225.713 209.771 225.516 210.211 225.418 210.678C225.321 211.145 225.326 211.627 225.432 212.092C225.539 212.556 225.744 212.993 226.035 213.37L233.023 222.685C233.291 223.061 233.634 223.378 234.031 223.614C234.428 223.851 234.87 224.002 235.329 224.059Z" fill="white" stroke="black" stroke-width="2" stroke-miterlimit="10"/>
<path d="M290.091 244.505L235.795 235.726C235.362 235.653 234.919 235.666 234.491 235.765C234.063 235.863 233.659 236.046 233.302 236.301C232.945 236.556 232.641 236.88 232.41 237.253C232.178 237.626 232.023 238.041 231.952 238.474L229.623 253.028C229.482 253.905 229.694 254.802 230.214 255.522C230.733 256.243 231.518 256.728 232.394 256.87L286.854 265.673C287.6 265.79 288.364 265.651 289.02 265.277L298.337 260.107C298.754 259.876 299.116 259.559 299.399 259.176C299.683 258.794 299.881 258.355 299.98 257.889C300.08 257.424 300.078 256.942 299.975 256.477C299.873 256.012 299.671 255.574 299.385 255.194L292.397 245.879C292.136 245.497 291.794 245.175 291.396 244.938C290.998 244.701 290.552 244.553 290.091 244.505Z" fill="white" stroke="black" stroke-width="2" stroke-miterlimit="10"/>
<path d="M272.621 199.261C281.137 199.261 288.041 192.359 288.041 183.845C288.041 175.331 281.137 168.43 272.621 168.43C264.105 168.43 257.201 175.331 257.201 183.845C257.201 192.359 264.105 199.261 272.621 199.261Z" fill="white" stroke="black" stroke-width="2" stroke-miterlimit="10"/>
<path d="M103.444 50.1875L115.696 61.2951" stroke="#31302E" stroke-width="1.53" stroke-linecap="round" stroke-linejoin="round"/>
<path d="M115.138 49.625L104.027 61.8737" stroke="#31302E" stroke-width="1.53" stroke-linecap="round" stroke-linejoin="round"/>
<path d="M252.52 134.016L264.772 145.123" stroke="#31302E" stroke-width="1.53" stroke-linecap="round" stroke-linejoin="round"/>
<path d="M264.213 133.453L253.102 145.702" stroke="#31302E" stroke-width="1.53" stroke-linecap="round" stroke-linejoin="round"/>
</g>
<defs>
<clipPath id="clip0_3338_20933">
<rect width="335" height="336" fill="white"/>
</clipPath>
</defs>
</svg>
