<svg width="329" height="306" viewBox="0 0 329 306" fill="none" xmlns="http://www.w3.org/2000/svg">
<g clip-path="url(#clip0_3338_20759)">
<path opacity="0.25" d="M167.952 0.0788425C150.024 -0.250065 132.194 2.78252 115.386 9.01933C99.7059 6.02457 83.529 6.93532 68.2855 11.671C53.0421 16.4067 39.2017 24.8215 27.9885 36.1711C16.7753 47.5207 8.53474 61.4555 3.99556 76.743C-0.543615 92.0306 -1.24142 108.2 1.96366 123.821C6.45181 145.243 7.68514 167.217 5.62235 189.006C3.07981 214.465 0.33057 242.38 0.33057 244.548C0.33057 332.054 80.3275 300.442 167.952 300.442C255.576 300.442 329 326.892 329 239.387C329 151.881 305.228 5.03431 167.952 0.0788425Z" fill="#CCE3FA"/>
<g opacity="0.39">
<path d="M49.6929 76.8065V87.9357H33.9416C33.0532 87.9329 32.173 88.1057 31.3517 88.444C30.5304 88.7824 29.7841 89.2796 29.1559 89.9072C28.5277 90.5347 28.0298 91.28 27.6911 92.1004C27.3524 92.9208 27.1794 93.8001 27.1822 94.6875V302.322H82.9939V76.8065C82.9885 75.0175 82.2747 73.3033 81.0082 72.0383C79.7417 70.7732 78.0256 70.0601 76.2346 70.0547H56.3903C54.6101 70.0764 52.9098 70.7966 51.6567 72.0599C50.4036 73.3232 49.6982 75.0281 49.6929 76.8065Z" fill="#0043B4"/>
<mask id="mask0_3338_20759" style="mask-type:luminance" maskUnits="userSpaceOnUse" x="27" y="70" width="56" height="233">
<path d="M49.6929 76.8065V87.9357H33.9416C33.0532 87.9329 32.173 88.1057 31.3517 88.444C30.5304 88.7824 29.7841 89.2796 29.1559 89.9072C28.5277 90.5347 28.0298 91.28 27.6911 92.1004C27.3524 92.9208 27.1794 93.8001 27.1822 94.6875V302.322H82.9939V76.8065C82.9885 75.0175 82.2747 73.3033 81.0082 72.0383C79.7417 70.7732 78.0256 70.0601 76.2346 70.0547H56.3903C54.6101 70.0764 52.9098 70.7966 51.6567 72.0599C50.4036 73.3232 49.6982 75.0281 49.6929 76.8065Z" fill="white"/>
</mask>
<g mask="url(#mask0_3338_20759)">
<path d="M40.2051 111.188H72.6172" stroke="#0043B4" stroke-width="2" stroke-linecap="round" stroke-linejoin="round"/>
<path d="M40.2051 125.266H72.6172" stroke="#0043B4" stroke-width="2" stroke-linecap="round" stroke-linejoin="round"/>
<path d="M40.2051 139.328H72.6172" stroke="#0043B4" stroke-width="2" stroke-linecap="round" stroke-linejoin="round"/>
<path d="M40.2051 153.391H72.6172" stroke="#0043B4" stroke-width="2" stroke-linecap="round" stroke-linejoin="round"/>
<path d="M40.2051 167.477H72.6172" stroke="#0043B4" stroke-width="2" stroke-linecap="round" stroke-linejoin="round"/>
<path d="M40.2051 181.531H72.6172" stroke="#0043B4" stroke-width="2" stroke-linecap="round" stroke-linejoin="round"/>
<path d="M40.2051 195.305H72.6172" stroke="#0043B4" stroke-width="2" stroke-linecap="round" stroke-linejoin="round"/>
<path d="M40.2051 209.391H72.6172" stroke="#0043B4" stroke-width="2" stroke-linecap="round" stroke-linejoin="round"/>
<path d="M40.2051 223.453H72.6172" stroke="#0043B4" stroke-width="2" stroke-linecap="round" stroke-linejoin="round"/>
<path d="M40.2051 237.531H72.6172" stroke="#0043B4" stroke-width="2" stroke-linecap="round" stroke-linejoin="round"/>
<path d="M40.2051 251.594H72.6172" stroke="#0043B4" stroke-width="2" stroke-linecap="round" stroke-linejoin="round"/>
<path d="M40.2051 265.656H72.6172" stroke="#0043B4" stroke-width="2" stroke-linecap="round" stroke-linejoin="round"/>
</g>
</g>
<g opacity="0.39">
<path d="M295.781 302.323H244.972V147.464C244.972 146.602 245.142 145.748 245.473 144.952C245.803 144.155 246.287 143.431 246.897 142.822C247.508 142.212 248.232 141.728 249.03 141.398C249.827 141.068 250.682 140.898 251.546 140.898H289.187C290.052 140.896 290.909 141.064 291.709 141.392C292.509 141.721 293.236 142.204 293.849 142.814C294.461 143.424 294.948 144.149 295.279 144.947C295.611 145.745 295.781 146.6 295.781 147.464V302.323Z" fill="#0043B4"/>
<mask id="mask1_3338_20759" style="mask-type:luminance" maskUnits="userSpaceOnUse" x="244" y="140" width="52" height="163">
<path d="M295.781 302.323H244.972V147.464C244.972 146.602 245.142 145.748 245.473 144.952C245.803 144.155 246.287 143.431 246.897 142.822C247.508 142.212 248.232 141.728 249.03 141.398C249.827 141.068 250.682 140.898 251.546 140.898H289.187C290.052 140.896 290.909 141.064 291.709 141.392C292.509 141.721 293.236 142.204 293.849 142.814C294.461 143.424 294.948 144.149 295.279 144.947C295.611 145.745 295.781 146.6 295.781 147.464V302.323Z" fill="white"/>
</mask>
<g mask="url(#mask1_3338_20759)">
<path d="M255.266 156.609H287.678" stroke="#0043B4" stroke-width="2" stroke-linecap="round" stroke-linejoin="round"/>
<path d="M255.266 170.672H287.678" stroke="#0043B4" stroke-width="2" stroke-linecap="round" stroke-linejoin="round"/>
<path d="M255.266 184.75H287.678" stroke="#0043B4" stroke-width="2" stroke-linecap="round" stroke-linejoin="round"/>
<path d="M255.266 198.812H287.678" stroke="#0043B4" stroke-width="2" stroke-linecap="round" stroke-linejoin="round"/>
<path d="M255.266 212.898H287.678" stroke="#0043B4" stroke-width="2" stroke-linecap="round" stroke-linejoin="round"/>
<path d="M255.266 226.953H287.678" stroke="#0043B4" stroke-width="2" stroke-linecap="round" stroke-linejoin="round"/>
</g>
</g>
<path opacity="0.39" d="M219.815 302.326H166.071L168.138 61.4904C168.148 60.2213 168.502 58.9786 169.162 57.8939C169.821 56.8091 170.762 55.9226 171.885 55.3281C173.007 54.7335 174.27 54.4532 175.539 54.5166C176.808 54.58 178.036 54.9849 179.094 55.6884L216.735 80.6722C217.701 81.3167 218.493 82.1888 219.041 83.2116C219.589 84.2343 219.876 85.3761 219.878 86.5362L219.815 302.326Z" fill="#0043B4"/>
<path opacity="0.39" d="M155.302 116.23V108.322C155.296 107.496 154.966 106.707 154.381 106.123C153.797 105.539 153.006 105.209 152.18 105.204V92.6706C152.18 92.0561 152.059 91.4476 151.823 90.8801C151.587 90.3126 151.241 89.7973 150.805 89.3637C150.369 88.9301 149.851 88.5868 149.282 88.3535C148.713 88.1202 148.103 88.0015 147.488 88.0042H147.013V73.6747L134.61 29.3646C134.471 28.8643 134.175 28.422 133.765 28.1032C133.355 27.7844 132.853 27.6059 132.333 27.5944C131.814 27.5828 131.304 27.7387 130.88 28.0389C130.456 28.3391 130.141 28.7678 129.98 29.2613L115.51 73.6747V88.0042H115.034C113.795 88.0042 112.607 88.4959 111.731 89.371C110.855 90.2461 110.363 91.433 110.363 92.6706V105.204C109.535 105.204 108.741 105.532 108.156 106.117C107.57 106.702 107.242 107.495 107.242 108.322V116.23C106.571 116.227 105.907 116.357 105.287 116.613C104.668 116.868 104.105 117.244 103.632 117.719C103.159 118.193 102.785 118.756 102.532 119.376C102.279 119.996 102.151 120.66 102.156 121.33V302.39H160.304V121.33C160.299 119.992 159.763 118.71 158.813 117.766C157.864 116.822 156.579 116.292 155.24 116.292L155.302 116.23Z" fill="#0043B4"/>
<path d="M205.739 122.711H237.965C240.416 122.711 242.766 123.683 244.499 125.414C246.231 127.145 247.205 129.493 247.205 131.94V302.326H196.52V131.94C196.52 129.496 197.49 127.152 199.219 125.422C200.947 123.691 203.292 122.716 205.739 122.711Z" fill="#0043B4"/>
<path d="M77.7646 149.656H103.624C106.913 149.656 110.068 150.961 112.394 153.285C114.72 155.608 116.027 158.759 116.027 162.045V302.305H65.3413V162.066C65.3386 160.435 65.6581 158.82 66.2814 157.314C66.9048 155.807 67.8198 154.438 68.9739 153.285C70.1281 152.132 71.4987 151.218 73.0072 150.595C74.5157 149.973 76.1324 149.654 77.7646 149.656Z" fill="#0043B4"/>
<path d="M127.809 77.4288C142.278 77.4288 143.457 55.8106 129.111 54.7162C128.346 54.7162 127.561 54.613 126.775 54.613C125.99 54.613 125.369 54.613 124.708 54.7162C124.237 46.341 120.575 38.4634 114.472 32.7005C108.37 26.9376 100.291 23.7266 91.8927 23.7266C83.4948 23.7266 75.4155 26.9376 69.3131 32.7005C63.2107 38.4634 59.5482 46.341 59.0775 54.7162H58.7468C44.1737 55.5628 45.104 77.4288 59.677 77.4288H127.809Z" fill="#FBFBFB" stroke="black" stroke-width="2.07" stroke-linecap="round" stroke-linejoin="round"/>
<path d="M298.531 100.448V100.138C298.531 89.0298 291.689 79.0569 281.994 76.2901C279.162 75.4879 276.189 75.3087 273.28 75.7649C270.372 76.2212 267.597 77.3021 265.147 78.9331C263.556 75.9744 261.311 73.4173 258.581 71.4565C255.852 69.4957 252.71 68.1829 249.396 67.6181C239.432 66.0695 230.11 72.0573 226.141 81.6585C225.013 81.2565 223.851 80.9593 222.668 80.7707C210.555 78.8918 199.331 88.1833 197.615 101.542V101.687C197.363 103.282 197.451 104.911 197.871 106.47C198.292 108.028 199.037 109.481 200.056 110.733C201.076 111.986 202.348 113.01 203.79 113.738C205.232 114.467 206.812 114.885 208.426 114.963H284.909C288.621 114.782 292.117 113.166 294.659 110.458C297.2 107.749 298.589 104.16 298.531 100.448Z" fill="#FBFBFB" stroke="black" stroke-width="2.27" stroke-linecap="round" stroke-linejoin="round"/>
<path d="M39.957 31.8984L50.8093 41.7474" stroke="#31302E" stroke-width="1.53" stroke-linecap="round" stroke-linejoin="round"/>
<path d="M50.3132 31.4062L40.4531 42.2463" stroke="#31302E" stroke-width="1.53" stroke-linecap="round" stroke-linejoin="round"/>
<path d="M211.526 54.6094L222.379 64.4584" stroke="#31302E" stroke-width="1.53" stroke-linecap="round" stroke-linejoin="round"/>
<path d="M221.883 54.1172L212.022 64.9573" stroke="#31302E" stroke-width="1.53" stroke-linecap="round" stroke-linejoin="round"/>
<path d="M43.0786 303.359H295.038" stroke="#20094B" stroke-width="0.57" stroke-linecap="round" stroke-linejoin="round"/>
<path d="M243.712 233.758H58.7266V279.369H243.712V233.758Z" fill="#20094B"/>
<path d="M207.578 303.79C202.054 303.79 196.654 302.154 192.061 299.088C187.468 296.022 183.889 291.664 181.776 286.565C179.663 281.467 179.111 275.857 180.19 270.445C181.269 265.034 183.931 260.063 187.839 256.163C191.746 252.263 196.724 249.608 202.143 248.533C207.562 247.459 213.177 248.015 218.28 250.129C223.382 252.244 227.742 255.822 230.809 260.412C233.875 265.003 235.509 270.398 235.505 275.916C235.494 283.309 232.548 290.396 227.312 295.621C222.077 300.847 214.98 303.785 207.578 303.79Z" fill="#423890"/>
<path d="M207.579 248.453C213.017 248.449 218.335 250.056 222.858 253.071C227.382 256.086 230.909 260.374 232.993 265.391C235.077 270.409 235.625 275.931 234.566 281.259C233.508 286.588 230.891 291.483 227.047 295.326C223.203 299.168 218.304 301.786 212.971 302.847C207.637 303.908 202.108 303.366 197.083 301.288C192.059 299.21 187.764 295.69 184.742 291.174C181.72 286.657 180.107 281.347 180.107 275.915C180.107 268.635 183.001 261.653 188.152 256.504C193.303 251.354 200.291 248.459 207.579 248.453ZM207.579 247.586C201.97 247.586 196.486 249.247 191.823 252.36C187.159 255.473 183.524 259.897 181.377 265.074C179.231 270.25 178.669 275.946 179.763 281.441C180.858 286.937 183.559 291.984 187.525 295.946C191.491 299.908 196.545 302.606 202.046 303.699C207.547 304.792 213.25 304.231 218.432 302.087C223.614 299.943 228.044 296.312 231.16 291.653C234.276 286.995 235.939 281.518 235.939 275.915C235.934 268.403 232.944 261.201 227.627 255.889C222.309 250.578 215.099 247.591 207.579 247.586Z" fill="#20094B"/>
<path d="M207.579 251.406C212.24 251.409 216.805 252.734 220.743 255.227C224.68 257.72 227.828 261.278 229.821 265.488" stroke="#20094B" stroke-width="0.57" stroke-linecap="round" stroke-linejoin="round"/>
<path d="M201.377 299.659C196.12 298.285 191.467 295.209 188.146 290.913C184.825 286.617 183.023 281.342 183.021 275.914" stroke="#20094B" stroke-width="0.57" stroke-linecap="round" stroke-linejoin="round"/>
<path d="M229.821 286.508C228.159 289.999 225.703 293.054 222.648 295.428" stroke="#20094B" stroke-width="0.57" stroke-linecap="round" stroke-linejoin="round"/>
<path d="M207.599 293.548C217.349 293.548 225.252 285.653 225.252 275.914C225.252 266.176 217.349 258.281 207.599 258.281C197.85 258.281 189.946 266.176 189.946 275.914C189.946 285.653 197.85 293.548 207.599 293.548Z" fill="#20094B"/>
<path d="M212.891 269.291C212.22 269.286 211.579 269.016 211.107 268.54C210.634 268.064 210.369 267.421 210.369 266.751V261.3C210.369 260.632 210.635 259.992 211.108 259.519C211.581 259.047 212.222 258.781 212.891 258.781C213.173 258.779 213.453 258.828 213.718 258.926C215.755 259.647 217.64 260.739 219.278 262.147C219.578 262.397 219.813 262.715 219.964 263.074C220.115 263.433 220.178 263.823 220.147 264.212C220.12 264.632 219.991 265.04 219.771 265.399C219.551 265.759 219.247 266.06 218.886 266.276L214.152 269.002C213.77 269.228 213.335 269.349 212.891 269.353V269.291Z" fill="white"/>
<path d="M212.891 259.217C213.123 259.213 213.353 259.247 213.573 259.32C215.562 260.035 217.404 261.106 219.01 262.479C219.261 262.696 219.456 262.971 219.578 263.28C219.7 263.589 219.746 263.923 219.711 264.253C219.677 264.583 219.563 264.9 219.38 265.178C219.196 265.455 218.949 265.683 218.658 265.844L213.945 268.57C213.623 268.751 213.261 268.851 212.891 268.859C212.343 268.859 211.817 268.641 211.429 268.254C211.042 267.867 210.824 267.342 210.824 266.794V261.343C210.824 260.796 211.042 260.27 211.429 259.883C211.817 259.496 212.343 259.278 212.891 259.278M212.891 258.391C212.105 258.396 211.353 258.712 210.8 259.269C210.246 259.826 209.935 260.579 209.935 261.364V266.815C209.935 267.6 210.246 268.353 210.8 268.91C211.353 269.467 212.105 269.783 212.891 269.788C213.415 269.786 213.929 269.643 214.379 269.375L219.092 266.65C219.511 266.415 219.865 266.082 220.125 265.678C220.384 265.275 220.541 264.815 220.581 264.337C220.622 263.873 220.552 263.406 220.376 262.975C220.2 262.544 219.923 262.161 219.568 261.859C217.877 260.435 215.944 259.323 213.862 258.576C213.553 258.454 213.224 258.391 212.891 258.391Z" fill="#20094B"/>
<path d="M222.917 281.162C222.476 281.155 222.043 281.042 221.656 280.832L216.922 278.086C216.54 277.864 216.223 277.546 216.003 277.164C215.783 276.782 215.667 276.348 215.667 275.907C215.667 275.466 215.783 275.033 216.003 274.651C216.223 274.268 216.54 273.95 216.922 273.729L221.656 271.003C222.001 270.797 222.391 270.677 222.792 270.653C223.194 270.629 223.595 270.702 223.962 270.866C224.33 271.03 224.652 271.281 224.901 271.596C225.151 271.911 225.321 272.281 225.397 272.676C225.783 274.813 225.783 277.002 225.397 279.139C225.294 279.72 224.989 280.246 224.535 280.624C224.081 281.002 223.508 281.207 222.917 281.203V281.162Z" fill="white"/>
<path d="M222.917 271.086C223.403 271.077 223.877 271.24 224.255 271.546C224.633 271.852 224.891 272.281 224.984 272.758C225.369 274.84 225.369 276.975 224.984 279.056C224.891 279.533 224.633 279.963 224.255 280.269C223.877 280.574 223.403 280.737 222.917 280.729C222.546 280.728 222.181 280.629 221.862 280.439L217.149 277.714C216.826 277.535 216.557 277.274 216.369 276.956C216.182 276.638 216.083 276.276 216.083 275.907C216.083 275.538 216.182 275.176 216.369 274.859C216.557 274.541 216.826 274.279 217.149 274.101L221.862 271.375C222.184 271.191 222.546 271.092 222.917 271.086ZM222.917 270.219C222.392 270.221 221.879 270.364 221.428 270.632L216.695 273.357C216.249 273.62 215.88 273.995 215.623 274.444C215.366 274.893 215.231 275.401 215.231 275.918C215.231 276.435 215.366 276.943 215.623 277.392C215.88 277.841 216.249 278.215 216.695 278.478L221.428 281.203C221.884 281.455 222.396 281.59 222.917 281.596C223.601 281.603 224.267 281.368 224.796 280.934C225.325 280.5 225.684 279.894 225.811 279.221C226.224 277.031 226.224 274.783 225.811 272.593C225.681 271.923 225.32 271.319 224.792 270.885C224.264 270.452 223.6 270.216 222.917 270.219Z" fill="#20094B"/>
<path d="M202.308 269.29C201.864 269.286 201.429 269.165 201.047 268.939L196.313 266.214C195.951 265.997 195.647 265.696 195.428 265.337C195.208 264.977 195.079 264.57 195.052 264.149C195.026 263.761 195.091 263.373 195.242 263.014C195.392 262.656 195.625 262.337 195.92 262.084C197.573 260.687 199.463 259.596 201.501 258.863C201.768 258.773 202.047 258.725 202.328 258.719C202.659 258.721 202.987 258.789 203.292 258.918C203.597 259.047 203.873 259.235 204.105 259.471C204.338 259.707 204.521 259.986 204.645 260.293C204.77 260.6 204.832 260.928 204.829 261.258V266.709C204.833 267.048 204.767 267.385 204.636 267.697C204.504 268.01 204.31 268.292 204.065 268.526C203.592 268.982 202.964 269.24 202.308 269.249V269.29Z" fill="white"/>
<path d="M202.328 259.211C202.876 259.211 203.402 259.429 203.79 259.816C204.177 260.203 204.395 260.728 204.395 261.276V266.727C204.403 267.095 204.311 267.458 204.131 267.779C203.951 268.1 203.688 268.367 203.369 268.552C203.051 268.737 202.689 268.834 202.32 268.833C201.952 268.831 201.591 268.731 201.274 268.544L196.54 265.86C196.251 265.697 196.005 265.466 195.824 265.188C195.642 264.91 195.531 264.593 195.498 264.263C195.466 263.932 195.513 263.599 195.637 263.291C195.761 262.984 195.957 262.71 196.209 262.494C197.815 261.121 199.657 260.05 201.646 259.335C201.866 259.262 202.097 259.228 202.328 259.232M202.328 258.344C201.989 258.345 201.653 258.408 201.336 258.53C199.254 259.276 197.322 260.388 195.631 261.813C195.276 262.115 194.998 262.497 194.822 262.928C194.646 263.359 194.576 263.826 194.618 264.29C194.663 264.766 194.822 265.225 195.081 265.627C195.339 266.03 195.691 266.364 196.106 266.603L200.84 269.328C201.282 269.598 201.789 269.741 202.307 269.741C203.093 269.736 203.845 269.42 204.399 268.863C204.953 268.306 205.263 267.553 205.263 266.768V261.317C205.263 260.536 204.956 259.785 204.406 259.229C203.857 258.673 203.11 258.355 202.328 258.344Z" fill="#20094B"/>
<path d="M202.328 293.058C202.047 293.052 201.768 293.003 201.501 292.914C199.463 292.181 197.573 291.09 195.92 289.693C195.625 289.44 195.392 289.121 195.242 288.763C195.091 288.404 195.026 288.016 195.052 287.628C195.079 287.207 195.208 286.8 195.428 286.44C195.647 286.08 195.951 285.779 196.313 285.563L201.047 282.837C201.431 282.616 201.866 282.5 202.309 282.5C202.753 282.5 203.188 282.617 203.572 282.839C203.955 283.061 204.273 283.38 204.494 283.764C204.715 284.148 204.831 284.583 204.829 285.026V290.477C204.829 291.144 204.567 291.783 204.099 292.259C203.631 292.734 202.995 293.006 202.328 293.017V293.058Z" fill="white"/>
<path d="M202.308 282.976C202.856 282.976 203.382 283.194 203.769 283.581C204.157 283.968 204.375 284.493 204.375 285.041V290.492C204.375 291.04 204.157 291.565 203.769 291.952C203.382 292.339 202.856 292.557 202.308 292.557C202.075 292.554 201.844 292.512 201.625 292.433C199.633 291.722 197.785 290.659 196.168 289.295C195.913 289.077 195.714 288.801 195.589 288.49C195.464 288.179 195.417 287.842 195.452 287.509C195.486 287.176 195.602 286.856 195.788 286.577C195.974 286.298 196.225 286.068 196.52 285.908L201.253 283.183C201.568 283.004 201.925 282.912 202.287 282.914M202.287 282.047C201.771 282.04 201.263 282.176 200.819 282.439L196.086 285.165C195.67 285.401 195.319 285.735 195.063 286.138C194.807 286.541 194.654 287.001 194.618 287.478C194.566 287.94 194.63 288.408 194.803 288.841C194.976 289.273 195.253 289.656 195.61 289.955C197.295 291.389 199.229 292.501 201.315 293.238C201.632 293.36 201.968 293.422 202.308 293.424C203.09 293.413 203.836 293.095 204.386 292.539C204.935 291.982 205.243 291.232 205.243 290.451V285.062C205.243 284.279 204.931 283.528 204.377 282.974C203.823 282.42 203.071 282.109 202.287 282.109V282.047Z" fill="#20094B"/>
<path d="M212.891 293.056C212.558 293.056 212.229 292.99 211.921 292.862C211.614 292.734 211.335 292.547 211.101 292.311C210.866 292.075 210.681 291.795 210.555 291.487C210.43 291.179 210.366 290.849 210.369 290.516V285.065C210.368 284.622 210.484 284.187 210.704 283.803C210.925 283.419 211.244 283.1 211.627 282.878C212.011 282.656 212.446 282.539 212.889 282.539C213.333 282.539 213.768 282.655 214.152 282.877L218.886 285.602C219.248 285.819 219.551 286.12 219.771 286.479C219.991 286.839 220.12 287.246 220.147 287.667C220.174 288.055 220.11 288.444 219.959 288.803C219.809 289.162 219.575 289.48 219.278 289.732C217.645 291.104 215.784 292.18 213.78 292.911C213.493 293.006 213.193 293.054 212.891 293.056Z" fill="white"/>
<path d="M212.891 282.98C213.259 282.98 213.622 283.072 213.945 283.248L218.658 285.973C218.953 286.134 219.204 286.363 219.39 286.642C219.576 286.921 219.692 287.241 219.726 287.574C219.761 287.908 219.714 288.244 219.589 288.555C219.464 288.866 219.265 289.142 219.01 289.36C217.398 290.719 215.557 291.782 213.573 292.498C213.354 292.577 213.124 292.619 212.891 292.622C212.343 292.622 211.817 292.404 211.429 292.017C211.042 291.63 210.824 291.105 210.824 290.557V285.065C210.824 284.517 211.042 283.992 211.429 283.605C211.817 283.218 212.343 283 212.891 283M212.891 282.133C212.107 282.133 211.355 282.444 210.801 282.998C210.246 283.551 209.935 284.302 209.935 285.086V290.537C209.935 291.322 210.246 292.075 210.8 292.632C211.353 293.189 212.105 293.504 212.891 293.51C213.224 293.51 213.553 293.447 213.862 293.324C215.944 292.577 217.877 291.465 219.568 290.041C219.923 289.739 220.2 289.356 220.376 288.925C220.552 288.494 220.622 288.027 220.581 287.563C220.541 287.086 220.384 286.625 220.125 286.222C219.865 285.819 219.511 285.485 219.092 285.251L214.379 282.525C213.927 282.264 213.413 282.128 212.891 282.133Z" fill="#20094B"/>
<path d="M192.282 281.163C191.692 281.17 191.12 280.966 190.668 280.587C190.216 280.208 189.916 279.679 189.822 279.098C189.617 278.036 189.513 276.958 189.512 275.877C189.513 274.789 189.617 273.704 189.822 272.635C189.92 272.055 190.222 271.529 190.672 271.151C191.123 270.773 191.693 270.567 192.282 270.57C192.733 270.572 193.175 270.693 193.564 270.921L198.277 273.647C198.664 273.865 198.985 274.184 199.207 274.569C199.429 274.954 199.543 275.391 199.538 275.836C199.544 276.277 199.43 276.712 199.208 277.094C198.986 277.476 198.664 277.79 198.277 278.004L193.543 280.75C193.158 280.965 192.724 281.078 192.282 281.08V281.163Z" fill="white"/>
<path d="M192.282 271.089C192.652 271.095 193.015 271.194 193.336 271.378L198.07 274.124C198.393 274.303 198.662 274.564 198.85 274.882C199.037 275.2 199.136 275.562 199.136 275.931C199.136 276.3 199.037 276.662 198.85 276.979C198.662 277.297 198.393 277.559 198.07 277.737L193.336 280.463C193.017 280.652 192.653 280.752 192.282 280.752C191.796 280.761 191.322 280.598 190.944 280.292C190.565 279.986 190.307 279.557 190.215 279.079C190.024 278.044 189.927 276.994 189.926 275.941C189.928 274.881 190.025 273.824 190.215 272.782C190.307 272.305 190.565 271.875 190.944 271.569C191.322 271.263 191.796 271.101 192.282 271.109M192.282 270.242C191.598 270.239 190.935 270.475 190.407 270.909C189.878 271.342 189.518 271.946 189.388 272.617C188.975 274.807 188.975 277.055 189.388 279.245C189.514 279.917 189.874 280.523 190.403 280.958C190.932 281.392 191.597 281.626 192.282 281.619C192.803 281.614 193.315 281.479 193.771 281.227L198.504 278.501C198.95 278.238 199.319 277.864 199.576 277.415C199.833 276.966 199.967 276.458 199.967 275.941C199.967 275.424 199.833 274.916 199.576 274.467C199.319 274.018 198.95 273.644 198.504 273.381L193.771 270.655C193.32 270.387 192.806 270.245 192.282 270.242Z" fill="#20094B"/>
<path d="M207.579 284.711C205.831 284.715 204.122 284.201 202.667 283.234C201.212 282.267 200.078 280.89 199.407 279.278C198.737 277.666 198.56 275.892 198.9 274.18C199.24 272.468 200.081 270.895 201.317 269.66C202.552 268.426 204.127 267.586 205.841 267.247C207.555 266.907 209.332 267.083 210.945 267.753C212.559 268.423 213.937 269.556 214.906 271.009C215.874 272.462 216.389 274.17 216.385 275.915C216.385 278.248 215.457 280.485 213.805 282.135C212.154 283.785 209.914 284.711 207.579 284.711Z" fill="white"/>
<path d="M207.579 267.531C209.244 267.507 210.878 267.977 212.275 268.883C213.671 269.789 214.766 271.09 215.42 272.619C216.074 274.149 216.258 275.838 215.949 277.472C215.639 279.107 214.85 280.612 213.681 281.797C212.512 282.982 211.017 283.792 209.386 284.126C207.755 284.46 206.061 284.301 204.52 283.67C202.98 283.04 201.661 281.965 200.734 280.584C199.806 279.203 199.31 277.577 199.31 275.914C199.305 273.711 200.17 271.594 201.718 270.024C203.267 268.454 205.373 267.558 207.579 267.531ZM207.579 266.664C205.746 266.66 203.954 267.199 202.428 268.213C200.902 269.227 199.712 270.67 199.008 272.36C198.304 274.05 198.118 275.91 198.473 277.706C198.828 279.502 199.708 281.152 201.002 282.448C202.297 283.744 203.947 284.627 205.744 284.985C207.541 285.344 209.404 285.162 211.097 284.462C212.79 283.763 214.238 282.577 215.257 281.056C216.275 279.534 216.819 277.745 216.819 275.914C216.819 273.465 215.846 271.115 214.114 269.381C212.381 267.647 210.031 266.67 207.579 266.664Z" fill="#20094B"/>
<path d="M207.6 279.096C209.369 279.096 210.804 277.663 210.804 275.896C210.804 274.128 209.369 272.695 207.6 272.695C205.83 272.695 204.396 274.128 204.396 275.896C204.396 277.663 205.83 279.096 207.6 279.096Z" fill="#20094B"/>
<path d="M206.772 270.506C206.772 270.287 206.86 270.076 207.015 269.922C207.17 269.767 207.38 269.68 207.599 269.68C207.819 269.68 208.029 269.767 208.184 269.922C208.339 270.076 208.426 270.287 208.426 270.506C208.426 270.725 208.339 270.935 208.184 271.09C208.029 271.244 207.819 271.331 207.599 271.331C207.38 271.331 207.17 271.244 207.015 271.09C206.86 270.935 206.772 270.725 206.772 270.506Z" fill="#20094B"/>
<path d="M207.248 270.507C207.253 270.416 207.292 270.329 207.356 270.265C207.421 270.2 207.508 270.161 207.599 270.156C207.646 270.156 207.691 270.165 207.734 270.183C207.777 270.201 207.815 270.226 207.848 270.259C207.88 270.292 207.906 270.33 207.924 270.373C207.942 270.416 207.951 270.461 207.951 270.507C207.954 270.555 207.947 270.603 207.93 270.648C207.914 270.693 207.888 270.734 207.856 270.769C207.823 270.804 207.783 270.831 207.739 270.85C207.695 270.869 207.647 270.879 207.599 270.879C207.504 270.874 207.415 270.832 207.35 270.763C207.284 270.694 207.248 270.602 207.248 270.507Z" fill="white"/>
<path d="M210.845 271.521C210.96 271.404 211.107 271.324 211.268 271.291C211.428 271.257 211.596 271.273 211.748 271.335C211.9 271.397 212.03 271.503 212.121 271.639C212.213 271.775 212.262 271.935 212.262 272.099C212.262 272.263 212.213 272.424 212.121 272.56C212.03 272.696 211.9 272.802 211.748 272.864C211.596 272.926 211.428 272.941 211.268 272.908C211.107 272.875 210.96 272.795 210.845 272.677C210.767 272.602 210.705 272.513 210.663 272.413C210.621 272.314 210.6 272.207 210.6 272.099C210.6 271.991 210.621 271.885 210.663 271.785C210.705 271.686 210.767 271.596 210.845 271.521Z" fill="#20094B"/>
<path d="M211.175 271.853C211.224 271.804 211.287 271.77 211.355 271.757C211.423 271.743 211.494 271.75 211.559 271.777C211.623 271.803 211.678 271.848 211.716 271.906C211.755 271.964 211.776 272.032 211.776 272.101C211.776 272.17 211.755 272.238 211.716 272.296C211.678 272.354 211.623 272.399 211.559 272.425C211.494 272.452 211.423 272.459 211.355 272.445C211.287 272.432 211.224 272.398 211.175 272.349C211.14 272.318 211.112 272.28 211.093 272.237C211.073 272.194 211.063 272.148 211.063 272.101C211.063 272.054 211.073 272.008 211.093 271.965C211.112 271.922 211.14 271.884 211.175 271.853Z" fill="white"/>
<path d="M212.994 275.094C213.214 275.094 213.424 275.181 213.579 275.336C213.734 275.491 213.821 275.701 213.821 275.92C213.821 276.027 213.8 276.134 213.758 276.233C213.716 276.332 213.655 276.421 213.578 276.496C213.501 276.572 213.41 276.63 213.309 276.67C213.209 276.709 213.102 276.728 212.994 276.725C212.888 276.728 212.782 276.709 212.683 276.669C212.583 276.63 212.494 276.571 212.418 276.495C212.343 276.42 212.283 276.33 212.244 276.231C212.204 276.132 212.185 276.026 212.188 275.92C212.186 275.812 212.204 275.705 212.244 275.605C212.283 275.505 212.342 275.414 212.417 275.337C212.492 275.26 212.582 275.199 212.681 275.157C212.78 275.115 212.887 275.094 212.994 275.094Z" fill="#20094B"/>
<path d="M212.994 275.563C213.042 275.56 213.09 275.567 213.135 275.584C213.18 275.6 213.222 275.625 213.256 275.658C213.291 275.691 213.319 275.731 213.338 275.775C213.357 275.819 213.367 275.866 213.367 275.914C213.361 276.009 213.32 276.098 213.251 276.164C213.181 276.229 213.09 276.265 212.994 276.265C212.903 276.26 212.816 276.222 212.751 276.157C212.687 276.092 212.648 276.006 212.643 275.914C212.643 275.821 212.68 275.732 212.746 275.666C212.812 275.6 212.901 275.563 212.994 275.563Z" fill="white"/>
<path d="M212.002 279.135C212.08 279.211 212.142 279.303 212.185 279.404C212.227 279.505 212.249 279.613 212.249 279.723C212.249 279.833 212.227 279.941 212.185 280.042C212.142 280.143 212.08 280.235 212.002 280.311C211.848 280.463 211.64 280.548 211.424 280.548C211.207 280.548 210.999 280.463 210.845 280.311C210.767 280.235 210.705 280.143 210.662 280.042C210.62 279.941 210.598 279.833 210.598 279.723C210.598 279.613 210.62 279.505 210.662 279.404C210.705 279.303 210.767 279.211 210.845 279.135C210.999 278.983 211.207 278.898 211.424 278.898C211.64 278.898 211.848 278.983 212.002 279.135Z" fill="#20094B"/>
<path d="M211.713 279.47C211.762 279.519 211.796 279.581 211.809 279.649C211.823 279.717 211.816 279.788 211.789 279.852C211.763 279.917 211.718 279.971 211.66 280.01C211.602 280.049 211.534 280.069 211.465 280.069C211.395 280.069 211.327 280.049 211.269 280.01C211.211 279.971 211.166 279.917 211.14 279.852C211.113 279.788 211.106 279.717 211.12 279.649C211.134 279.581 211.167 279.519 211.217 279.47C211.285 279.409 211.373 279.375 211.465 279.375C211.556 279.375 211.645 279.409 211.713 279.47Z" fill="white"/>
<path d="M208.426 281.31C208.426 281.474 208.378 281.633 208.287 281.769C208.196 281.905 208.067 282.011 207.916 282.073C207.765 282.136 207.598 282.152 207.438 282.12C207.278 282.088 207.13 282.01 207.015 281.894C206.899 281.779 206.82 281.632 206.788 281.471C206.756 281.311 206.773 281.145 206.835 280.994C206.898 280.843 207.004 280.714 207.14 280.624C207.276 280.533 207.436 280.484 207.599 280.484C207.819 280.484 208.029 280.571 208.184 280.726C208.339 280.881 208.426 281.091 208.426 281.31Z" fill="#20094B"/>
<path d="M207.951 281.305C207.951 281.398 207.914 281.487 207.848 281.553C207.782 281.619 207.693 281.656 207.599 281.656C207.508 281.651 207.421 281.612 207.356 281.548C207.292 281.483 207.253 281.396 207.248 281.305C207.248 281.212 207.285 281.122 207.351 281.057C207.417 280.991 207.506 280.954 207.599 280.954C207.646 280.951 207.693 280.958 207.737 280.974C207.781 280.991 207.821 281.017 207.855 281.05C207.888 281.083 207.914 281.123 207.93 281.167C207.947 281.211 207.954 281.258 207.951 281.305Z" fill="white"/>
<path d="M204.375 280.313C204.259 280.427 204.111 280.504 203.951 280.535C203.791 280.566 203.626 280.549 203.475 280.486C203.325 280.423 203.196 280.317 203.106 280.182C203.016 280.046 202.968 279.887 202.968 279.724C202.968 279.562 203.016 279.402 203.106 279.267C203.196 279.131 203.325 279.025 203.475 278.963C203.626 278.9 203.791 278.883 203.951 278.913C204.111 278.944 204.259 279.022 204.375 279.136C204.523 279.296 204.605 279.506 204.605 279.724C204.605 279.942 204.523 280.153 204.375 280.313Z" fill="#20094B"/>
<path d="M204.044 279.961C203.974 280.028 203.882 280.065 203.785 280.065C203.689 280.065 203.596 280.028 203.527 279.961C203.466 279.893 203.432 279.805 203.432 279.713C203.432 279.622 203.466 279.534 203.527 279.466C203.6 279.407 203.691 279.375 203.785 279.375C203.879 279.375 203.97 279.407 204.044 279.466C204.105 279.534 204.138 279.622 204.138 279.713C204.138 279.805 204.105 279.893 204.044 279.961Z" fill="white"/>
<path d="M202.204 276.725C202.097 276.728 201.99 276.709 201.889 276.67C201.789 276.63 201.698 276.572 201.621 276.496C201.544 276.421 201.483 276.332 201.441 276.233C201.399 276.134 201.377 276.027 201.377 275.92C201.377 275.701 201.465 275.491 201.62 275.336C201.775 275.181 201.985 275.094 202.204 275.094C202.424 275.094 202.634 275.181 202.789 275.336C202.944 275.491 203.031 275.701 203.031 275.92C203.031 276.027 203.01 276.134 202.968 276.233C202.926 276.332 202.865 276.421 202.788 276.496C202.711 276.572 202.619 276.63 202.519 276.67C202.419 276.709 202.312 276.728 202.204 276.725Z" fill="#20094B"/>
<path d="M202.183 276.249C202.378 276.249 202.535 276.092 202.535 275.898C202.535 275.704 202.378 275.547 202.183 275.547C201.989 275.547 201.832 275.704 201.832 275.898C201.832 276.092 201.989 276.249 202.183 276.249Z" fill="white"/>
<path d="M203.196 272.676C203.045 272.522 202.96 272.314 202.96 272.098C202.96 271.882 203.045 271.674 203.196 271.52C203.273 271.442 203.365 271.38 203.466 271.338C203.567 271.295 203.676 271.273 203.785 271.273C203.895 271.273 204.004 271.295 204.105 271.338C204.206 271.38 204.298 271.442 204.375 271.52C204.526 271.674 204.611 271.882 204.611 272.098C204.611 272.314 204.526 272.522 204.375 272.676C204.298 272.754 204.206 272.816 204.105 272.858C204.004 272.901 203.895 272.923 203.785 272.923C203.676 272.923 203.567 272.901 203.466 272.858C203.365 272.816 203.273 272.754 203.196 272.676Z" fill="#20094B"/>
<path d="M203.444 272.342C203.383 272.274 203.35 272.186 203.35 272.094C203.35 272.003 203.383 271.915 203.444 271.846C203.514 271.78 203.606 271.742 203.703 271.742C203.799 271.742 203.892 271.78 203.961 271.846C204.022 271.915 204.056 272.003 204.056 272.094C204.056 272.186 204.022 272.274 203.961 272.342C203.892 272.409 203.799 272.446 203.703 272.446C203.606 272.446 203.514 272.409 203.444 272.342Z" fill="white"/>
<path d="M94.0738 303.772C109.486 303.772 121.98 291.293 121.98 275.898C121.98 260.503 109.486 248.023 94.0738 248.023C78.6619 248.023 66.168 260.503 66.168 275.898C66.168 291.293 78.6619 303.772 94.0738 303.772Z" fill="#423890"/>
<path d="M94.0947 248.453C99.5322 248.453 104.848 250.064 109.369 253.081C113.89 256.099 117.414 260.388 119.494 265.406C121.575 270.424 122.12 275.945 121.059 281.272C119.998 286.599 117.38 291.492 113.535 295.333C109.69 299.173 104.791 301.789 99.4583 302.849C94.1252 303.908 88.5974 303.364 83.5738 301.286C78.5503 299.207 74.2565 295.688 71.2356 291.172C68.2147 286.656 66.6023 281.346 66.6023 275.915C66.5995 272.308 67.3089 268.735 68.6895 265.402C70.0702 262.069 72.0952 259.041 74.6486 256.49C77.2021 253.94 80.2338 251.917 83.5706 250.538C86.9073 249.159 90.4836 248.45 94.0947 248.453ZM94.0947 247.586C88.4846 247.582 82.9994 249.24 78.3328 252.35C73.6662 255.46 70.0279 259.883 67.8782 265.059C65.7285 270.235 65.1638 275.932 66.2558 281.429C67.3478 286.925 70.0473 291.975 74.0127 295.939C77.9782 299.903 83.0316 302.603 88.5336 303.698C94.0355 304.792 99.7391 304.233 104.923 302.089C110.106 299.945 114.536 296.315 117.654 291.655C120.771 286.996 122.435 281.518 122.435 275.915C122.429 268.407 119.442 261.207 114.129 255.897C108.816 250.586 101.611 247.597 94.0947 247.586Z" fill="#20094B"/>
<path d="M94.0947 251.406C98.7546 251.406 103.318 252.729 107.253 255.223C111.188 257.716 114.331 261.277 116.316 265.488" stroke="#20094B" stroke-width="0.57" stroke-linecap="round" stroke-linejoin="round"/>
<path d="M87.873 299.659C82.6158 298.285 77.9628 295.209 74.6416 290.913C71.3204 286.617 69.5183 281.342 69.5171 275.914" stroke="#20094B" stroke-width="0.57" stroke-linecap="round" stroke-linejoin="round"/>
<path d="M116.295 286.508C114.641 290.004 112.183 293.06 109.123 295.428" stroke="#20094B" stroke-width="0.57" stroke-linecap="round" stroke-linejoin="round"/>
<path d="M94.074 293.962C104.063 293.962 112.161 285.873 112.161 275.895C112.161 265.917 104.063 257.828 94.074 257.828C84.0847 257.828 75.9868 265.917 75.9868 275.895C75.9868 285.873 84.0847 293.962 94.074 293.962Z" fill="white"/>
<path d="M94.0946 258.281C97.586 258.281 100.999 259.315 103.902 261.253C106.805 263.191 109.068 265.945 110.404 269.167C111.74 272.389 112.09 275.934 111.408 279.355C110.727 282.775 109.046 285.917 106.577 288.383C104.108 290.849 100.963 292.528 97.5385 293.209C94.1142 293.889 90.5648 293.54 87.3391 292.205C84.1135 290.871 81.3564 288.611 79.4167 285.711C77.4769 282.811 76.4416 279.402 76.4416 275.914C76.4416 271.238 78.3014 266.753 81.612 263.446C84.9226 260.139 89.4127 258.281 94.0946 258.281ZM94.0946 257.414C90.4151 257.414 86.8182 258.504 83.7588 260.546C80.6994 262.588 78.3149 265.49 76.9069 268.886C75.4988 272.281 75.1304 276.018 75.8482 279.622C76.566 283.227 78.3378 286.538 80.9396 289.137C83.5414 291.736 86.8563 293.506 90.4652 294.223C94.074 294.94 97.8146 294.572 101.214 293.166C104.613 291.759 107.519 289.377 109.563 286.321C111.607 283.265 112.698 279.672 112.698 275.997C112.698 271.069 110.739 266.342 107.25 262.857C103.761 259.372 99.0286 257.414 94.0946 257.414Z" fill="#20094B"/>
<path d="M100.42 268.57L105.154 265.845C105.443 265.682 105.689 265.451 105.87 265.173C106.052 264.896 106.163 264.578 106.196 264.248C106.228 263.918 106.18 263.584 106.057 263.277C105.933 262.969 105.736 262.695 105.484 262.479C103.879 261.106 102.037 260.035 100.048 259.32C99.7269 259.207 99.383 259.175 99.0468 259.227C98.7105 259.279 98.3922 259.413 98.1202 259.618C97.8482 259.822 97.6309 260.09 97.4876 260.398C97.3443 260.707 97.2795 261.045 97.2987 261.385V266.836C97.306 267.197 97.4078 267.549 97.5941 267.859C97.7804 268.168 98.0446 268.423 98.3604 268.599C98.6762 268.774 99.0327 268.864 99.3941 268.859C99.7555 268.854 100.109 268.754 100.42 268.57Z" fill="#20094B"/>
<path d="M108.358 280.437C108.643 280.605 108.964 280.702 109.294 280.721C109.625 280.739 109.954 280.678 110.256 280.542C110.558 280.407 110.823 280.201 111.029 279.942C111.234 279.683 111.374 279.378 111.438 279.054C111.851 276.975 111.851 274.835 111.438 272.756C111.374 272.432 111.234 272.127 111.029 271.868C110.823 271.609 110.558 271.403 110.256 271.268C109.954 271.132 109.625 271.071 109.294 271.089C108.964 271.107 108.643 271.205 108.358 271.373L103.624 274.119C103.301 274.297 103.032 274.559 102.844 274.877C102.656 275.195 102.558 275.557 102.558 275.926C102.558 276.294 102.656 276.657 102.844 276.974C103.032 277.292 103.301 277.554 103.624 277.732L108.358 280.437Z" fill="#20094B"/>
<path d="M90.8908 266.75V261.299C90.9114 260.957 90.8467 260.615 90.7023 260.305C90.5579 259.994 90.3385 259.724 90.0638 259.519C89.789 259.315 89.4677 259.181 89.1285 259.131C88.7894 259.082 88.4431 259.117 88.121 259.234C86.1322 259.949 84.2901 261.02 82.6845 262.393C82.4324 262.609 82.2361 262.882 82.1123 263.19C81.9885 263.498 81.9408 263.831 81.9733 264.162C82.0057 264.492 82.1173 264.809 82.2986 265.087C82.48 265.365 82.7258 265.596 83.0151 265.758L87.7489 268.484C88.0602 268.673 88.416 268.777 88.7804 268.785C89.1448 268.792 89.5048 268.704 89.8238 268.528C90.1428 268.352 90.4094 268.094 90.5968 267.782C90.7842 267.47 90.8857 267.114 90.8908 266.75Z" fill="#20094B"/>
<path d="M87.6869 283.247L82.9533 285.972C82.6599 286.134 82.4104 286.365 82.2263 286.645C82.0422 286.925 81.929 287.245 81.8965 287.579C81.8639 287.912 81.913 288.248 82.0394 288.558C82.1659 288.868 82.366 289.143 82.6225 289.359C84.2343 290.718 86.0751 291.781 88.0589 292.497C88.3811 292.614 88.7273 292.649 89.0665 292.599C89.4057 292.55 89.727 292.416 90.0018 292.211C90.2765 292.007 90.496 291.737 90.6404 291.426C90.7848 291.116 90.8496 290.774 90.8289 290.432V285.064C90.8386 284.693 90.7479 284.326 90.5665 284.002C90.3851 283.678 90.1197 283.409 89.7981 283.223C89.4766 283.037 89.1108 282.941 88.7392 282.945C88.3677 282.95 88.0042 283.054 87.6869 283.247Z" fill="#20094B"/>
<path d="M97.2987 285.062V290.513C97.2795 290.853 97.3443 291.192 97.4876 291.5C97.6309 291.808 97.8482 292.076 98.1202 292.281C98.3922 292.485 98.7105 292.619 99.0468 292.671C99.383 292.723 99.7269 292.691 100.048 292.578C102.032 291.862 103.872 290.799 105.484 289.44C105.741 289.224 105.941 288.949 106.067 288.639C106.194 288.329 106.243 287.993 106.21 287.66C106.178 287.326 106.065 287.006 105.881 286.726C105.696 286.447 105.447 286.216 105.154 286.054L100.42 283.328C100.109 283.144 99.7555 283.044 99.3941 283.039C99.0327 283.034 98.6762 283.124 98.3604 283.299C98.0446 283.475 97.7804 283.73 97.5941 284.039C97.4078 284.349 97.306 284.701 97.2987 285.062Z" fill="#20094B"/>
<path d="M79.8111 271.373C79.5262 271.205 79.205 271.107 78.8746 271.089C78.5442 271.071 78.2142 271.132 77.9124 271.268C77.6106 271.403 77.3457 271.609 77.1402 271.868C76.9346 272.127 76.7944 272.432 76.7311 272.756C76.3455 274.838 76.3455 276.972 76.7311 279.054C76.7944 279.378 76.9346 279.683 77.1402 279.942C77.3457 280.201 77.6106 280.407 77.9124 280.542C78.2142 280.678 78.5442 280.739 78.8746 280.721C79.205 280.702 79.5262 280.605 79.8111 280.437L84.5447 277.712C84.8678 277.533 85.1371 277.271 85.3247 276.954C85.5122 276.636 85.6111 276.274 85.6111 275.905C85.6111 275.536 85.5122 275.174 85.3247 274.856C85.1371 274.539 84.8678 274.277 84.5447 274.098L79.8111 271.373Z" fill="#20094B"/>
<path d="M94.0947 284.711C92.3472 284.715 90.6379 284.201 89.1832 283.234C87.7285 282.267 86.5941 280.89 85.9235 279.278C85.2528 277.666 85.0762 275.892 85.4161 274.18C85.7561 272.468 86.5972 270.895 87.8328 269.66C89.0685 268.426 90.6431 267.586 92.3572 267.247C94.0713 266.907 95.8478 267.083 97.4614 267.753C99.0751 268.423 100.453 269.556 101.422 271.009C102.39 272.462 102.905 274.17 102.901 275.915C102.895 278.247 101.966 280.481 100.315 282.129C98.6652 283.777 96.4285 284.706 94.0947 284.711Z" fill="white"/>
<path d="M94.0947 267.531C95.7545 267.531 97.3771 268.023 98.7573 268.944C100.137 269.865 101.213 271.174 101.848 272.706C102.484 274.238 102.65 275.924 102.326 277.55C102.002 279.176 101.203 280.67 100.029 281.842C98.8553 283.014 97.36 283.813 95.7321 284.136C94.1041 284.46 92.4166 284.294 90.8831 283.659C89.3496 283.025 88.0389 281.95 87.1167 280.572C86.1945 279.193 85.7022 277.572 85.7022 275.914C85.7022 273.691 86.5865 271.559 88.1603 269.987C89.7342 268.414 91.8689 267.531 94.0947 267.531ZM94.0947 266.664C92.2622 266.66 90.4698 267.199 88.9442 268.213C87.4186 269.227 86.2284 270.67 85.5244 272.36C84.8203 274.05 84.6339 275.91 84.9889 277.706C85.3439 279.502 86.2242 281.152 87.5185 282.448C88.8128 283.744 90.4629 284.627 92.2598 284.985C94.0568 285.344 95.9198 285.162 97.6132 284.462C99.3066 283.763 100.754 282.577 101.773 281.056C102.791 279.534 103.335 277.745 103.335 275.914C103.329 273.466 102.355 271.12 100.624 269.387C98.8926 267.654 96.5455 266.675 94.0947 266.664Z" fill="#20094B"/>
<path d="M94.0741 279.096C95.8436 279.096 97.2781 277.663 97.2781 275.896C97.2781 274.128 95.8436 272.695 94.0741 272.695C92.3046 272.695 90.8701 274.128 90.8701 275.896C90.8701 277.663 92.3046 279.096 94.0741 279.096Z" fill="#20094B"/>
<path d="M93.2681 270.509C93.268 270.401 93.2895 270.295 93.3313 270.196C93.3731 270.097 93.4344 270.007 93.5114 269.932C93.5885 269.857 93.6798 269.798 93.78 269.759C93.8803 269.719 93.9872 269.701 94.0948 269.703C94.2015 269.701 94.3076 269.719 94.4067 269.759C94.5058 269.798 94.5958 269.858 94.6713 269.933C94.7467 270.008 94.806 270.098 94.8455 270.197C94.885 270.296 94.9039 270.402 94.901 270.509C94.9038 270.616 94.885 270.723 94.8458 270.823C94.8065 270.923 94.7476 271.015 94.6724 271.091C94.5973 271.168 94.5074 271.23 94.4082 271.271C94.309 271.313 94.2025 271.335 94.0948 271.335C93.8755 271.335 93.6652 271.248 93.5102 271.093C93.3551 270.938 93.2681 270.728 93.2681 270.509Z" fill="#20094B"/>
<path d="M93.7433 270.507C93.7433 270.461 93.7524 270.416 93.77 270.373C93.7877 270.33 93.8136 270.292 93.8462 270.259C93.8789 270.226 93.9177 270.201 93.9603 270.183C94.0029 270.165 94.0485 270.156 94.0947 270.156C94.1862 270.161 94.2728 270.2 94.3377 270.265C94.4025 270.329 94.4412 270.416 94.4462 270.507C94.4463 270.602 94.41 270.694 94.3446 270.763C94.2792 270.832 94.1897 270.874 94.0947 270.879C94.0467 270.879 93.9993 270.869 93.9552 270.85C93.9112 270.831 93.8716 270.804 93.8387 270.769C93.8057 270.734 93.7802 270.693 93.7638 270.648C93.7475 270.603 93.7405 270.555 93.7433 270.507Z" fill="white"/>
<path d="M97.3193 271.521C97.4343 271.404 97.5816 271.324 97.7425 271.291C97.9033 271.257 98.0704 271.273 98.2224 271.335C98.3745 271.397 98.5047 271.503 98.5962 271.639C98.6878 271.775 98.7367 271.935 98.7367 272.099C98.7367 272.263 98.6878 272.424 98.5962 272.56C98.5047 272.696 98.3745 272.802 98.2224 272.864C98.0704 272.926 97.9033 272.941 97.7425 272.908C97.5816 272.875 97.4343 272.795 97.3193 272.677C97.1678 272.523 97.083 272.315 97.083 272.099C97.083 271.883 97.1678 271.676 97.3193 271.521Z" fill="#20094B"/>
<path d="M97.6499 271.853C97.699 271.804 97.7616 271.77 97.8298 271.757C97.898 271.743 97.9687 271.75 98.033 271.777C98.0972 271.803 98.1523 271.848 98.1909 271.906C98.2296 271.964 98.2502 272.032 98.2502 272.101C98.2502 272.17 98.2296 272.238 98.1909 272.296C98.1523 272.354 98.0972 272.399 98.033 272.425C97.9687 272.452 97.898 272.459 97.8298 272.445C97.7616 272.432 97.699 272.398 97.6499 272.349C97.5889 272.281 97.5552 272.192 97.5552 272.101C97.5552 272.01 97.5889 271.921 97.6499 271.853Z" fill="white"/>
<path d="M99.49 275.094C99.7093 275.094 99.9196 275.181 100.075 275.336C100.23 275.491 100.317 275.701 100.317 275.92C100.317 276.139 100.23 276.349 100.075 276.504C99.9196 276.659 99.7093 276.746 99.49 276.746C99.2707 276.746 99.0604 276.659 98.9053 276.504C98.7503 276.349 98.6631 276.139 98.6631 275.92C98.6631 275.701 98.7503 275.491 98.9053 275.336C99.0604 275.181 99.2707 275.094 99.49 275.094Z" fill="#20094B"/>
<path d="M99.4691 276.249C99.6632 276.249 99.8205 276.092 99.8205 275.898C99.8205 275.704 99.6632 275.547 99.4691 275.547C99.275 275.547 99.1177 275.704 99.1177 275.898C99.1177 276.092 99.275 276.249 99.4691 276.249Z" fill="white"/>
<path d="M98.4975 279.136C98.6118 279.252 98.6894 279.4 98.7203 279.559C98.7511 279.719 98.734 279.885 98.6711 280.035C98.6081 280.185 98.5021 280.313 98.3664 280.404C98.2307 280.494 98.0714 280.542 97.9084 280.542C97.7454 280.542 97.586 280.494 97.4503 280.404C97.3146 280.313 97.2087 280.185 97.1457 280.035C97.0828 279.885 97.0656 279.719 97.0965 279.559C97.1274 279.4 97.2048 279.252 97.3192 279.136C97.4796 278.988 97.69 278.906 97.9084 278.906C98.1268 278.906 98.3371 278.988 98.4975 279.136Z" fill="#20094B"/>
<path d="M98.1463 279.471C98.1821 279.503 98.2111 279.542 98.2314 279.585C98.2516 279.629 98.2628 279.676 98.2642 279.723C98.2656 279.771 98.2571 279.819 98.2394 279.863C98.2218 279.908 98.1952 279.948 98.1613 279.982C98.1275 280.016 98.0871 280.042 98.0426 280.06C97.9981 280.078 97.9504 280.086 97.9026 280.085C97.8547 280.083 97.8076 280.072 97.7642 280.052C97.7208 280.032 97.6821 280.003 97.6502 279.967C97.5907 279.9 97.559 279.813 97.5617 279.723C97.5643 279.634 97.601 279.549 97.6644 279.486C97.7277 279.422 97.813 279.386 97.9026 279.383C97.9922 279.38 98.0793 279.412 98.1463 279.471Z" fill="white"/>
<path d="M94.901 281.31C94.9038 281.418 94.885 281.525 94.8458 281.625C94.8065 281.725 94.7476 281.816 94.6724 281.893C94.5973 281.97 94.5074 282.031 94.4082 282.073C94.309 282.115 94.2025 282.136 94.0948 282.136C93.8755 282.136 93.6652 282.049 93.5102 281.894C93.3551 281.739 93.2681 281.529 93.2681 281.31C93.2681 281.091 93.3551 280.881 93.5102 280.726C93.6652 280.571 93.8755 280.484 94.0948 280.484C94.2025 280.484 94.309 280.506 94.4082 280.548C94.5074 280.589 94.5973 280.651 94.6724 280.728C94.7476 280.805 94.8065 280.896 94.8458 280.996C94.885 281.096 94.9038 281.203 94.901 281.31Z" fill="#20094B"/>
<path d="M94.4462 281.305C94.4413 281.396 94.4026 281.483 94.3377 281.548C94.2729 281.612 94.1863 281.651 94.0947 281.656C94.0015 281.656 93.9122 281.619 93.8463 281.553C93.7804 281.487 93.7434 281.398 93.7434 281.305C93.7403 281.258 93.7473 281.211 93.7639 281.167C93.7805 281.123 93.8062 281.083 93.8395 281.05C93.8728 281.017 93.9128 280.991 93.9568 280.974C94.0009 280.958 94.0478 280.951 94.0947 280.954C94.1879 280.954 94.2774 280.991 94.3433 281.057C94.4092 281.122 94.4462 281.212 94.4462 281.305Z" fill="white"/>
<path d="M90.8492 280.311C90.6946 280.463 90.4868 280.548 90.2703 280.548C90.0539 280.548 89.846 280.463 89.6915 280.311C89.6134 280.235 89.5514 280.143 89.509 280.042C89.4667 279.941 89.4448 279.833 89.4448 279.723C89.4448 279.613 89.4667 279.505 89.509 279.404C89.5514 279.303 89.6134 279.211 89.6915 279.135C89.846 278.983 90.0539 278.898 90.2703 278.898C90.4868 278.898 90.6946 278.983 90.8492 279.135C90.9273 279.211 90.9893 279.303 91.0316 279.404C91.074 279.505 91.0958 279.613 91.0958 279.723C91.0958 279.833 91.074 279.941 91.0316 280.042C90.9893 280.143 90.9273 280.235 90.8492 280.311Z" fill="#20094B"/>
<path d="M90.5184 279.965C90.4514 280.025 90.3642 280.056 90.2746 280.054C90.1851 280.051 90.0998 280.014 90.0364 279.951C89.9731 279.888 89.9364 279.803 89.9337 279.713C89.9311 279.624 89.9628 279.537 90.0223 279.47C90.0905 279.409 90.1788 279.375 90.2704 279.375C90.3619 279.375 90.4502 279.409 90.5184 279.47C90.5536 279.501 90.5817 279.539 90.601 279.581C90.6203 279.624 90.6304 279.671 90.6304 279.717C90.6304 279.764 90.6203 279.811 90.601 279.853C90.5817 279.896 90.5536 279.934 90.5184 279.965Z" fill="white"/>
<path d="M88.6789 276.725C88.5723 276.728 88.4663 276.709 88.3672 276.669C88.2681 276.63 88.178 276.571 88.1026 276.495C88.0272 276.42 87.9679 276.33 87.9284 276.231C87.8888 276.132 87.87 276.026 87.8728 275.92C87.8701 275.812 87.8888 275.705 87.9281 275.605C87.9674 275.505 88.0263 275.414 88.1015 275.337C88.1766 275.26 88.2665 275.199 88.3656 275.157C88.4648 275.115 88.5713 275.094 88.6789 275.094C88.8982 275.094 89.1085 275.181 89.2636 275.336C89.4186 275.491 89.5058 275.701 89.5058 275.92C89.5058 276.027 89.4843 276.134 89.4425 276.233C89.4007 276.332 89.3395 276.421 89.2624 276.496C89.1854 276.572 89.094 276.63 88.9938 276.67C88.8936 276.709 88.7865 276.728 88.6789 276.725Z" fill="#20094B"/>
<path d="M88.679 276.249C88.8731 276.249 89.0305 276.092 89.0305 275.898C89.0305 275.704 88.8731 275.547 88.679 275.547C88.485 275.547 88.3276 275.704 88.3276 275.898C88.3276 276.092 88.485 276.249 88.679 276.249Z" fill="white"/>
<path d="M89.7539 272.674C89.6366 272.559 89.5563 272.412 89.523 272.251C89.4898 272.09 89.5051 271.923 89.5672 271.771C89.6293 271.62 89.7353 271.49 89.8716 271.398C90.0079 271.307 90.1685 271.258 90.3327 271.258C90.497 271.258 90.6574 271.307 90.7937 271.398C90.9301 271.49 91.0361 271.62 91.0982 271.771C91.1603 271.923 91.1756 272.09 91.1423 272.251C91.1091 272.412 91.0287 272.559 90.9115 272.674C90.8363 272.751 90.7463 272.812 90.6469 272.855C90.5475 272.897 90.4407 272.918 90.3327 272.918C90.2248 272.918 90.1179 272.897 90.0185 272.855C89.919 272.812 89.829 272.751 89.7539 272.674Z" fill="#20094B"/>
<path d="M90.0223 272.342C89.973 272.293 89.9394 272.23 89.9258 272.162C89.9121 272.094 89.919 272.023 89.9456 271.959C89.9722 271.895 90.0172 271.84 90.075 271.801C90.1329 271.763 90.2008 271.742 90.2703 271.742C90.3399 271.742 90.4078 271.763 90.4656 271.801C90.5235 271.84 90.5685 271.895 90.5951 271.959C90.6217 272.023 90.6286 272.094 90.6149 272.162C90.6012 272.23 90.5677 272.293 90.5184 272.342C90.4873 272.377 90.4492 272.405 90.4065 272.424C90.3637 272.444 90.3173 272.454 90.2703 272.454C90.2234 272.454 90.177 272.444 90.1342 272.424C90.0914 272.405 90.0533 272.377 90.0223 272.342Z" fill="white"/>
<path d="M180.086 255.183C178.639 254.959 177.318 254.231 176.357 253.127C175.396 252.024 174.857 250.616 174.835 249.154V155.702C174.835 154.059 175.489 152.484 176.652 151.322C177.815 150.16 179.392 149.508 181.037 149.508H232.198C260.662 149.508 276.806 211.596 277.467 214.239C277.5 214.337 277.492 214.445 277.446 214.538C277.399 214.63 277.318 214.701 277.219 214.734L207.31 244.178H207.144H196.251C192.875 244.165 189.575 245.175 186.786 247.073C183.996 248.971 181.847 251.669 180.623 254.811C180.591 254.895 180.534 254.967 180.461 255.019C180.387 255.07 180.3 255.099 180.21 255.101L180.086 255.183Z" fill="white"/>
<path d="M232.136 150.008C260.6 150.008 276.992 214.408 276.992 214.408L207.083 243.852H196.189C192.726 243.85 189.342 244.891 186.481 246.84C183.619 248.789 181.412 251.554 180.148 254.775C178.797 254.577 177.561 253.901 176.666 252.871C175.771 251.84 175.275 250.523 175.27 249.158V155.707C175.27 154.195 175.871 152.746 176.941 151.677C178.011 150.608 179.462 150.008 180.975 150.008H232.136ZM232.136 149.141H180.975C179.232 149.141 177.56 149.832 176.327 151.064C175.094 152.295 174.402 153.965 174.402 155.707V249.158C174.41 250.729 174.982 252.245 176.013 253.431C177.045 254.617 178.468 255.394 180.024 255.621H180.148C180.325 255.616 180.496 255.561 180.643 255.463C180.789 255.364 180.905 255.225 180.975 255.064C182.172 252.011 184.266 249.391 186.981 247.548C189.697 245.705 192.906 244.727 196.189 244.74H207.083C207.192 244.762 207.304 244.762 207.413 244.74L277.323 215.296C277.526 215.217 277.693 215.066 277.793 214.872C277.892 214.678 277.916 214.454 277.86 214.243C277.178 211.579 260.951 149.182 232.157 149.182L232.136 149.141Z" fill="#20094B"/>
<path d="M188.107 216.307C187.991 216.307 187.881 216.261 187.8 216.18C187.718 216.099 187.672 215.988 187.672 215.874V160.537C187.672 159.338 188.149 158.188 188.998 157.34C189.847 156.492 190.999 156.016 192.199 156.016H231.578C249.396 156.016 268.785 198.344 268.785 212.487V215.894C268.785 216.009 268.74 216.119 268.658 216.201C268.577 216.282 268.467 216.328 268.351 216.328L188.107 216.307Z" fill="#F0EFFD"/>
<path d="M231.578 156.426C248.9 156.426 268.269 198.238 268.269 212.444V215.851H188.107V160.515C188.107 159.419 188.542 158.369 189.317 157.595C190.093 156.82 191.144 156.385 192.241 156.385H231.619M231.619 155.497H192.199C191.547 155.494 190.901 155.621 190.298 155.869C189.695 156.117 189.147 156.482 188.685 156.943C188.224 157.403 187.859 157.951 187.61 158.553C187.362 159.156 187.236 159.801 187.238 160.453V215.809C187.238 216.039 187.33 216.26 187.493 216.423C187.655 216.585 187.876 216.677 188.107 216.677H268.269C268.499 216.677 268.72 216.585 268.883 216.423C269.046 216.26 269.137 216.039 269.137 215.809V212.382C269.137 198.135 249.603 155.477 231.578 155.477L231.619 155.497Z" fill="#20094B"/>
<path d="M245.53 164.047L213.78 213.973H228.25L250.119 169.353C248.703 167.49 247.17 165.718 245.53 164.047Z" fill="white"/>
<path d="M235.898 157.172L199.083 207.429L208.509 211.001L242.844 161.446C240.798 159.624 238.447 158.177 235.898 157.172Z" fill="white"/>
<path d="M253.282 219.011C253.219 219.014 253.157 219.002 253.1 218.977C253.043 218.952 252.992 218.914 252.951 218.867C252.909 218.824 252.877 218.772 252.859 218.714C252.841 218.657 252.837 218.596 252.848 218.537L256.775 180.4C256.782 180.308 256.817 180.22 256.876 180.15C256.936 180.079 257.016 180.03 257.106 180.008C257.183 180.01 257.257 180.031 257.323 180.071C257.388 180.111 257.442 180.168 257.478 180.235C264.031 192.045 268.599 205.26 268.599 212.363V218.557C268.599 218.614 268.588 218.671 268.566 218.723C268.544 218.776 268.512 218.824 268.472 218.864C268.432 218.904 268.384 218.936 268.331 218.958C268.279 218.98 268.222 218.991 268.165 218.991L253.282 219.011Z" fill="#3E32A1"/>
<path d="M257.189 180.44C263.762 192.312 268.248 205.527 268.248 212.361V218.556H253.262L257.189 180.398M257.189 179.531H257.003C256.82 179.563 256.653 179.656 256.529 179.795C256.405 179.934 256.332 180.11 256.321 180.295L252.393 218.432C252.383 218.555 252.398 218.679 252.437 218.796C252.476 218.913 252.538 219.021 252.621 219.113C252.701 219.204 252.799 219.277 252.91 219.327C253.02 219.377 253.14 219.403 253.262 219.402H268.248C268.478 219.402 268.699 219.311 268.862 219.148C269.025 218.985 269.116 218.765 269.116 218.535V212.341C269.116 205.176 264.527 191.879 257.954 180.006C257.879 179.869 257.769 179.754 257.634 179.674C257.5 179.594 257.346 179.552 257.189 179.552V179.531Z" fill="#20094B"/>
<path d="M161.73 255.288C161.615 255.288 161.505 255.242 161.423 255.161C161.342 255.079 161.296 254.969 161.296 254.854V156.137C161.246 155.245 161.378 154.353 161.686 153.514C161.993 152.675 162.468 151.907 163.082 151.258C163.697 150.609 164.437 150.092 165.259 149.739C166.08 149.385 166.965 149.203 167.859 149.203C168.753 149.203 169.638 149.385 170.46 149.739C171.281 150.092 172.021 150.609 172.636 151.258C173.25 151.907 173.725 152.675 174.032 153.514C174.34 154.353 174.472 155.245 174.422 156.137V254.854C174.422 254.969 174.376 255.079 174.295 255.161C174.214 255.242 174.103 255.288 173.988 255.288H161.73Z" fill="#423890"/>
<path d="M167.849 150.007C169.494 150.007 171.071 150.66 172.234 151.822C173.397 152.983 174.05 154.559 174.05 156.202V254.919H161.792V156.14C161.792 154.497 162.446 152.921 163.609 151.76C164.772 150.598 166.349 149.945 167.994 149.945M167.994 149.078C166.139 149.084 164.362 149.823 163.052 151.136C161.742 152.448 161.007 154.225 161.007 156.078V254.795C161.007 255.025 161.098 255.245 161.261 255.408C161.424 255.571 161.645 255.662 161.875 255.662H174.133C174.363 255.662 174.584 255.571 174.747 255.408C174.91 255.245 175.001 255.025 175.001 254.795V156.14C175.001 154.283 174.263 152.503 172.949 151.19C171.635 149.878 169.852 149.14 167.994 149.14V149.078Z" fill="#20094B"/>
<path d="M53.2077 271.766C51.6304 271.761 50.1193 271.133 49.0041 270.019C47.8888 268.905 47.2598 267.395 47.2544 265.82V229.046C47.344 227.527 48.0113 226.099 49.1199 225.055C50.2284 224.011 51.6944 223.43 53.218 223.43C54.7416 223.43 56.2076 224.011 57.3161 225.055C58.4247 226.099 59.092 227.527 59.1816 229.046V265.861C59.1653 267.433 58.5287 268.935 57.4101 270.04C56.2916 271.146 54.7814 271.766 53.2077 271.766Z" fill="white"/>
<path d="M53.2072 223.531C54.6729 223.531 56.0789 224.111 57.1172 225.145C58.1556 226.178 58.7416 227.58 58.747 229.044V265.859C58.6609 267.266 58.0408 268.586 57.0133 269.552C55.9858 270.517 54.6283 271.055 53.2176 271.055C51.8069 271.055 50.4493 270.517 49.4217 269.552C48.3942 268.586 47.7742 267.266 47.6881 265.859V229.044C47.6935 227.584 48.2767 226.185 49.3106 225.152C50.3445 224.119 51.7451 223.537 53.2072 223.531ZM53.2072 222.664C51.5149 222.67 49.8933 223.343 48.6967 224.539C47.5 225.734 46.8253 227.354 46.8198 229.044V265.859C46.9127 267.491 47.6273 269.026 48.8169 270.149C50.0065 271.271 51.581 271.897 53.2176 271.897C54.8541 271.897 56.4286 271.271 57.6182 270.149C58.8078 269.026 59.5223 267.491 59.6152 265.859V229.044C59.6097 227.35 58.9322 225.727 57.731 224.532C56.5299 223.336 54.9032 222.664 53.2072 222.664Z" fill="#20094B"/>
<path d="M123.489 288.124C123.374 288.124 123.264 288.078 123.182 287.997C123.101 287.916 123.055 287.805 123.055 287.69V260.249C123.049 255.678 121.229 251.296 117.994 248.064C114.758 244.832 110.371 243.014 105.795 243.008H82.3744C77.8019 243.019 73.4202 244.84 70.1889 248.072C66.9576 251.303 65.1403 255.682 65.1348 260.249V287.67C65.1329 287.728 65.1191 287.786 65.0942 287.839C65.0693 287.893 65.034 287.94 64.9901 287.979C64.9138 288.057 64.8097 288.102 64.7007 288.103C60.7429 288.001 56.9803 286.364 54.21 283.539C51.4396 280.714 49.8791 276.923 49.8589 272.968V222.505C49.8643 220.048 50.8439 217.693 52.5833 215.956C54.3227 214.218 56.6803 213.24 59.1402 213.234H175.291C175.404 213.239 175.512 213.287 175.592 213.367C175.672 213.447 175.72 213.555 175.725 213.668V287.711C175.72 287.824 175.672 287.932 175.592 288.012C175.512 288.092 175.404 288.139 175.291 288.145L123.489 288.124Z" fill="white"/>
<path d="M175.27 213.664V287.686H123.592V260.245C123.592 255.558 121.728 251.062 118.41 247.748C115.091 244.433 110.591 242.571 105.898 242.571H82.3741C80.0514 242.571 77.7516 243.028 75.6059 243.917C73.4603 244.805 71.511 246.107 69.8696 247.749C68.2281 249.39 66.9268 251.339 66.0398 253.483C65.1528 255.628 64.6977 257.925 64.7004 260.245V287.666C60.8402 287.601 57.16 286.023 54.4533 283.273C51.7467 280.523 50.2302 276.821 50.2307 272.964V222.501C50.2362 220.161 51.1706 217.919 52.8292 216.266C54.4878 214.613 56.735 213.685 59.0778 213.685H175.228M175.228 212.818H59.1192C56.5461 212.818 54.0781 213.837 52.2567 215.653C50.4353 217.468 49.4093 219.931 49.4038 222.501V272.985C49.4292 277.053 51.0373 280.952 53.888 283.857C56.7387 286.762 60.6086 288.446 64.6797 288.554C64.7912 288.555 64.9018 288.533 65.0049 288.491C65.1079 288.448 65.2011 288.385 65.2791 288.306C65.4469 288.143 65.5434 287.92 65.5479 287.686V260.245C65.5533 255.793 67.325 251.524 70.4749 248.374C73.6248 245.224 77.8961 243.449 82.3534 243.438H105.774C110.231 243.449 114.502 245.224 117.652 248.374C120.802 251.524 122.574 255.793 122.579 260.245V287.686C122.579 287.802 122.602 287.916 122.647 288.023C122.692 288.13 122.758 288.226 122.841 288.307C122.924 288.388 123.022 288.451 123.129 288.494C123.237 288.536 123.352 288.556 123.468 288.554H175.146C175.376 288.554 175.597 288.462 175.76 288.3C175.922 288.137 176.014 287.916 176.014 287.686V213.664C176.014 213.434 175.922 213.214 175.76 213.051C175.597 212.888 175.376 212.797 175.146 212.797L175.228 212.818Z" fill="#20094B"/>
<path d="M238.709 288.122C238.595 288.117 238.488 288.07 238.408 287.989C238.327 287.909 238.28 287.802 238.275 287.688V265.987C238.269 259.586 235.722 253.447 231.192 248.919C226.663 244.39 220.519 241.84 214.11 241.83H196.189C191.081 241.835 186.184 243.864 182.572 247.472C178.96 251.08 176.929 255.971 176.923 261.073V287.688C176.923 287.803 176.878 287.914 176.796 287.995C176.715 288.076 176.604 288.122 176.489 288.122H175.27C175.213 288.122 175.156 288.111 175.103 288.089C175.051 288.067 175.003 288.035 174.963 287.995C174.922 287.955 174.89 287.907 174.869 287.854C174.847 287.802 174.835 287.745 174.835 287.688V213.666C174.835 213.609 174.847 213.553 174.869 213.5C174.89 213.447 174.922 213.4 174.963 213.359C175.003 213.319 175.051 213.287 175.103 213.265C175.156 213.244 175.213 213.232 175.27 213.232H187.672V202.434C187.67 202.371 187.681 202.309 187.707 202.252C187.732 202.195 187.769 202.144 187.817 202.103C187.9 202.039 188.001 202.003 188.106 202L268.31 212.634C268.418 212.644 268.518 212.694 268.59 212.774C268.663 212.855 268.703 212.959 268.703 213.067V287.688C268.698 287.802 268.65 287.909 268.57 287.989C268.49 288.07 268.382 288.117 268.268 288.122H238.709Z" fill="white"/>
<path d="M188.107 202.43L268.269 213.063V287.685H238.709V265.984C238.704 259.467 236.111 253.218 231.5 248.608C226.889 243.998 220.635 241.403 214.111 241.392H196.189C190.968 241.403 185.963 243.48 182.271 247.168C178.579 250.855 176.501 255.854 176.49 261.07V287.685H175.27V213.662H188.107V202.43ZM188.107 201.563C187.895 201.559 187.689 201.632 187.528 201.769C187.436 201.853 187.363 201.955 187.313 202.069C187.263 202.183 187.238 202.306 187.238 202.43V212.754H175.27C175.04 212.754 174.819 212.845 174.656 213.008C174.493 213.17 174.402 213.391 174.402 213.621V287.664C174.402 287.894 174.493 288.114 174.656 288.277C174.819 288.44 175.04 288.531 175.27 288.531H176.572C176.803 288.531 177.023 288.44 177.186 288.277C177.349 288.114 177.44 287.894 177.44 287.664V261.07C177.446 256.082 179.432 251.301 182.962 247.775C186.492 244.248 191.279 242.265 196.272 242.259H214.194C220.487 242.27 226.52 244.774 230.969 249.221C235.417 253.669 237.918 259.697 237.924 265.984V287.664C237.921 287.779 237.942 287.894 237.984 288.002C238.026 288.11 238.09 288.208 238.171 288.29C238.252 288.373 238.348 288.439 238.455 288.484C238.562 288.529 238.676 288.552 238.792 288.552H268.352C268.467 288.552 268.582 288.529 268.689 288.484C268.795 288.439 268.892 288.373 268.973 288.29C269.054 288.208 269.117 288.11 269.16 288.002C269.202 287.894 269.223 287.779 269.22 287.664V213.063C269.217 212.852 269.138 212.648 268.998 212.489C268.858 212.329 268.665 212.226 268.455 212.196L188.293 201.563H188.107Z" fill="#20094B"/>
<path d="M268.269 288.121C268.154 288.121 268.043 288.075 267.962 287.994C267.88 287.913 267.835 287.802 267.835 287.687V213.066C267.832 213.004 267.844 212.942 267.869 212.885C267.894 212.827 267.932 212.777 267.979 212.736C268.062 212.672 268.164 212.636 268.269 212.633L272.775 213.232C276.253 213.248 279.583 214.638 282.039 217.098C284.494 219.559 285.875 222.89 285.881 226.364V272.759C285.875 276.828 284.256 280.729 281.377 283.608C278.499 286.487 274.596 288.11 270.522 288.121H268.269Z" fill="white"/>
<path d="M268.269 213.063L272.713 213.661C274.384 213.659 276.039 213.985 277.584 214.622C279.129 215.259 280.533 216.194 281.715 217.373C282.898 218.553 283.836 219.953 284.477 221.495C285.117 223.037 285.446 224.69 285.446 226.36V272.776C285.441 276.728 283.867 280.517 281.069 283.311C278.271 286.106 274.478 287.678 270.522 287.684H268.269V213.063ZM268.269 212.195C268.059 212.201 267.856 212.274 267.69 212.402C267.598 212.486 267.525 212.588 267.475 212.701C267.425 212.815 267.4 212.938 267.4 213.063V287.684C267.4 287.914 267.492 288.134 267.655 288.297C267.817 288.459 268.038 288.551 268.269 288.551H270.501C274.693 288.545 278.712 286.879 281.677 283.918C284.641 280.957 286.309 276.943 286.314 272.755V226.36C286.309 222.771 284.882 219.33 282.345 216.788C279.808 214.246 276.368 212.81 272.775 212.794L268.372 212.195H268.269Z" fill="#20094B"/>
<path d="M285.136 272.177C284.073 272.177 283.053 271.755 282.3 271.004C281.548 270.253 281.126 269.234 281.126 268.172V251.013C281.126 249.951 281.548 248.932 282.3 248.181C283.053 247.43 284.073 247.008 285.136 247.008H285.446C286.51 247.008 287.53 247.43 288.282 248.181C289.034 248.932 289.456 249.951 289.456 251.013V268.172C289.456 269.234 289.034 270.253 288.282 271.004C287.53 271.755 286.51 272.177 285.446 272.177H285.136Z" fill="#423890"/>
<path d="M285.446 247.445C286.395 247.445 287.304 247.822 287.975 248.492C288.646 249.161 289.022 250.07 289.022 251.017V268.176C289.017 269.121 288.638 270.027 287.969 270.696C287.299 271.364 286.393 271.742 285.446 271.748H285.136C284.667 271.748 284.202 271.655 283.768 271.476C283.334 271.296 282.94 271.033 282.607 270.702C282.275 270.37 282.012 269.976 281.832 269.543C281.653 269.109 281.56 268.645 281.56 268.176V251.017C281.557 250.548 281.648 250.082 281.827 249.647C282.006 249.213 282.269 248.818 282.601 248.485C282.934 248.153 283.329 247.89 283.764 247.712C284.2 247.533 284.666 247.443 285.136 247.445H285.446ZM285.446 246.578H285.136C283.958 246.578 282.827 247.046 281.994 247.878C281.16 248.711 280.692 249.84 280.692 251.017V268.176C280.692 269.353 281.16 270.482 281.994 271.315C282.827 272.147 283.958 272.615 285.136 272.615H285.446C286.623 272.61 287.751 272.14 288.583 271.309C289.415 270.477 289.885 269.351 289.891 268.176V251.017C289.891 249.84 289.422 248.711 288.589 247.878C287.755 247.046 286.625 246.578 285.446 246.578Z" fill="#20094B"/>
<path d="M238.709 288.118C238.596 288.113 238.488 288.066 238.408 287.986C238.327 287.905 238.28 287.798 238.275 287.685V268.668C238.28 268.555 238.327 268.447 238.408 268.367C238.488 268.287 238.596 268.239 238.709 268.234H282.676C286.074 268.24 289.33 269.59 291.733 271.99C294.135 274.39 295.487 277.642 295.492 281.036C295.487 282.913 294.738 284.711 293.41 286.038C292.081 287.365 290.281 288.113 288.402 288.118H238.709Z" fill="#423890"/>
<path d="M282.676 268.667C285.966 268.667 289.12 269.972 291.446 272.295C293.772 274.619 295.079 277.77 295.079 281.055C295.079 282.819 294.378 284.51 293.129 285.757C291.881 287.004 290.188 287.704 288.423 287.704H238.812V268.687H282.78M282.78 267.82H238.709C238.479 267.82 238.258 267.912 238.095 268.074C237.932 268.237 237.841 268.457 237.841 268.687V287.704C237.841 287.934 237.932 288.155 238.095 288.317C238.258 288.48 238.479 288.571 238.709 288.571H288.319C290.313 288.566 292.224 287.772 293.634 286.364C295.044 284.956 295.838 283.047 295.844 281.055C295.838 277.547 294.44 274.184 291.957 271.703C289.473 269.222 286.106 267.826 282.594 267.82H282.78Z" fill="#20094B"/>
<path d="M236.249 288.12C236.136 288.115 236.028 288.068 235.948 287.988C235.867 287.908 235.82 287.8 235.815 287.687V265.986C235.815 260.234 233.529 254.718 229.459 250.649C225.389 246.579 219.869 244.291 214.11 244.285H196.189C191.733 244.291 187.462 246.061 184.311 249.208C181.161 252.355 179.389 256.621 179.383 261.072V287.687C179.378 287.8 179.331 287.908 179.25 287.988C179.17 288.068 179.063 288.115 178.949 288.12H176.572C176.458 288.115 176.351 288.068 176.271 287.988C176.19 287.908 176.143 287.8 176.138 287.687V261.072C176.143 255.74 178.266 250.628 182.041 246.857C185.815 243.087 190.933 240.966 196.271 240.961H214.193C220.832 240.972 227.196 243.613 231.889 248.304C236.582 252.995 239.22 259.354 239.226 265.986V287.687C239.226 287.802 239.18 287.912 239.099 287.993C239.017 288.075 238.907 288.12 238.792 288.12H236.249Z" fill="white"/>
<path d="M214.111 241.391C220.635 241.402 226.888 243.997 231.5 248.607C236.111 253.217 238.704 259.465 238.709 265.982V287.683H236.27V265.982C236.27 260.112 233.935 254.482 229.78 250.331C225.624 246.18 219.988 243.848 214.111 243.848H196.189C193.924 243.845 191.681 244.289 189.588 245.153C187.496 246.017 185.594 247.286 183.993 248.885C182.391 250.485 181.121 252.384 180.256 254.475C179.391 256.565 178.947 258.806 178.949 261.068V287.683H176.572V261.068C176.583 255.853 178.662 250.854 182.354 247.166C186.046 243.478 191.05 241.402 196.272 241.391H214.193M214.193 240.523H196.272C190.789 240.523 185.531 242.699 181.655 246.571C177.778 250.443 175.601 255.695 175.601 261.171V287.786C175.601 288.016 175.692 288.237 175.855 288.399C176.018 288.562 176.238 288.653 176.469 288.653H178.929C179.159 288.653 179.38 288.562 179.543 288.399C179.705 288.237 179.797 288.016 179.797 287.786V261.068C179.802 256.733 181.529 252.576 184.598 249.511C187.667 246.445 191.828 244.72 196.168 244.715H214.09C219.732 244.726 225.139 246.971 229.126 250.957C233.113 254.944 235.355 260.347 235.36 265.982V287.683C235.36 287.913 235.452 288.134 235.615 288.296C235.777 288.459 235.998 288.55 236.229 288.55H238.688C238.919 288.55 239.14 288.459 239.302 288.296C239.465 288.134 239.557 287.913 239.557 287.683V265.982C239.551 259.235 236.867 252.766 232.093 247.993C227.319 243.221 220.844 240.534 214.09 240.523H214.193Z" fill="#20094B"/>
<path d="M125.928 288.118C125.815 288.113 125.707 288.066 125.627 287.986C125.547 287.905 125.499 287.798 125.494 287.685V268.668C125.499 268.555 125.547 268.447 125.627 268.367C125.707 268.287 125.815 268.239 125.928 268.234H176.572C176.687 268.234 176.798 268.28 176.879 268.361C176.961 268.443 177.006 268.553 177.006 268.668V287.685C177.006 287.8 176.961 287.91 176.879 287.991C176.798 288.073 176.687 288.118 176.572 288.118H125.928Z" fill="#423890"/>
<path d="M176.572 268.672V287.689H125.928V268.672H176.572ZM176.572 267.805H125.928C125.698 267.805 125.477 267.896 125.314 268.059C125.151 268.221 125.06 268.442 125.06 268.672V287.689C125.06 287.919 125.151 288.139 125.314 288.302C125.477 288.464 125.698 288.556 125.928 288.556H176.572C176.802 288.556 177.023 288.464 177.186 288.302C177.349 288.139 177.44 287.919 177.44 287.689V268.672C177.44 268.442 177.349 268.221 177.186 268.059C177.023 267.896 176.802 267.805 176.572 267.805Z" fill="#20094B"/>
<path d="M53.0418 288.118C51.1631 288.113 49.3629 287.365 48.0344 286.038C46.7059 284.711 45.9571 282.913 45.9517 281.036V275.317C45.9571 273.44 46.7059 271.642 48.0344 270.315C49.3629 268.988 51.1631 268.24 53.0418 268.234H62.2404C62.3556 268.234 62.466 268.28 62.5474 268.361C62.6288 268.443 62.6746 268.553 62.6746 268.668V287.685C62.6746 287.8 62.6288 287.91 62.5474 287.991C62.466 288.073 62.3556 288.118 62.2404 288.118H53.0418Z" fill="#423890"/>
<path d="M62.2405 268.672V287.689H53.0419C51.2766 287.689 49.5836 286.988 48.3354 285.741C47.0871 284.494 46.3859 282.803 46.3859 281.04V275.32C46.3859 274.447 46.558 273.583 46.8925 272.776C47.227 271.97 47.7173 271.237 48.3354 270.619C48.9534 270.002 49.6871 269.512 50.4947 269.178C51.3022 268.844 52.1678 268.672 53.0419 268.672H62.2405ZM62.2405 267.805H53.0419C51.0463 267.805 49.1325 268.597 47.7214 270.006C46.3104 271.415 45.5176 273.327 45.5176 275.32V281.04C45.523 283.032 46.3176 284.94 47.7275 286.348C49.1374 287.757 51.048 288.55 53.0419 288.556H62.2405C62.4707 288.556 62.6916 288.464 62.8544 288.302C63.0172 288.139 63.1086 287.919 63.1086 287.689V268.672C63.1086 268.442 63.0172 268.221 62.8544 268.059C62.6916 267.896 62.4707 267.805 62.2405 267.805Z" fill="#20094B"/>
<path d="M123.489 288.124C123.374 288.124 123.263 288.078 123.182 287.997C123.101 287.916 123.055 287.805 123.055 287.69V260.249C123.049 255.678 121.229 251.296 117.993 248.064C114.758 244.832 110.371 243.014 105.794 243.008H82.3742C77.8017 243.019 73.42 244.84 70.1887 248.072C66.9574 251.303 65.1401 255.682 65.1346 260.249V287.67C65.1328 287.728 65.1189 287.786 65.094 287.839C65.0691 287.893 65.0338 287.94 64.9899 287.979C64.9136 288.057 64.8095 288.102 64.7005 288.103C63.8536 288.089 63.0095 287.999 62.1785 287.835C62.08 287.82 61.9902 287.77 61.9256 287.694C61.861 287.618 61.826 287.521 61.8272 287.422V260.249C61.8271 254.791 63.9908 249.555 67.845 245.686C71.6993 241.816 76.9305 239.629 82.3949 239.602H105.815C111.297 239.602 116.555 241.777 120.432 245.649C124.308 249.521 126.486 254.773 126.486 260.249V287.69C126.486 287.805 126.44 287.916 126.359 287.997C126.278 288.078 126.167 288.124 126.052 288.124H123.489Z" fill="white"/>
<path d="M105.795 240.117C111.135 240.128 116.252 242.253 120.026 246.027C123.8 249.801 125.923 254.915 125.928 260.249V287.69H123.489V260.249C123.489 255.561 121.625 251.066 118.306 247.751C114.988 244.436 110.487 242.574 105.795 242.574H82.3743C80.0516 242.574 77.7517 243.032 75.6061 243.92C73.4605 244.809 71.5111 246.111 69.8697 247.752C68.2283 249.394 66.9269 251.342 66.0399 253.487C65.153 255.631 64.6978 257.929 64.7006 260.249V287.669C63.8754 287.65 63.053 287.567 62.2407 287.421V260.249C62.2462 254.915 64.3685 249.801 68.1425 246.027C71.9165 242.253 77.0343 240.128 82.3743 240.117H105.795ZM105.795 239.25H82.3743C76.804 239.261 71.4654 241.477 67.5286 245.414C63.5918 249.35 61.378 254.685 61.3726 260.249V287.421C61.3737 287.622 61.4443 287.816 61.5724 287.97C61.7005 288.124 61.8782 288.23 62.0753 288.268C62.934 288.433 63.8055 288.523 64.6799 288.536C64.7914 288.537 64.902 288.516 65.005 288.473C65.108 288.431 65.2013 288.368 65.2793 288.288C65.447 288.125 65.5436 287.903 65.548 287.669V260.249C65.5535 255.796 67.3252 251.528 70.4751 248.378C73.6249 245.227 77.8962 243.452 82.3536 243.441H105.774C110.231 243.452 114.503 245.227 117.652 248.378C120.802 251.528 122.574 255.796 122.579 260.249V287.69C122.579 287.92 122.671 288.14 122.834 288.303C122.996 288.465 123.217 288.557 123.448 288.557H125.907C126.138 288.557 126.359 288.465 126.521 288.303C126.684 288.14 126.776 287.92 126.776 287.69V260.249C126.77 254.685 124.556 249.35 120.62 245.414C116.683 241.477 111.344 239.261 105.774 239.25H105.795Z" fill="#20094B"/>
<path d="M274.325 207.862C272.113 207.862 271.286 205.797 268.889 199.913C267.338 196.113 265.023 190.373 261.178 182.321C252.186 163.49 244.021 158.555 240.507 156.449C239.887 156.104 239.299 155.703 238.75 155.252C238.145 154.711 237.766 153.962 237.689 153.154C237.613 152.346 237.844 151.54 238.337 150.895C238.378 150.847 238.428 150.81 238.486 150.785C238.543 150.76 238.605 150.748 238.668 150.75H238.812C258.016 157.585 270.749 192.521 275.338 207.222C275.363 207.281 275.376 207.344 275.376 207.408C275.376 207.472 275.363 207.535 275.338 207.594C275.307 207.645 275.265 207.688 275.215 207.72C275.165 207.752 275.108 207.772 275.049 207.779H274.346L274.325 207.862Z" fill="#F0EFFD"/>
<path d="M238.709 151.184C257.665 157.936 270.274 192.356 274.946 207.367C274.739 207.387 274.532 207.387 274.325 207.367C271.101 207.367 271.163 202.184 261.571 182.073C250.595 159.092 240.9 156.759 239.102 154.88C238.572 154.42 238.236 153.776 238.164 153.079C238.091 152.381 238.286 151.682 238.709 151.122M238.709 150.234C238.579 150.237 238.45 150.268 238.332 150.325C238.214 150.382 238.11 150.464 238.027 150.565C237.47 151.291 237.207 152.2 237.291 153.111C237.376 154.022 237.801 154.867 238.482 155.479C239.044 155.974 239.662 156.404 240.322 156.759C243.774 158.824 251.856 163.738 260.786 182.445C264.61 190.477 266.987 196.217 268.476 200.016C270.977 206.21 271.824 208.275 274.325 208.275H275.09C275.212 208.256 275.329 208.211 275.432 208.144C275.536 208.076 275.624 207.987 275.69 207.883C275.739 207.769 275.765 207.646 275.765 207.522C275.765 207.397 275.739 207.274 275.69 207.16C271.08 192.397 258.285 157.296 238.895 150.4C238.8 150.378 238.701 150.378 238.606 150.4L238.709 150.234Z" fill="#20094B"/>
<path d="M278.542 243.148C276.289 243.148 274.408 239.018 274.408 233.836C274.408 228.653 276.186 224.523 278.542 224.523C280.899 224.523 282.553 228.653 282.553 233.836C282.553 239.018 280.796 243.148 278.542 243.148Z" fill="#F0EFFD"/>
<path d="M278.542 224.875C280.506 224.875 282.118 228.839 282.118 233.754C282.118 238.668 280.506 242.632 278.542 242.632C276.578 242.632 274.945 238.668 274.945 233.754C274.945 228.839 276.558 224.875 278.542 224.875ZM278.542 224.008C275.648 224.008 274.077 229.025 274.077 233.754C274.077 238.482 275.648 243.499 278.542 243.499C281.436 243.499 282.986 238.482 282.986 233.754C282.986 229.025 281.415 224.008 278.542 224.008Z" fill="#20094B"/>
<path d="M197.408 211.02L206.628 212.466C207.15 212.549 207.626 212.814 207.97 213.215C208.315 213.616 208.506 214.126 208.509 214.654V214.757C208.507 215.078 208.436 215.395 208.3 215.685C208.163 215.976 207.965 216.233 207.72 216.439C207.474 216.646 207.186 216.796 206.876 216.88C206.566 216.964 206.241 216.979 205.925 216.926L196.685 215.377C196.172 215.289 195.706 215.024 195.37 214.628C195.033 214.231 194.848 213.729 194.845 213.209C194.844 212.888 194.913 212.572 195.047 212.28C195.18 211.989 195.376 211.73 195.62 211.522C195.864 211.314 196.15 211.161 196.459 211.075C196.768 210.988 197.092 210.969 197.408 211.02Z" fill="#F0EFFD"/>
<path d="M165.72 223.125H56.1633C55.6151 223.125 55.0893 222.907 54.7017 222.52C54.314 222.133 54.0962 221.607 54.0962 221.06V220.791C54.0962 220.244 54.314 219.719 54.7017 219.331C55.0893 218.944 55.6151 218.727 56.1633 218.727H165.72C166.268 218.727 166.794 218.944 167.181 219.331C167.569 219.719 167.787 220.244 167.787 220.791V221.06C167.787 221.607 167.569 222.133 167.181 222.52C166.794 222.907 166.268 223.125 165.72 223.125Z" fill="#F0EFFD"/>
<path d="M263.39 210.297C262.831 210.291 262.292 210.094 261.861 209.739L256.714 205.61C256.217 205.198 255.901 204.609 255.836 203.968C255.77 203.326 255.959 202.685 256.362 202.182C256.59 201.897 256.879 201.667 257.209 201.51C257.538 201.353 257.899 201.272 258.264 201.273C258.823 201.279 259.363 201.476 259.794 201.831L264.941 205.961C265.437 206.372 265.753 206.961 265.818 207.602C265.884 208.244 265.695 208.885 265.292 209.388C265.064 209.673 264.775 209.903 264.445 210.06C264.116 210.217 263.755 210.298 263.39 210.297Z" fill="white"/>
<path d="M258.264 201.669C258.723 201.676 259.167 201.836 259.525 202.123L264.672 206.253C265.068 206.597 265.319 207.078 265.372 207.6C265.426 208.121 265.279 208.644 264.961 209.061C264.767 209.288 264.527 209.47 264.255 209.594C263.984 209.719 263.689 209.784 263.39 209.784C262.934 209.782 262.49 209.63 262.13 209.35L256.983 205.221C256.586 204.877 256.336 204.395 256.282 203.874C256.229 203.352 256.375 202.83 256.693 202.412C256.885 202.182 257.125 201.996 257.397 201.868C257.668 201.739 257.964 201.672 258.264 201.669ZM258.264 200.802C257.835 200.799 257.41 200.894 257.023 201.08C256.636 201.266 256.297 201.538 256.032 201.876C255.79 202.159 255.609 202.487 255.499 202.842C255.389 203.197 255.352 203.571 255.391 203.94C255.428 204.318 255.541 204.684 255.722 205.017C255.903 205.35 256.149 205.644 256.445 205.881L261.592 210.011C261.885 210.251 262.222 210.431 262.585 210.54C262.948 210.649 263.329 210.686 263.706 210.647C264.082 210.609 264.448 210.497 264.781 210.317C265.114 210.137 265.409 209.893 265.647 209.599C265.886 209.305 266.064 208.967 266.171 208.604C266.278 208.241 266.312 207.86 266.271 207.484C266.231 207.108 266.116 206.743 265.934 206.411C265.751 206.08 265.505 205.787 265.21 205.551L260.062 201.421C259.553 201.011 258.919 200.785 258.264 200.781V200.802Z" fill="#20094B"/>
<path d="M255.412 209.311C254.372 209.307 253.334 209.21 252.311 209.022C252.212 209.007 252.122 208.957 252.058 208.881C251.993 208.805 251.958 208.709 251.959 208.609V192.215C251.959 192.119 251.989 192.026 252.044 191.948C252.1 191.87 252.179 191.812 252.27 191.781C252.943 191.596 253.638 191.499 254.337 191.492C255.626 191.555 256.857 192.046 257.835 192.888C258.812 193.73 259.48 194.874 259.732 196.138C259.732 197.191 260.249 205.78 259.298 207.845C258.843 208.816 257.541 209.311 255.453 209.311H255.412Z" fill="white"/>
<path d="M254.295 191.943C255.485 191.994 256.623 192.443 257.527 193.219C258.43 193.994 259.047 195.05 259.277 196.217C259.277 196.217 259.794 205.632 258.864 207.655C258.409 208.626 256.797 208.874 255.412 208.874C254.4 208.864 253.391 208.775 252.394 208.605V192.211C253.011 192.029 253.652 191.939 254.295 191.943ZM254.295 191.055C253.596 191.066 252.901 191.17 252.228 191.364C252.044 191.418 251.883 191.529 251.767 191.681C251.652 191.834 251.589 192.02 251.587 192.211V208.605C251.589 208.806 251.659 209 251.787 209.154C251.916 209.308 252.093 209.414 252.29 209.452C253.341 209.64 254.406 209.737 255.474 209.741C257.747 209.741 259.174 209.163 259.711 208.027C260.683 205.962 260.29 197.703 260.207 196.175C260.217 196.135 260.217 196.092 260.207 196.051C259.939 194.685 259.218 193.45 258.16 192.543C257.103 191.636 255.77 191.112 254.378 191.055H254.295Z" fill="#20094B"/>
<path d="M180.582 160.148H179.197V175.159H180.582V160.148Z" fill="#20094B"/>
<path d="M182.815 160.148H181.43V175.159H182.815V160.148Z" fill="#20094B"/>
<path d="M185.027 160.148H183.642V175.159H185.027V160.148Z" fill="#20094B"/>
<path d="M188.086 238.046V213.641" stroke="#20094B" stroke-width="0.57" stroke-linecap="round" stroke-linejoin="round"/>
</g>
<defs>
<clipPath id="clip0_3338_20759">
<rect width="329" height="306" fill="white"/>
</clipPath>
</defs>
</svg>
