<svg width="26" height="25" viewBox="0 0 26 25" fill="none" xmlns="http://www.w3.org/2000/svg">
<path d="M25.9701 11.8092V19.9079C26.0482 20.5918 25.9729 21.2848 25.7498 21.935C25.5268 22.5851 25.1617 23.1757 24.6819 23.6626C24.2021 24.1494 23.6201 24.5198 22.9793 24.7462C22.3385 24.9725 21.6556 25.0489 20.9816 24.9696H5.01842C4.34443 25.0489 3.6615 24.9725 3.02071 24.7462C2.37993 24.5198 1.79788 24.1494 1.3181 23.6626C0.838329 23.1757 0.47325 22.5851 0.250176 21.935C0.0271027 21.2848 -0.0481911 20.5918 0.0299274 19.9079V6.41005C-0.0481911 5.72616 0.0271027 5.03321 0.250176 4.38302C0.47325 3.73283 0.838329 3.14224 1.3181 2.65542C1.79788 2.16861 2.37993 1.79817 3.02071 1.57182C3.6615 1.34547 4.34443 1.26908 5.01842 1.34834H15.6605C15.9251 1.34834 16.1789 1.455 16.366 1.64485C16.5531 1.8347 16.6582 2.09219 16.6582 2.36068C16.6582 2.62917 16.5531 2.88666 16.366 3.07652C16.1789 3.26637 15.9251 3.37302 15.6605 3.37302H5.01842C2.92059 3.37302 2.02532 4.28143 2.02532 6.41005V18.8956L5.40419 15.4671C5.65536 15.2142 5.99485 15.0723 6.34868 15.0723C6.70251 15.0723 7.042 15.2142 7.29317 15.4671L8.54362 16.7359C8.66795 16.8596 8.83511 16.9289 9.00921 16.9289C9.18331 16.9289 9.35047 16.8596 9.4748 16.7359L16.0463 10.068C16.2975 9.81509 16.637 9.67318 16.9908 9.67318C17.3446 9.67318 17.6841 9.81509 17.9353 10.068L23.9747 16.196V11.8092C23.9747 11.5407 24.0798 11.2832 24.2669 11.0934C24.454 10.9035 24.7078 10.7969 24.9724 10.7969C25.237 10.7969 25.4907 10.9035 25.6779 11.0934C25.865 11.2832 25.9701 11.5407 25.9701 11.8092ZM7.66963 7.42239C7.22797 7.42364 6.80485 7.6027 6.4932 7.92026C6.18155 8.23781 6.00685 8.66788 6.00747 9.11603C6.00809 9.56417 6.18397 9.99375 6.49649 10.3104C6.80901 10.6271 7.23262 10.805 7.67429 10.805C8.11595 10.805 8.53956 10.6271 8.85209 10.3104C9.16461 9.99375 9.34049 9.56417 9.34111 9.11603C9.34172 8.66788 9.16702 8.23781 8.85538 7.92026C8.54373 7.6027 8.12061 7.42364 7.67894 7.42239H7.66963ZM21.6866 3.75096L21.9793 3.45536V6.41005C21.9793 6.67854 22.0844 6.93603 22.2715 7.12588C22.4586 7.31573 22.7124 7.42239 22.977 7.42239C23.2416 7.42239 23.4954 7.31573 23.6825 7.12588C23.8696 6.93603 23.9747 6.67854 23.9747 6.41005V3.45536L24.2673 3.75096C24.4565 3.92978 24.7066 4.02713 24.9651 4.02251C25.2236 4.01788 25.4702 3.91164 25.653 3.72616C25.8358 3.54068 25.9405 3.29045 25.945 3.02818C25.9496 2.76592 25.8536 2.51209 25.6774 2.32019L23.682 0.295506C23.4948 0.106257 23.2413 0 22.977 0C22.7127 0 22.4592 0.106257 22.2719 0.295506L20.2765 2.32019C20.1003 2.51209 20.0044 2.76592 20.0089 3.02818C20.0135 3.29045 20.1182 3.54068 20.301 3.72616C20.4838 3.91164 20.7304 4.01788 20.9889 4.02251C21.2473 4.02713 21.4975 3.92978 21.6866 3.75096Z" fill="#0043B4"/>
</svg>
