<svg width="20" height="19" viewBox="0 0 20 19" fill="none" xmlns="http://www.w3.org/2000/svg">
<path d="M19.4637 15.4668C19.3793 15.3668 19.2964 15.2667 19.215 15.1702C18.0959 13.8396 17.4188 13.0366 17.4188 9.26976C17.4188 7.3196 16.9442 5.71947 16.0087 4.51937C15.3189 3.6328 14.3865 2.96024 13.1575 2.4632C13.1417 2.45455 13.1276 2.44321 13.1158 2.4297C12.6738 0.974579 11.4641 0 10.0998 0C8.73554 0 7.52639 0.974579 7.08434 2.4282C7.07255 2.44121 7.05862 2.4522 7.04314 2.4607C4.17517 3.6213 2.78137 5.84798 2.78137 9.26826C2.78137 13.0366 2.10533 13.8396 0.985206 15.1687C0.903817 15.2652 0.820901 15.3633 0.736459 15.4653C0.518335 15.7238 0.380136 16.0384 0.338216 16.3718C0.296297 16.7052 0.352412 17.0434 0.49992 17.3464C0.813779 17.9965 1.4827 18.4 2.24624 18.4H17.959C18.719 18.4 19.3833 17.997 19.6982 17.3499C19.8464 17.0468 19.903 16.7084 19.8615 16.3746C19.8199 16.0408 19.6819 15.7258 19.4637 15.4668Z" fill="#484C52"/>
</svg>
