<svg width="25" height="24" viewBox="0 0 25 24" fill="none" xmlns="http://www.w3.org/2000/svg">
<path d="M11.4064 11.2925L0.625117 6.753C0.470664 6.68793 0.299805 6.80137 0.299805 6.969V19.1049C0.299805 19.4115 0.486508 19.6874 0.771273 19.8012L11.2284 23.9841C11.3823 24.0457 11.5498 23.9323 11.5498 23.7665V11.5085C11.5498 11.4142 11.4933 11.3291 11.4064 11.2925Z" fill="#484C52"/>
<path d="M12.3909 9.99946L22.8119 5.61168C22.9992 5.53283 23.0042 5.26921 22.82 5.18328L12.6171 0.42191C12.416 0.328113 12.1838 0.328113 11.9828 0.42191L1.7798 5.18328C1.59563 5.26921 1.60065 5.53283 1.78796 5.61168L12.209 9.99946C12.2671 10.024 12.3327 10.024 12.3909 9.99946Z" fill="#484C52"/>
<path d="M13.0498 11.5085V23.7665C13.0498 23.9323 13.2173 24.0457 13.3712 23.9841L23.8283 19.8012C24.1131 19.6873 24.2998 19.4115 24.2998 19.1049V6.969C24.2998 6.80137 24.1289 6.68793 23.9745 6.753L13.1932 11.2925C13.1063 11.3291 13.0498 11.4142 13.0498 11.5085Z" fill="#484C52"/>
</svg>
