<svg width="16" height="24" viewBox="0 0 16 24" fill="none" xmlns="http://www.w3.org/2000/svg">
<path d="M10.675 2.1125C10.8811 1.61097 11.3549 0.492729 11.5542 0H4.44586C4.64608 0.495883 5.12107 1.6075 5.32503 2.1125H10.675Z" fill="#038484"/>
<path d="M15.0833 8.35833C14.9748 8.32796 14.8627 8.31254 14.75 8.3125H1.25C0.918699 8.31322 0.601172 8.44514 0.366907 8.67941C0.132641 8.91367 0.000715495 9.2312 0 9.5625V13.7708C0.000716592 14.1021 0.132643 14.4197 0.366908 14.6539C0.601173 14.8882 0.9187 15.0201 1.25 15.0208H14.75C15.0813 15.0201 15.3988 14.8882 15.6331 14.6539C15.8674 14.4197 15.9993 14.1021 16 13.7708V9.5625C16.0001 9.28911 15.9105 9.02325 15.7449 8.80572C15.5793 8.58819 15.3469 8.43102 15.0833 8.35833ZM4.91667 12.3458C4.98502 12.3995 5.03514 12.4729 5.0602 12.5562C5.08526 12.6394 5.08403 12.7283 5.05669 12.8108C5.02935 12.8933 4.97722 12.9653 4.90741 13.0171C4.83761 13.0688 4.75354 13.0978 4.66667 13.1C4.46487 13.1299 3.99281 12.6741 3.83336 12.5792V12.9917C3.83336 13.1022 3.78946 13.2082 3.71132 13.2863C3.63318 13.3644 3.5272 13.4083 3.41669 13.4083C3.30618 13.4083 3.2002 13.3644 3.12206 13.2863C3.04392 13.2082 3.00002 13.1022 3.00002 12.9917V12.5792L2.41669 13.0167C2.37292 13.0495 2.32311 13.0734 2.2701 13.087C2.21709 13.1005 2.16193 13.1036 2.10777 13.0958C2.0536 13.0881 2.00149 13.0697 1.9544 13.0419C1.90732 13.014 1.86619 12.9771 1.83336 12.9333C1.80053 12.8896 1.77664 12.8397 1.76306 12.7867C1.74948 12.7337 1.74647 12.6786 1.75421 12.6244C1.76195 12.5702 1.78028 12.5181 1.80816 12.471C1.83604 12.424 1.87292 12.3828 1.91669 12.35L2.72086 11.7458L1.91667 11.1417C1.83072 11.0745 1.77455 10.9763 1.7602 10.8681C1.74586 10.76 1.77448 10.6506 1.83993 10.5633C1.90539 10.476 2.00244 10.4179 2.11027 10.4014C2.2181 10.3849 2.32811 10.4113 2.41667 10.475L3 10.9125V10.4917C3.00162 10.3822 3.04624 10.2778 3.1242 10.201C3.20216 10.1242 3.30722 10.0811 3.41667 10.0811C3.52612 10.0811 3.63117 10.1242 3.70913 10.201C3.7871 10.2778 3.83171 10.3822 3.83333 10.4917V10.9125L4.41667 10.475C4.50522 10.4113 4.61524 10.3848 4.7231 10.4013C4.83095 10.4178 4.92803 10.4759 4.99349 10.5632C5.05895 10.6505 5.08757 10.76 5.0732 10.8681C5.05882 10.9763 5.00261 11.0745 4.91662 11.1417L4.1125 11.7458L4.91667 12.3458ZM9.5 12.3458C9.56835 12.3995 9.61847 12.4729 9.64353 12.5562C9.66859 12.6394 9.66737 12.7283 9.64002 12.8108C9.61268 12.8933 9.56055 12.9653 9.49075 13.0171C9.42095 13.0688 9.33687 13.0978 9.25 13.1C9.0482 13.1299 8.57615 12.6741 8.41669 12.5792V12.9917C8.41669 13.1022 8.37279 13.2082 8.29465 13.2863C8.21651 13.3644 8.11053 13.4083 8.00003 13.4083C7.88952 13.4083 7.78354 13.3644 7.7054 13.2863C7.62726 13.2082 7.58336 13.1022 7.58336 12.9917V12.5792L7.00002 13.0167C6.95625 13.0495 6.90644 13.0734 6.85343 13.087C6.80043 13.1005 6.74527 13.1036 6.6911 13.0958C6.63693 13.0881 6.58482 13.0697 6.53774 13.0419C6.49065 13.014 6.44952 12.9771 6.41669 12.9333C6.38386 12.8896 6.35997 12.8397 6.34639 12.7867C6.33281 12.7337 6.32981 12.6786 6.33755 12.6244C6.34528 12.5702 6.36362 12.5181 6.39149 12.471C6.41937 12.424 6.45625 12.3828 6.50003 12.35L7.30419 11.7458L6.5 11.1417C6.41406 11.0745 6.35788 10.9763 6.34354 10.8681C6.32919 10.76 6.35782 10.6506 6.42327 10.5633C6.48872 10.476 6.58578 10.4179 6.69361 10.4014C6.80144 10.3849 6.91144 10.4113 7 10.475L7.58333 10.9125V10.4917C7.58496 10.3822 7.62957 10.2778 7.70753 10.201C7.7855 10.1242 7.89055 10.0811 8 10.0811C8.10945 10.0811 8.2145 10.1242 8.29247 10.201C8.37043 10.2778 8.41504 10.3822 8.41667 10.4917V10.9125L9 10.475C9.08856 10.4113 9.19858 10.3848 9.30643 10.4013C9.41428 10.4178 9.51137 10.4759 9.57683 10.5632C9.64229 10.6505 9.6709 10.76 9.65653 10.8681C9.64216 10.9763 9.58594 11.0745 9.49996 11.1417L8.69583 11.7458L9.5 12.3458ZM14.0833 12.3458C14.1517 12.3995 14.2018 12.4729 14.2269 12.5562C14.2519 12.6394 14.2507 12.7283 14.2234 12.8108C14.196 12.8933 14.1439 12.9653 14.0741 13.0171C14.0043 13.0688 13.9202 13.0978 13.8333 13.1C13.6315 13.1299 13.1595 12.6741 13 12.5792V12.9917C13 13.1022 12.9561 13.2082 12.878 13.2863C12.7998 13.3644 12.6939 13.4083 12.5834 13.4083C12.4729 13.4083 12.3669 13.3644 12.2887 13.2863C12.2106 13.2082 12.1667 13.1022 12.1667 12.9917V12.5792L11.5834 13.0167C11.495 13.083 11.3838 13.1114 11.2744 13.0958C11.165 13.0802 11.0663 13.0217 11 12.9333C10.9337 12.8449 10.9053 12.7338 10.9209 12.6244C10.9365 12.515 10.995 12.4163 11.0834 12.35L11.8875 11.7458L11.0833 11.1417C10.9974 11.0745 10.9412 10.9763 10.9269 10.8681C10.9125 10.76 10.9411 10.6506 11.0066 10.5633C11.0721 10.476 11.1691 10.4179 11.2769 10.4014C11.3848 10.3849 11.4948 10.4113 11.5833 10.475L12.1667 10.9125V10.4917C12.1683 10.3822 12.2129 10.2778 12.2909 10.201C12.3688 10.1242 12.4739 10.0811 12.5833 10.0811C12.6928 10.0811 12.7978 10.1242 12.8758 10.201C12.9538 10.2778 12.9984 10.3822 13 10.4917V10.9125L13.5833 10.475C13.6719 10.4113 13.7819 10.3848 13.8898 10.4013C13.9976 10.4178 14.0947 10.4759 14.1602 10.5632C14.2256 10.6505 14.2542 10.76 14.2399 10.8681C14.2255 10.9763 14.1693 11.0745 14.0833 11.1417L13.2792 11.7458L14.0833 12.3458Z" fill="#038484"/>
<path d="M1.25002 15.8573C1.13824 15.8581 1.02663 15.8483 0.916687 15.8281V21.6698C0.916627 21.8887 0.959696 22.1054 1.04343 22.3077C1.12717 22.5099 1.24993 22.6937 1.40471 22.8484C1.55949 23.0032 1.74324 23.126 1.94548 23.2097C2.14771 23.2934 2.36447 23.3365 2.58335 23.3365H13.4167C13.6356 23.3365 13.8523 23.2934 14.0546 23.2097C14.2568 23.126 14.4406 23.0032 14.5953 22.8484C14.7501 22.6937 14.8729 22.5099 14.9566 22.3077C15.0403 22.1054 15.0834 21.8887 15.0834 21.6698V15.8281C14.9734 15.8483 14.8618 15.8581 14.75 15.8573H1.25002Z" fill="#038484"/>
<path d="M14.75 7.47917C14.8618 7.47835 14.9734 7.48812 15.0834 7.50833V1.66667C15.0834 1.44778 15.0403 1.23103 14.9566 1.02879C14.8729 0.826551 14.7501 0.642794 14.5953 0.488017C14.4406 0.333241 14.2568 0.210478 14.0546 0.126742C13.8523 0.0430057 13.6356 -6.17953e-05 13.4167 6.65488e-08H12.4292L12.0709 0.833333L11.2417 2.7625C11.2028 2.81843 11.1512 2.86425 11.091 2.89615C11.0309 2.92804 10.9639 2.94508 10.8959 2.94583H5.10419C5.0361 2.94508 4.96918 2.92804 4.90902 2.89615C4.84885 2.86425 4.7972 2.81843 4.75835 2.7625L3.92919 0.833333L3.57085 6.65488e-08H2.58335C2.36447 -6.17953e-05 2.14771 0.0430057 1.94548 0.126742C1.74324 0.210478 1.55948 0.333241 1.4047 0.488017C1.24993 0.642794 1.12716 0.826551 1.04343 1.02879C0.959692 1.23103 0.916625 1.44778 0.916687 1.66667V7.50833C1.02663 7.48812 1.13824 7.47835 1.25002 7.47917H14.75Z" fill="#038484"/>
</svg>
