<svg width="27" height="29" viewBox="0 0 27 29" fill="none" xmlns="http://www.w3.org/2000/svg">
<path d="M2.4394 7.93919C3.51747 9.56931 4.46402 11.5066 4.61328 11.8397C4.65604 11.9357 4.72339 12.1623 4.79894 12.4395C5.32455 11.6968 5.96579 11.0829 6.73211 10.6323C7.82566 9.98975 9.08262 9.72494 10.4396 9.78861C10.112 9.26844 9.81388 8.73279 9.67056 8.31595C9.30242 7.247 7.96807 2.83314 7.1876 0.948662C6.40756 -0.935811 3.4364 0.405317 1.70981 1.38692C-0.0167847 2.36852 -0.11359 3.57812 0.0620311 3.91129C0.237234 4.24438 1.36132 6.30907 2.4394 7.93919Z" fill="#D0C02F"/>
<path d="M9.05983 14.013C11.3562 13.0664 11.8472 14.2146 11.8472 14.2146C12.5748 13.5397 12.0666 12.7419 12.0666 12.7419C12.0666 12.7419 12.2504 12.4002 11.9528 12.0493C11.7707 11.8355 11.1841 11.0591 10.6708 10.2436C9.31377 10.1799 8.05681 10.4447 6.96326 11.0873C6.19694 11.5379 5.5557 12.1513 5.03009 12.8945C5.21709 13.5794 5.45697 14.5828 5.5193 14.7576C5.60715 15.0029 5.83465 15.336 6.04541 15.3797C6.25567 15.4234 6.3785 15.625 6.3785 15.625C6.65017 16.177 7.50025 16.212 7.50025 16.212C7.50025 16.212 6.76304 14.9595 9.05983 14.013Z" fill="#D0C02F"/>
<path d="M26.1941 18.883C25.4905 18.3328 24.549 18.0684 23.7986 17.5814C21.8585 16.3227 24.3715 15.1631 25.2034 14.4131C26.616 13.1398 26.9869 11.6727 26.402 9.89101C26.2191 9.33352 25.8227 8.74558 26.0057 9.30257C27.0055 12.3498 23.8281 13.806 22.2144 15.5099C21.6201 16.1374 21.702 16.8178 22.3195 17.444C23.5141 18.6554 27.1078 19.6779 24.8802 21.5611C23.3189 22.8808 20.8956 22.9991 19.1649 24.1136C18.931 24.2642 18.9037 24.6693 19.139 24.834C20.8387 26.0227 23.1919 25.7365 24.8666 26.8159C21.9778 27.6851 18.9474 27.1181 15.9766 26.8459C15.9884 26.7617 15.978 26.6903 15.978 26.6903C15.6003 24.3762 15.562 23.8742 15.7373 22.717C15.9125 21.5602 15.7373 21.4546 15.7373 21.4546C13.9492 19.0004 11.7771 14.3654 11.7771 14.3654C11.4877 13.8834 10.3395 13.6791 8.91966 14.3126C7.44701 14.9701 7.55218 15.8726 7.55218 15.8726L10.0505 23.2376C10.1384 23.4742 10.5416 23.588 10.5416 23.588C12.8821 24.2629 14.7898 26.628 15.0441 26.9961C15.2985 27.3642 15.4824 27.2241 15.4824 27.2241L12.7529 21.111C12.5444 21.0632 12.3319 20.8821 12.2068 20.6136C12.0256 20.2245 12.0976 19.8076 12.3674 19.682C12.6372 19.5564 13.0027 19.7699 13.1838 20.1589C13.3204 20.452 13.3126 20.7605 13.1857 20.9489L15.7879 26.8286C15.7688 26.8268 15.7496 26.8249 15.7306 26.8232C15.1499 26.7731 15.7593 27.5144 17.3907 27.7192C21.0268 28.1757 22.4489 28.1475 25.953 27.4052C26.3126 27.3293 26.3189 26.8701 26.0827 26.6293C24.5309 25.0456 22.2587 25.3833 20.3984 24.5182C22.7651 23.5217 29.2582 21.2794 26.1941 18.883Z" fill="#D0C02F"/>
</svg>
