<svg width="26" height="26" viewBox="0 0 26 26" fill="none" xmlns="http://www.w3.org/2000/svg">
<path d="M10.7895 1.17892L10.8172 1.19492L2.04741 6.25813L2.01904 6.24252L10.7895 1.17892Z" fill="#D0C02F" stroke="#D0C02F"/>
<path d="M1.18422 18.1403V18.3557L1.13159 18.3253V7.49358L1.18422 7.52414V18.1403Z" fill="#D0C02F" stroke="#D0C02F"/>
<path d="M0.0493614 19.0659L0.236842 18.9576L0.0493614 19.0659ZM4.23684 16.9254V16.9945V17.119L4.24553 17.1154L4.23684 16.9254Z" fill="#D0C02F" stroke="#D0C02F"/>
<mask id="path-4-inside-1_3338_20705" fill="white">
<path d="M1.68422 16.8828C1.58651 16.8828 1.4928 16.9216 1.4237 16.9907C1.35461 17.0598 1.3158 17.1535 1.3158 17.2512V18.6155C1.3158 18.7132 1.35461 18.8069 1.4237 18.876C1.4928 18.9451 1.58651 18.9839 1.68422 18.9839C1.78193 18.9839 1.87564 18.9451 1.94473 18.876C2.01382 18.8069 2.05264 18.7132 2.05264 18.6155V17.2512C2.05264 17.1535 2.01382 17.0598 1.94473 16.9907C1.87564 16.9216 1.78193 16.8828 1.68422 16.8828Z"/>
</mask>
<path d="M1.68422 16.8828C1.58651 16.8828 1.4928 16.9216 1.4237 16.9907C1.35461 17.0598 1.3158 17.1535 1.3158 17.2512V18.6155C1.3158 18.7132 1.35461 18.8069 1.4237 18.876C1.4928 18.9451 1.58651 18.9839 1.68422 18.9839C1.78193 18.9839 1.87564 18.9451 1.94473 18.876C2.01382 18.8069 2.05264 18.7132 2.05264 18.6155V17.2512C2.05264 17.1535 2.01382 17.0598 1.94473 16.9907C1.87564 16.9216 1.78193 16.8828 1.68422 16.8828Z" fill="#D0C02F"/>
<path d="M1.68422 16.8828V15.8828V16.8828ZM1.68422 15.8828C1.3213 15.8828 0.973231 16.027 0.716597 16.2836L2.13081 17.6978C2.01236 17.8163 1.85171 17.8828 1.68422 17.8828V15.8828ZM0.716597 16.2836C0.459966 16.5402 0.315796 16.8883 0.315796 17.2512H2.3158C2.3158 17.4187 2.24926 17.5794 2.13081 17.6978L0.716597 16.2836ZM0.315796 17.2512V18.6155H2.3158V17.2512H0.315796ZM0.315796 18.6155C0.315796 18.9784 0.459969 19.3265 0.716597 19.5831L2.13081 18.1689C2.24925 18.2873 2.3158 18.448 2.3158 18.6155H0.315796ZM0.716597 19.5831C0.973223 19.8397 1.32129 19.9839 1.68422 19.9839V17.9839C1.85173 17.9839 2.01237 18.0505 2.13081 18.1689L0.716597 19.5831ZM1.68422 19.9839C2.04715 19.9839 2.39521 19.8397 2.65184 19.5831L1.23762 18.1689C1.35607 18.0505 1.51671 17.9839 1.68422 17.9839V19.9839ZM2.65184 19.5831C2.90847 19.3265 3.05264 18.9784 3.05264 18.6155H1.05264C1.05264 18.448 1.11918 18.2873 1.23762 18.1689L2.65184 19.5831ZM3.05264 18.6155V17.2512H1.05264V18.6155H3.05264ZM3.05264 17.2512C3.05264 16.8883 2.90847 16.5402 2.65184 16.2836L1.23762 17.6978C1.11918 17.5794 1.05264 17.4187 1.05264 17.2512H3.05264ZM2.65184 16.2836C2.3952 16.027 2.04714 15.8828 1.68422 15.8828V17.8828C1.51672 17.8828 1.35607 17.8163 1.23762 17.6978L2.65184 16.2836Z" fill="#D0C02F" mask="url(#path-4-inside-1_3338_20705)"/>
<mask id="path-6-inside-2_3338_20705" fill="white">
<path d="M3.15797 17.8906C3.06026 17.8906 2.96655 17.9294 2.89746 17.9985C2.82837 18.0676 2.78955 18.1613 2.78955 18.259V19.4882C2.78955 19.5859 2.82837 19.6796 2.89746 19.7487C2.96655 19.8178 3.06026 19.8566 3.15797 19.8566C3.25568 19.8566 3.34939 19.8178 3.41848 19.7487C3.48758 19.6796 3.52639 19.5859 3.52639 19.4882V18.259C3.52639 18.1613 3.48758 18.0676 3.41848 17.9985C3.34939 17.9294 3.25568 17.8906 3.15797 17.8906Z"/>
</mask>
<path d="M3.15797 17.8906C3.06026 17.8906 2.96655 17.9294 2.89746 17.9985C2.82837 18.0676 2.78955 18.1613 2.78955 18.259V19.4882C2.78955 19.5859 2.82837 19.6796 2.89746 19.7487C2.96655 19.8178 3.06026 19.8566 3.15797 19.8566C3.25568 19.8566 3.34939 19.8178 3.41848 19.7487C3.48758 19.6796 3.52639 19.5859 3.52639 19.4882V18.259C3.52639 18.1613 3.48758 18.0676 3.41848 17.9985C3.34939 17.9294 3.25568 17.8906 3.15797 17.8906Z" fill="#D0C02F"/>
<path d="M3.15797 17.8906V16.8906V17.8906ZM3.15797 16.8906C2.79504 16.8906 2.44698 17.0348 2.19035 17.2914L3.60457 18.7056C3.48612 18.8241 3.32548 18.8906 3.15797 18.8906V16.8906ZM2.19035 17.2914C1.93373 17.5481 1.78955 17.8961 1.78955 18.259H3.78955C3.78955 18.4266 3.72301 18.5872 3.60457 18.7056L2.19035 17.2914ZM1.78955 18.259V19.4882H3.78955V18.259H1.78955ZM1.78955 19.4882C1.78955 19.8511 1.93373 20.1992 2.19035 20.4558L3.60457 19.0416C3.72301 19.1601 3.78955 19.3207 3.78955 19.4882H1.78955ZM2.19035 20.4558C2.44698 20.7124 2.79504 20.8566 3.15797 20.8566V18.8566C3.32548 18.8566 3.48612 18.9232 3.60457 19.0416L2.19035 20.4558ZM3.15797 20.8566C3.5209 20.8566 3.86897 20.7124 4.12559 20.4558L2.71138 19.0416C2.82982 18.9232 2.99046 18.8566 3.15797 18.8566V20.8566ZM4.12559 20.4558C4.38222 20.1992 4.52639 19.8511 4.52639 19.4882H2.52639C2.52639 19.3207 2.59294 19.1601 2.71138 19.0416L4.12559 20.4558ZM4.52639 19.4882V18.259H2.52639V19.4882H4.52639ZM4.52639 18.259C4.52639 17.8961 4.38222 17.5481 4.12559 17.2914L2.71138 18.7056C2.59294 18.5872 2.52639 18.4266 2.52639 18.259H4.52639ZM4.12559 17.2914C3.86897 17.0348 3.5209 16.8906 3.15797 16.8906V18.8906C2.99046 18.8906 2.82982 18.8241 2.71138 18.7056L4.12559 17.2914Z" fill="#D0C02F" mask="url(#path-6-inside-2_3338_20705)"/>
<mask id="path-8-inside-3_3338_20705" fill="white">
<path d="M4.68422 18.9062C4.58651 18.9063 4.4928 18.9451 4.4237 19.0142C4.35461 19.0833 4.3158 19.177 4.3158 19.2747V20.3568C4.3158 20.4545 4.35461 20.5482 4.4237 20.6173C4.4928 20.6864 4.58651 20.7252 4.68422 20.7252C4.78193 20.7252 4.87564 20.6864 4.94473 20.6173C5.01382 20.5482 5.05264 20.4545 5.05264 20.3568V19.2747C5.05264 19.177 5.01382 19.0833 4.94473 19.0142C4.87564 18.9451 4.78193 18.9062 4.68422 18.9062Z"/>
</mask>
<path d="M4.68422 18.9062C4.58651 18.9063 4.4928 18.9451 4.4237 19.0142C4.35461 19.0833 4.3158 19.177 4.3158 19.2747V20.3568C4.3158 20.4545 4.35461 20.5482 4.4237 20.6173C4.4928 20.6864 4.58651 20.7252 4.68422 20.7252C4.78193 20.7252 4.87564 20.6864 4.94473 20.6173C5.01382 20.5482 5.05264 20.4545 5.05264 20.3568V19.2747C5.05264 19.177 5.01382 19.0833 4.94473 19.0142C4.87564 18.9451 4.78193 18.9062 4.68422 18.9062Z" fill="#D0C02F"/>
<path d="M4.68422 18.9062V17.9062V18.9062ZM4.3158 19.2747H3.3158H4.3158ZM4.3158 20.3568H3.3158H4.3158ZM5.05264 19.2747H4.05264H5.05264ZM4.68422 17.9062C4.32129 17.9062 3.97322 18.0504 3.7166 18.3071L5.13081 19.7213C5.01237 19.8397 4.85173 19.9062 4.68422 19.9062V17.9062ZM3.7166 18.3071C3.45997 18.5637 3.3158 18.9117 3.3158 19.2747H5.3158C5.3158 19.4422 5.24925 19.6028 5.13081 19.7213L3.7166 18.3071ZM3.3158 19.2747V20.3568H5.3158V19.2747H3.3158ZM3.3158 20.3568C3.3158 20.7197 3.45997 21.0678 3.7166 21.3244L5.13081 19.9102C5.24925 20.0286 5.3158 20.1893 5.3158 20.3568H3.3158ZM3.7166 21.3244C3.97322 21.581 4.32129 21.7252 4.68422 21.7252V19.7252C4.85173 19.7252 5.01237 19.7917 5.13081 19.9102L3.7166 21.3244ZM4.68422 21.7252C5.04715 21.7252 5.39521 21.581 5.65184 21.3244L4.23762 19.9102C4.35606 19.7917 4.51671 19.7252 4.68422 19.7252V21.7252ZM5.65184 21.3244C5.90846 21.0678 6.05264 20.7197 6.05264 20.3568H4.05264C4.05264 20.1893 4.11918 20.0286 4.23762 19.9102L5.65184 21.3244ZM6.05264 20.3568V19.2747H4.05264V20.3568H6.05264ZM6.05264 19.2747C6.05264 18.9117 5.90846 18.5637 5.65184 18.3071L4.23762 19.7213C4.11918 19.6028 4.05264 19.4422 4.05264 19.2747H6.05264ZM5.65184 18.3071C5.39521 18.0504 5.04715 17.9062 4.68422 17.9062V19.9062C4.51671 19.9062 4.35606 19.8397 4.23762 19.7213L5.65184 18.3071Z" fill="#D0C02F" mask="url(#path-8-inside-3_3338_20705)"/>
<mask id="path-10-inside-4_3338_20705" fill="white">
<path d="M6.15785 19.9141C6.06014 19.9141 5.96643 19.9529 5.89734 20.022C5.82824 20.0911 5.78943 20.1848 5.78943 20.2825V21.2179C5.78943 21.3156 5.82824 21.4093 5.89734 21.4784C5.96643 21.5475 6.06014 21.5863 6.15785 21.5863C6.25556 21.5863 6.34927 21.5475 6.41836 21.4784C6.48746 21.4093 6.52627 21.3156 6.52627 21.2179V20.2825C6.52627 20.1848 6.48746 20.0911 6.41836 20.022C6.34927 19.9529 6.25556 19.9141 6.15785 19.9141Z"/>
</mask>
<path d="M6.15785 19.9141C6.06014 19.9141 5.96643 19.9529 5.89734 20.022C5.82824 20.0911 5.78943 20.1848 5.78943 20.2825V21.2179C5.78943 21.3156 5.82824 21.4093 5.89734 21.4784C5.96643 21.5475 6.06014 21.5863 6.15785 21.5863C6.25556 21.5863 6.34927 21.5475 6.41836 21.4784C6.48746 21.4093 6.52627 21.3156 6.52627 21.2179V20.2825C6.52627 20.1848 6.48746 20.0911 6.41836 20.022C6.34927 19.9529 6.25556 19.9141 6.15785 19.9141Z" fill="#D0C02F"/>
<path d="M6.15785 19.9141V18.9141V19.9141ZM5.78943 20.2825H4.78943H5.78943ZM5.78943 21.2179H4.78943H5.78943ZM6.52627 20.2825H5.52627H6.52627ZM6.15785 18.9141C5.79492 18.9141 5.44686 19.0582 5.19023 19.3149L6.60444 20.7291C6.486 20.8475 6.32536 20.9141 6.15785 20.9141V18.9141ZM5.19023 19.3149C4.9336 19.5715 4.78943 19.9196 4.78943 20.2825H6.78943C6.78943 20.45 6.72289 20.6106 6.60444 20.7291L5.19023 19.3149ZM4.78943 20.2825V21.2179H6.78943V20.2825H4.78943ZM4.78943 21.2179C4.78943 21.5808 4.9336 21.9288 5.19023 22.1855L6.60444 20.7713C6.72289 20.8897 6.78943 21.0503 6.78943 21.2179H4.78943ZM5.19023 22.1855C5.44686 22.4421 5.79493 22.5863 6.15785 22.5863V20.5863C6.32535 20.5863 6.48599 20.6528 6.60444 20.7713L5.19023 22.1855ZM6.15785 22.5863C6.52077 22.5863 6.86884 22.4421 7.12547 22.1855L5.71126 20.7713C5.82971 20.6528 5.99035 20.5863 6.15785 20.5863V22.5863ZM7.12547 22.1855C7.3821 21.9288 7.52627 21.5808 7.52627 21.2179H5.52627C5.52627 21.0504 5.59281 20.8897 5.71126 20.7713L7.12547 22.1855ZM7.52627 21.2179V20.2825H5.52627V21.2179H7.52627ZM7.52627 20.2825C7.52627 19.9196 7.3821 19.5715 7.12547 19.3149L5.71126 20.7291C5.59281 20.6106 5.52627 20.45 5.52627 20.2825H7.52627ZM7.12547 19.3149C6.86884 19.0582 6.52078 18.9141 6.15785 18.9141V20.9141C5.99034 20.9141 5.8297 20.8475 5.71126 20.7291L7.12547 19.3149Z" fill="#D0C02F" mask="url(#path-10-inside-4_3338_20705)"/>
<mask id="path-12-inside-5_3338_20705" fill="white">
<path d="M7.68422 20.9219C7.58651 20.9219 7.4928 20.9607 7.4237 21.0298C7.35461 21.0989 7.3158 21.1926 7.3158 21.2903V22.0987C7.3158 22.1964 7.35461 22.2901 7.4237 22.3592C7.4928 22.4283 7.58651 22.4671 7.68422 22.4671C7.78193 22.4671 7.87564 22.4283 7.94473 22.3592C8.01382 22.2901 8.05264 22.1964 8.05264 22.0987V21.2903C8.05264 21.1926 8.01382 21.0989 7.94473 21.0298C7.87564 20.9607 7.78193 20.9219 7.68422 20.9219Z"/>
</mask>
<path d="M7.68422 20.9219C7.58651 20.9219 7.4928 20.9607 7.4237 21.0298C7.35461 21.0989 7.3158 21.1926 7.3158 21.2903V22.0987C7.3158 22.1964 7.35461 22.2901 7.4237 22.3592C7.4928 22.4283 7.58651 22.4671 7.68422 22.4671C7.78193 22.4671 7.87564 22.4283 7.94473 22.3592C8.01382 22.2901 8.05264 22.1964 8.05264 22.0987V21.2903C8.05264 21.1926 8.01382 21.0989 7.94473 21.0298C7.87564 20.9607 7.78193 20.9219 7.68422 20.9219Z" fill="#D0C02F"/>
<path d="M7.3158 22.0987H6.3158H7.3158ZM8.05264 21.2903H7.05264H8.05264ZM7.68422 19.9219C7.3213 19.9219 6.97323 20.066 6.7166 20.3227L8.13081 21.7369C8.01236 21.8553 7.85171 21.9219 7.68422 21.9219V19.9219ZM6.7166 20.3227C6.45996 20.5793 6.3158 20.9274 6.3158 21.2903H8.3158C8.3158 21.4578 8.24926 21.6184 8.13081 21.7369L6.7166 20.3227ZM6.3158 21.2903V22.0987H8.3158V21.2903H6.3158ZM6.3158 22.0987C6.3158 22.4616 6.45996 22.8097 6.7166 23.0663L8.13081 21.6521C8.24926 21.7705 8.3158 21.9312 8.3158 22.0987H6.3158ZM6.7166 23.0663C6.97323 23.3229 7.3213 23.4671 7.68422 23.4671V21.4671C7.85171 21.4671 8.01236 21.5336 8.13081 21.6521L6.7166 23.0663ZM7.68422 23.4671C8.04714 23.4671 8.3952 23.3229 8.65184 23.0663L7.23762 21.6521C7.35607 21.5336 7.51672 21.4671 7.68422 21.4671V23.4671ZM8.65184 23.0663C8.90847 22.8097 9.05264 22.4616 9.05264 22.0987H7.05264C7.05264 21.9312 7.11918 21.7705 7.23762 21.6521L8.65184 23.0663ZM9.05264 22.0987V21.2903H7.05264V22.0987H9.05264ZM9.05264 21.2903C9.05264 20.9274 8.90847 20.5793 8.65184 20.3227L7.23762 21.7369C7.11918 21.6184 7.05264 21.4578 7.05264 21.2903H9.05264ZM8.65184 20.3227C8.3952 20.066 8.04714 19.9219 7.68422 19.9219V21.9219C7.51672 21.9219 7.35607 21.8553 7.23762 21.7369L8.65184 20.3227Z" fill="#D0C02F" mask="url(#path-12-inside-5_3338_20705)"/>
<mask id="path-14-inside-6_3338_20705" fill="white">
<path d="M20.579 13.4531C19.5068 13.4531 18.4587 13.7711 17.5672 14.3667C16.6758 14.9624 15.9809 15.8091 15.5706 16.7996C15.1603 17.7902 15.053 18.8802 15.2621 19.9318C15.4713 20.9834 15.9876 21.9493 16.7458 22.7074C17.5039 23.4656 18.4698 23.9819 19.5214 24.1911C20.573 24.4002 21.663 24.2929 22.6536 23.8826C23.6441 23.4723 24.4908 22.7774 25.0865 21.886C25.6821 20.9945 26.0001 19.9464 26.0001 18.8742C25.9984 17.4369 25.4268 16.059 24.4105 15.0427C23.3942 14.0264 22.0163 13.4548 20.579 13.4531ZM20.579 23.5584C19.6526 23.5584 18.7469 23.2837 17.9766 22.769C17.2063 22.2543 16.6059 21.5227 16.2514 20.6667C15.8968 19.8108 15.8041 18.869 15.9848 17.9603C16.1656 17.0517 16.6117 16.217 17.2668 15.5619C17.9219 14.9068 18.7565 14.4607 19.6652 14.28C20.5738 14.0992 21.5157 14.192 22.3716 14.5465C23.2275 14.9011 23.9591 15.5015 24.4738 16.2718C24.9885 17.0421 25.2632 17.9477 25.2632 18.8742C25.2618 20.1161 24.7679 21.3067 23.8897 22.1849C23.0116 23.063 21.8209 23.557 20.579 23.5584Z"/>
</mask>
<path d="M20.579 13.4531C19.5068 13.4531 18.4587 13.7711 17.5672 14.3667C16.6758 14.9624 15.9809 15.8091 15.5706 16.7996C15.1603 17.7902 15.053 18.8802 15.2621 19.9318C15.4713 20.9834 15.9876 21.9493 16.7458 22.7074C17.5039 23.4656 18.4698 23.9819 19.5214 24.1911C20.573 24.4002 21.663 24.2929 22.6536 23.8826C23.6441 23.4723 24.4908 22.7774 25.0865 21.886C25.6821 20.9945 26.0001 19.9464 26.0001 18.8742C25.9984 17.4369 25.4268 16.059 24.4105 15.0427C23.3942 14.0264 22.0163 13.4548 20.579 13.4531ZM20.579 23.5584C19.6526 23.5584 18.7469 23.2837 17.9766 22.769C17.2063 22.2543 16.6059 21.5227 16.2514 20.6667C15.8968 19.8108 15.8041 18.869 15.9848 17.9603C16.1656 17.0517 16.6117 16.217 17.2668 15.5619C17.9219 14.9068 18.7565 14.4607 19.6652 14.28C20.5738 14.0992 21.5157 14.192 22.3716 14.5465C23.2275 14.9011 23.9591 15.5015 24.4738 16.2718C24.9885 17.0421 25.2632 17.9477 25.2632 18.8742C25.2618 20.1161 24.7679 21.3067 23.8897 22.1849C23.0116 23.063 21.8209 23.557 20.579 23.5584Z" fill="#D0C02F"/>
<path d="M20.579 13.4531L20.5801 12.4531H20.579V13.4531ZM26.0001 18.8742H27.0001L27.0001 18.873L26.0001 18.8742ZM20.579 23.5584V24.5584L20.5801 24.5584L20.579 23.5584ZM25.2632 18.8742L26.2632 18.8753V18.8742H25.2632ZM20.579 12.4531C19.3091 12.4531 18.0676 12.8297 17.0117 13.5353L18.1228 15.1982C18.8498 14.7124 19.7046 14.4531 20.579 14.4531V12.4531ZM17.0117 13.5353C15.9557 14.2408 15.1327 15.2437 14.6467 16.4169L16.4945 17.1823C16.8291 16.3745 17.3958 15.684 18.1228 15.1982L17.0117 13.5353ZM14.6467 16.4169C14.1607 17.5902 14.0336 18.8813 14.2813 20.1269L16.2429 19.7367C16.0723 18.8791 16.1599 17.9902 16.4945 17.1823L14.6467 16.4169ZM14.2813 20.1269C14.5291 21.3724 15.1406 22.5165 16.0386 23.4145L17.4529 22.0003C16.8346 21.382 16.4135 20.5943 16.2429 19.7367L14.2813 20.1269ZM16.0386 23.4145C16.9366 24.3126 18.0808 24.9241 19.3263 25.1719L19.7165 23.2103C18.8589 23.0397 18.0712 22.6186 17.4529 22.0003L16.0386 23.4145ZM19.3263 25.1719C20.5719 25.4196 21.863 25.2925 23.0362 24.8065L22.2709 22.9587C21.463 23.2933 20.5741 23.3809 19.7165 23.2103L19.3263 25.1719ZM23.0362 24.8065C24.2095 24.3205 25.2124 23.4975 25.9179 22.4415L24.255 21.3304C23.7692 22.0574 23.0787 22.6241 22.2709 22.9587L23.0362 24.8065ZM25.9179 22.4415C26.6235 21.3856 27.0001 20.1441 27.0001 18.8742H25.0001C25.0001 19.7486 24.7408 20.6033 24.255 21.3304L25.9179 22.4415ZM27.0001 18.873C26.9981 17.171 26.3211 15.5392 25.1176 14.3356L23.7034 15.7498C24.5324 16.5789 24.9987 17.7029 25.0001 18.8753L27.0001 18.873ZM25.1176 14.3356C23.914 13.1321 22.2822 12.4551 20.5801 12.4531L20.5779 14.4531C21.7503 14.4545 22.8743 14.9208 23.7034 15.7498L25.1176 14.3356ZM20.579 22.5584C19.8503 22.5584 19.138 22.3423 18.5322 21.9375L17.421 23.6004C18.3558 24.225 19.4548 24.5584 20.579 24.5584V22.5584ZM18.5322 21.9375C17.9263 21.5327 17.4541 20.9573 17.1752 20.2841L15.3275 21.0494C15.7577 22.0881 16.4863 22.9758 17.421 23.6004L18.5322 21.9375ZM17.1752 20.2841C16.8964 19.6109 16.8234 18.8701 16.9656 18.1554L15.004 17.7652C14.7847 18.8679 14.8973 20.0108 15.3275 21.0494L17.1752 20.2841ZM16.9656 18.1554C17.1078 17.4408 17.4586 16.7843 17.9739 16.269L16.5597 14.8548C15.7647 15.6498 15.2234 16.6626 15.004 17.7652L16.9656 18.1554ZM17.9739 16.269C18.4891 15.7538 19.1456 15.4029 19.8603 15.2608L19.4701 13.2992C18.3675 13.5185 17.3546 14.0599 16.5597 14.8548L17.9739 16.269ZM19.8603 15.2608C20.5749 15.1186 21.3157 15.1916 21.9889 15.4704L22.7543 13.6227C21.7156 13.1924 20.5727 13.0799 19.4701 13.2992L19.8603 15.2608ZM21.9889 15.4704C22.6621 15.7493 23.2375 16.2215 23.6423 16.8273L25.3053 15.7162C24.6807 14.7814 23.7929 14.0529 22.7543 13.6227L21.9889 15.4704ZM23.6423 16.8273C24.0472 17.4332 24.2632 18.1455 24.2632 18.8742H26.2632C26.2632 17.7499 25.9299 16.651 25.3053 15.7162L23.6423 16.8273ZM24.2632 18.8731C24.2621 19.8501 23.8735 20.7869 23.1826 21.4778L24.5968 22.892C25.6622 21.8266 26.2615 20.382 26.2632 18.8753L24.2632 18.8731ZM23.1826 21.4778C22.4917 22.1687 21.555 22.5573 20.5779 22.5584L20.5801 24.5584C22.0869 24.5567 23.5314 23.9574 24.5968 22.892L23.1826 21.4778Z" fill="#D0C02F" mask="url(#path-14-inside-6_3338_20705)"/>
<mask id="path-16-inside-7_3338_20705" fill="white">
<path d="M12.4131 14.5403C12.4806 14.5404 12.5469 14.5225 12.6051 14.4884C12.6633 14.4542 12.7114 14.4052 12.7442 14.3462L12.9473 13.9802V17.1475C12.9473 17.2452 12.9861 17.3389 13.0552 17.408C13.1243 17.4771 13.218 17.5159 13.3157 17.5159C13.4135 17.5159 13.5072 17.4771 13.5763 17.408C13.6453 17.3389 13.6842 17.2452 13.6842 17.1475V13.4438L13.9836 13.7678C14.0165 13.803 14.0561 13.8313 14.1 13.8511C14.1438 13.8709 14.1912 13.8818 14.2394 13.8832C14.2875 13.8846 14.3354 13.8765 14.3804 13.8592C14.4253 13.842 14.4664 13.816 14.5013 13.7828C14.5364 13.7495 14.5646 13.7096 14.5843 13.6654C14.604 13.6212 14.6148 13.5735 14.616 13.5251C14.6172 13.4767 14.6089 13.4285 14.5916 13.3834C14.5742 13.3382 14.5481 13.2969 14.5147 13.2618L13.5718 12.2639C13.5317 12.2215 13.4821 12.1892 13.427 12.1697C13.372 12.1502 13.3131 12.144 13.2552 12.1516C13.1974 12.1593 13.1421 12.1806 13.094 12.2137C13.046 12.2469 13.0065 12.291 12.9788 12.3424L12.089 13.9973C12.0588 14.0534 12.0437 14.1164 12.0451 14.1801C12.0466 14.2438 12.0645 14.306 12.0971 14.3607C12.1298 14.4154 12.176 14.4607 12.2314 14.4921C12.2868 14.5236 12.3494 14.5402 12.4131 14.5403Z"/>
</mask>
<path d="M12.4131 14.5403C12.4806 14.5404 12.5469 14.5225 12.6051 14.4884C12.6633 14.4542 12.7114 14.4052 12.7442 14.3462L12.9473 13.9802V17.1475C12.9473 17.2452 12.9861 17.3389 13.0552 17.408C13.1243 17.4771 13.218 17.5159 13.3157 17.5159C13.4135 17.5159 13.5072 17.4771 13.5763 17.408C13.6453 17.3389 13.6842 17.2452 13.6842 17.1475V13.4438L13.9836 13.7678C14.0165 13.803 14.0561 13.8313 14.1 13.8511C14.1438 13.8709 14.1912 13.8818 14.2394 13.8832C14.2875 13.8846 14.3354 13.8765 14.3804 13.8592C14.4253 13.842 14.4664 13.816 14.5013 13.7828C14.5364 13.7495 14.5646 13.7096 14.5843 13.6654C14.604 13.6212 14.6148 13.5735 14.616 13.5251C14.6172 13.4767 14.6089 13.4285 14.5916 13.3834C14.5742 13.3382 14.5481 13.2969 14.5147 13.2618L13.5718 12.2639C13.5317 12.2215 13.4821 12.1892 13.427 12.1697C13.372 12.1502 13.3131 12.144 13.2552 12.1516C13.1974 12.1593 13.1421 12.1806 13.094 12.2137C13.046 12.2469 13.0065 12.291 12.9788 12.3424L12.089 13.9973C12.0588 14.0534 12.0437 14.1164 12.0451 14.1801C12.0466 14.2438 12.0645 14.306 12.0971 14.3607C12.1298 14.4154 12.176 14.4607 12.2314 14.4921C12.2868 14.5236 12.3494 14.5402 12.4131 14.5403Z" fill="#D0C02F"/>
<path d="M12.4131 14.5403L12.4153 13.5403L12.4141 13.5403L12.4131 14.5403ZM12.7442 14.3462L13.6177 14.833L13.6186 14.8314L12.7442 14.3462ZM12.9473 13.9802H13.9473V10.1173L12.0729 13.495L12.9473 13.9802ZM13.6842 13.4438L14.4185 12.7651L12.6842 10.8887V13.4438H13.6842ZM13.9836 13.7678L13.2493 14.4466L13.2534 14.451L13.9836 13.7678ZM14.5013 13.7828L13.8129 13.0575L13.8118 13.0585L14.5013 13.7828ZM14.5147 13.2618L13.7879 13.9486L13.7899 13.9507L14.5147 13.2618ZM13.5718 12.2639L14.2986 11.5771L14.2985 11.577L13.5718 12.2639ZM12.9788 12.3424L12.0984 11.8681L12.098 11.8689L12.9788 12.3424ZM12.089 13.9973L12.9697 14.471L12.9698 14.4709L12.089 13.9973ZM12.4109 15.5403C12.6569 15.5408 12.8985 15.4755 13.1107 15.3511L12.0995 13.6256C12.1952 13.5695 12.3043 13.54 12.4153 13.5403L12.4109 15.5403ZM13.1107 15.3511C13.323 15.2267 13.498 15.0478 13.6177 14.833L11.8707 13.8594C11.9247 13.7625 12.0037 13.6817 12.0995 13.6256L13.1107 15.3511ZM13.6186 14.8314L13.8217 14.4654L12.0729 13.495L11.8698 13.861L13.6186 14.8314ZM11.9473 13.9802V17.1475H13.9473V13.9802H11.9473ZM11.9473 17.1475C11.9473 17.5104 12.0915 17.8585 12.3481 18.1151L13.7623 16.7009C13.8808 16.8193 13.9473 16.98 13.9473 17.1475H11.9473ZM12.3481 18.1151C12.6048 18.3717 12.9528 18.5159 13.3157 18.5159V16.5159C13.4832 16.5159 13.6439 16.5824 13.7623 16.7009L12.3481 18.1151ZM13.3157 18.5159C13.6787 18.5159 14.0267 18.3717 14.2834 18.1151L12.8691 16.7009C12.9876 16.5824 13.1482 16.5159 13.3157 16.5159V18.5159ZM14.2834 18.1151C14.54 17.8585 14.6842 17.5104 14.6842 17.1475H12.6842C12.6842 16.98 12.7507 16.8193 12.8691 16.7009L14.2834 18.1151ZM14.6842 17.1475V13.4438H12.6842V17.1475H14.6842ZM12.9498 14.1226L13.2493 14.4466L14.718 13.0891L14.4185 12.7651L12.9498 14.1226ZM13.2534 14.451C13.3765 14.5826 13.5245 14.6885 13.6887 14.7626L14.5112 12.9396C14.5877 12.9741 14.6566 13.0234 14.7139 13.0847L13.2534 14.451ZM13.6887 14.7626C13.8529 14.8367 14.0303 14.8776 14.2104 14.8828L14.2683 12.8836C14.3522 12.8861 14.4347 12.9051 14.5112 12.9396L13.6887 14.7626ZM14.2104 14.8828C14.3905 14.888 14.5699 14.8575 14.7382 14.793L14.0226 12.9254C14.1009 12.8954 14.1845 12.8812 14.2683 12.8836L14.2104 14.8828ZM14.7382 14.793C14.9064 14.7286 15.0603 14.6314 15.1908 14.5071L13.8118 13.0585C13.8726 13.0007 13.9442 12.9554 14.0226 12.9254L14.7382 14.793ZM15.1897 14.5082C15.3201 14.3844 15.4249 14.2362 15.498 14.0719L13.6707 13.2589C13.7044 13.1831 13.7527 13.1146 13.8129 13.0575L15.1897 14.5082ZM15.498 14.0719C15.571 13.9076 15.611 13.7306 15.6157 13.5508L13.6163 13.4993C13.6185 13.4164 13.6369 13.3347 13.6707 13.2589L15.498 14.0719ZM15.6157 13.5508C15.6203 13.3711 15.5895 13.1922 15.5249 13.0244L13.6582 13.7423C13.6284 13.6649 13.6142 13.5823 13.6163 13.4993L15.6157 13.5508ZM15.5249 13.0244C15.4604 12.8566 15.3634 12.7032 15.2396 12.5728L13.7899 13.9507C13.7327 13.8906 13.688 13.8197 13.6582 13.7423L15.5249 13.0244ZM15.2416 12.575L14.2986 11.5771L12.845 12.9508L13.7879 13.9486L15.2416 12.575ZM14.2985 11.577C14.1497 11.4196 13.9656 11.2997 13.7614 11.2272L13.0926 13.1121C12.9985 13.0787 12.9137 13.0235 12.8451 12.9509L14.2985 11.577ZM13.7614 11.2272C13.5573 11.1548 13.3388 11.1318 13.124 11.1603L13.3864 13.143C13.2874 13.1561 13.1867 13.1455 13.0926 13.1121L13.7614 11.2272ZM13.124 11.1603C12.9093 11.1887 12.7043 11.2677 12.526 11.3907L13.6621 13.0368C13.5799 13.0935 13.4854 13.1299 13.3864 13.143L13.124 11.1603ZM12.526 11.3907C12.3477 11.5138 12.2012 11.6774 12.0984 11.8681L13.8592 12.8167C13.8118 12.9046 13.7443 12.98 13.6621 13.0368L12.526 11.3907ZM12.098 11.8689L11.2082 13.5238L12.9698 14.4709L13.8596 12.816L12.098 11.8689ZM11.2083 13.5236C11.0962 13.732 11.0401 13.9658 11.0454 14.2024L13.0449 14.1577C13.0473 14.2669 13.0214 14.3749 12.9697 14.471L11.2083 13.5236ZM11.0454 14.2024C11.0507 14.4389 11.1172 14.6701 11.2385 14.8732L12.9558 13.8481C13.0117 13.9419 13.0424 14.0486 13.0449 14.1577L11.0454 14.2024ZM11.2385 14.8732C11.3597 15.0764 11.5316 15.2446 11.7373 15.3616L12.7255 13.6227C12.8205 13.6767 12.8998 13.7544 12.9558 13.8481L11.2385 14.8732ZM11.7373 15.3616C11.943 15.4785 12.1755 15.54 12.4121 15.5403L12.4141 13.5403C12.5233 13.5404 12.6306 13.5688 12.7255 13.6227L11.7373 15.3616Z" fill="#D0C02F" mask="url(#path-16-inside-7_3338_20705)"/>
<mask id="path-18-inside-8_3338_20705" fill="white">
<path d="M14.0612 17.6678L12.383 18.6367C12.3407 18.6607 12.3037 18.6928 12.2739 18.7312C12.2441 18.7696 12.2223 18.8135 12.2095 18.8604C12.1968 18.9073 12.1935 18.9563 12.1997 19.0044C12.206 19.0526 12.2217 19.0991 12.246 19.1412C12.2703 19.1832 12.3027 19.2201 12.3413 19.2496C12.3799 19.2791 12.4239 19.3007 12.4709 19.3131C12.5179 19.3255 12.5668 19.3286 12.615 19.322C12.6631 19.3154 12.7095 19.2994 12.7514 19.2748L14.4297 18.3059C14.4719 18.2819 14.509 18.2497 14.5387 18.2113C14.5685 18.1729 14.5904 18.129 14.6031 18.0821C14.6159 18.0352 14.6192 17.9863 14.6129 17.9381C14.6067 17.8899 14.5909 17.8435 14.5666 17.8014C14.5423 17.7593 14.51 17.7225 14.4714 17.6929C14.4328 17.6634 14.3887 17.6418 14.3417 17.6294C14.2948 17.617 14.2458 17.614 14.1977 17.6206C14.1495 17.6272 14.1032 17.6432 14.0612 17.6678Z"/>
</mask>
<path d="M14.0612 17.6678L12.383 18.6367C12.3407 18.6607 12.3037 18.6928 12.2739 18.7312C12.2441 18.7696 12.2223 18.8135 12.2095 18.8604C12.1968 18.9073 12.1935 18.9563 12.1997 19.0044C12.206 19.0526 12.2217 19.0991 12.246 19.1412C12.2703 19.1832 12.3027 19.2201 12.3413 19.2496C12.3799 19.2791 12.4239 19.3007 12.4709 19.3131C12.5179 19.3255 12.5668 19.3286 12.615 19.322C12.6631 19.3154 12.7095 19.2994 12.7514 19.2748L14.4297 18.3059C14.4719 18.2819 14.509 18.2497 14.5387 18.2113C14.5685 18.1729 14.5904 18.129 14.6031 18.0821C14.6159 18.0352 14.6192 17.9863 14.6129 17.9381C14.6067 17.8899 14.5909 17.8435 14.5666 17.8014C14.5423 17.7593 14.51 17.7225 14.4714 17.6929C14.4328 17.6634 14.3887 17.6418 14.3417 17.6294C14.2948 17.617 14.2458 17.614 14.1977 17.6206C14.1495 17.6272 14.1032 17.6432 14.0612 17.6678Z" fill="#D0C02F"/>
<path d="M14.0612 17.6678L14.5612 18.5338L14.567 18.5305L14.0612 17.6678ZM12.383 18.6367L12.8772 19.506L12.883 19.5027L12.383 18.6367ZM12.7514 19.2748L12.2514 18.4087L12.2457 18.4121L12.7514 19.2748ZM14.4297 18.3059L13.9354 17.4365L13.9297 17.4398L14.4297 18.3059ZM13.5613 16.8017L11.883 17.7706L12.883 19.5027L14.5612 18.5338L13.5613 16.8017ZM11.8887 17.7674C11.7318 17.8566 11.5942 17.9759 11.4836 18.1185L13.0642 19.3439C13.0132 19.4097 12.9496 19.4648 12.8772 19.506L11.8887 17.7674ZM11.4836 18.1185C11.373 18.2612 11.2917 18.4243 11.2445 18.5984L13.1746 19.1224C13.1528 19.2028 13.1153 19.2781 13.0642 19.3439L11.4836 18.1185ZM11.2445 18.5984C11.1972 18.7726 11.1848 18.9544 11.2081 19.1333L13.1914 18.8755C13.2021 18.9581 13.1964 19.0421 13.1746 19.1224L11.2445 18.5984ZM11.2081 19.1333C11.2313 19.3123 11.2898 19.4849 11.38 19.6412L13.112 18.6412C13.1537 18.7133 13.1807 18.7929 13.1914 18.8755L11.2081 19.1333ZM11.38 19.6412C11.4702 19.7975 11.5905 19.9344 11.7339 20.044L12.9487 18.4552C13.0149 18.5058 13.0704 18.569 13.112 18.6412L11.38 19.6412ZM11.7339 20.044C11.8772 20.1536 12.0408 20.2338 12.2153 20.2799L12.7265 18.3463C12.807 18.3676 12.8826 18.4047 12.9487 18.4552L11.7339 20.044ZM12.2153 20.2799C12.3898 20.326 12.5716 20.3372 12.7505 20.3128L12.4795 18.3312C12.562 18.3199 12.646 18.3251 12.7265 18.3463L12.2153 20.2799ZM12.7505 20.3128C12.9293 20.2883 13.1015 20.2287 13.2571 20.1375L12.2457 18.4121C12.3175 18.37 12.397 18.3425 12.4795 18.3312L12.7505 20.3128ZM13.2514 20.1408L14.9296 19.1719L13.9297 17.4398L12.2514 18.4087L13.2514 20.1408ZM14.9239 19.1752C15.0808 19.086 15.2185 18.9666 15.3291 18.824L13.7484 17.5986C13.7994 17.5328 13.863 17.4777 13.9354 17.4366L14.9239 19.1752ZM15.3291 18.824C15.4396 18.6814 15.5209 18.5183 15.5682 18.3441L13.6381 17.8201C13.6599 17.7397 13.6974 17.6645 13.7484 17.5986L15.3291 18.824ZM15.5682 18.3441C15.6155 18.17 15.6278 17.9882 15.6046 17.8092L13.6213 18.067C13.6105 17.9844 13.6162 17.9005 13.6381 17.8201L15.5682 18.3441ZM15.6046 17.8092C15.5813 17.6303 15.5229 17.4577 15.4327 17.3014L13.7006 18.3014C13.659 18.2293 13.632 18.1496 13.6213 18.067L15.6046 17.8092ZM15.4327 17.3014C15.3424 17.1451 15.2222 17.0082 15.0788 16.8986L13.8639 18.4873C13.7978 18.4367 13.7423 18.3735 13.7006 18.3014L15.4327 17.3014ZM15.0788 16.8986C14.9354 16.789 14.7718 16.7088 14.5973 16.6626L14.0861 18.5962C14.0056 18.5749 13.9301 18.5379 13.8639 18.4873L15.0788 16.8986ZM14.5973 16.6626C14.4229 16.6165 14.241 16.6054 14.0622 16.6298L14.3331 18.6114C14.2506 18.6226 14.1667 18.6175 14.0861 18.5962L14.5973 16.6626ZM14.0622 16.6298C13.8834 16.6543 13.7112 16.7138 13.5555 16.8051L14.567 18.5305C14.4951 18.5726 14.4157 18.6001 14.3331 18.6114L14.0622 16.6298Z" fill="#D0C02F" mask="url(#path-18-inside-8_3338_20705)"/>
<mask id="path-20-inside-9_3338_20705" fill="white">
<path d="M20.9474 18.7117V15.595C20.9474 15.4973 20.9086 15.4036 20.8395 15.3345C20.7704 15.2654 20.6767 15.2266 20.579 15.2266C20.4813 15.2266 20.3876 15.2654 20.3185 15.3345C20.2494 15.4036 20.2106 15.4973 20.2106 15.595V18.8715C20.2106 18.9219 20.2209 18.9718 20.241 19.018C20.261 19.0643 20.2904 19.1059 20.3272 19.1404L22.0136 20.7194C22.0851 20.7856 22.1798 20.8208 22.2771 20.8173C22.3744 20.8139 22.4664 20.772 22.533 20.7009C22.5996 20.6298 22.6353 20.5353 22.6323 20.4379C22.6293 20.3406 22.588 20.2484 22.5172 20.1815L20.9474 18.7117Z"/>
</mask>
<path d="M20.9474 18.7117V15.595C20.9474 15.4973 20.9086 15.4036 20.8395 15.3345C20.7704 15.2654 20.6767 15.2266 20.579 15.2266C20.4813 15.2266 20.3876 15.2654 20.3185 15.3345C20.2494 15.4036 20.2106 15.4973 20.2106 15.595V18.8715C20.2106 18.9219 20.2209 18.9718 20.241 19.018C20.261 19.0643 20.2904 19.1059 20.3272 19.1404L22.0136 20.7194C22.0851 20.7856 22.1798 20.8208 22.2771 20.8173C22.3744 20.8139 22.4664 20.772 22.533 20.7009C22.5996 20.6298 22.6353 20.5353 22.6323 20.4379C22.6293 20.3406 22.588 20.2484 22.5172 20.1815L20.9474 18.7117Z" fill="#D0C02F"/>
<path d="M20.9474 18.7117H19.9474V19.1453L20.264 19.4417L20.9474 18.7117ZM20.2106 18.8715H19.2106V18.8715L20.2106 18.8715ZM20.3272 19.1404L21.0107 18.4104L21.0106 18.4104L20.3272 19.1404ZM22.0136 20.7194L21.3302 21.4493L21.3339 21.4528L22.0136 20.7194ZM22.5172 20.1815L23.2043 19.4549L23.2007 19.4515L22.5172 20.1815ZM21.9474 18.7117V15.595H19.9474V18.7117H21.9474ZM21.9474 15.595C21.9474 15.2321 21.8032 14.884 21.5466 14.6274L20.1324 16.0416C20.014 15.9231 19.9474 15.7625 19.9474 15.595H21.9474ZM21.5466 14.6274C21.29 14.3707 20.9419 14.2266 20.579 14.2266V16.2266C20.4115 16.2266 20.2508 16.16 20.1324 16.0416L21.5466 14.6274ZM20.579 14.2266C20.2161 14.2266 19.868 14.3707 19.6114 14.6274L21.0256 16.0416C20.9071 16.16 20.7465 16.2266 20.579 16.2266V14.2266ZM19.6114 14.6274C19.3547 14.884 19.2106 15.2321 19.2106 15.595H21.2106C21.2106 15.7625 21.144 15.9231 21.0256 16.0416L19.6114 14.6274ZM19.2106 15.595V18.8715H21.2106V15.595H19.2106ZM19.2106 18.8715C19.2106 19.0588 19.249 19.2441 19.3235 19.4159L21.1584 18.6202C21.1928 18.6995 21.2106 18.785 21.2106 18.8714L19.2106 18.8715ZM19.3235 19.4159C19.398 19.5877 19.507 19.7424 19.6438 19.8704L21.0106 18.4104C21.0737 18.4695 21.124 18.5409 21.1584 18.6202L19.3235 19.4159ZM19.6437 19.8704L21.3302 21.4493L22.6971 19.9894L21.0107 18.4104L19.6437 19.8704ZM21.3339 21.4528C21.5992 21.6987 21.9511 21.8295 22.3126 21.8167L22.2417 19.818C22.4085 19.812 22.5709 19.8724 22.6934 19.9859L21.3339 21.4528ZM22.3126 21.8167C22.6741 21.8039 23.0158 21.6484 23.263 21.3844L21.803 20.0175C21.9171 19.8956 22.0748 19.8239 22.2417 19.818L22.3126 21.8167ZM23.263 21.3844C23.5102 21.1203 23.6428 20.7691 23.6318 20.4075L21.6328 20.4683C21.6277 20.3015 21.6889 20.1394 21.803 20.0175L23.263 21.3844ZM23.6318 20.4075C23.6208 20.046 23.4671 19.7035 23.2043 19.4549L21.8301 20.908C21.7088 20.7933 21.6378 20.6352 21.6328 20.4683L23.6318 20.4075ZM23.2007 19.4515L21.6309 17.9817L20.264 19.4417L21.8337 20.9114L23.2007 19.4515Z" fill="#D0C02F" mask="url(#path-20-inside-9_3338_20705)"/>
</svg>
