<svg width="25" height="24" viewBox="0 0 25 24" fill="none" xmlns="http://www.w3.org/2000/svg">
<g clip-path="url(#clip0_3338_22795)">
<path d="M20.6997 22H4.69971V20C4.69971 18.6739 5.22649 17.4021 6.16417 16.4645C7.10186 15.5268 8.37362 15 9.69971 15H15.6997C17.0258 15 18.2976 15.5268 19.2352 16.4645C20.1729 17.4021 20.6997 18.6739 20.6997 20V22ZM12.6997 13C11.9118 13 11.1316 12.8448 10.4036 12.5433C9.67565 12.2417 9.01422 11.7998 8.45707 11.2426C7.89991 10.6855 7.45796 10.0241 7.15643 9.2961C6.8549 8.56815 6.69971 7.78793 6.69971 7C6.69971 6.21207 6.8549 5.43185 7.15643 4.7039C7.45796 3.97595 7.89991 3.31451 8.45707 2.75736C9.01422 2.20021 9.67565 1.75825 10.4036 1.45672C11.1316 1.15519 11.9118 1 12.6997 1C14.291 1 15.8171 1.63214 16.9423 2.75736C18.0676 3.88258 18.6997 5.4087 18.6997 7C18.6997 8.5913 18.0676 10.1174 16.9423 11.2426C15.8171 12.3679 14.291 13 12.6997 13Z" fill="#254EDB"/>
<path d="M20.6997 22H4.69971V20C4.69971 18.6739 5.22649 17.4021 6.16417 16.4645C7.10186 15.5268 8.37362 15 9.69971 15H15.6997C17.0258 15 18.2976 15.5268 19.2352 16.4645C20.1729 17.4021 20.6997 18.6739 20.6997 20V22ZM12.6997 13C11.9118 13 11.1316 12.8448 10.4036 12.5433C9.67565 12.2417 9.01422 11.7998 8.45707 11.2426C7.89991 10.6855 7.45796 10.0241 7.15643 9.2961C6.8549 8.56815 6.69971 7.78793 6.69971 7C6.69971 6.21207 6.8549 5.43185 7.15643 4.7039C7.45796 3.97595 7.89991 3.31451 8.45707 2.75736C9.01422 2.20021 9.67565 1.75825 10.4036 1.45672C11.1316 1.15519 11.9118 1 12.6997 1C14.291 1 15.8171 1.63214 16.9423 2.75736C18.0676 3.88258 18.6997 5.4087 18.6997 7C18.6997 8.5913 18.0676 10.1174 16.9423 11.2426C15.8171 12.3679 14.291 13 12.6997 13Z" fill="#484C52"/>
</g>
<defs>
<clipPath id="clip0_3338_22795">
<rect width="24" height="24" fill="white" transform="translate(0.699707)"/>
</clipPath>
</defs>
</svg>
