<svg width="195" height="195" viewBox="0 0 195 195" fill="none" xmlns="http://www.w3.org/2000/svg">
<path d="M183.763 102.439C179.594 117.997 169.691 135.352 154.027 141.71C130.359 151.318 129.328 171.236 85.5143 173.593C78.6831 173.961 72.3027 173.607 66.379 172.633C63.1946 172.11 60.1409 171.403 57.2241 170.531C30.7408 162.647 15.2656 141.193 11.8843 117.519C7.43202 86.383 27.8267 69.3865 41.1729 59.2995C54.5194 49.2125 68.3738 13.7541 111.428 11.0982C117.993 10.6961 124.606 10.9652 131.096 12.0744C145.91 14.5997 161.417 21.8381 171.158 33.6582C171.889 34.5462 172.593 35.4592 173.272 36.3932C186.542 54.6675 189.449 81.2276 183.763 102.439Z" fill="#0043B4"/>
<path opacity="0.7" d="M183.763 102.439C179.594 117.997 169.691 135.352 154.027 141.71C130.359 151.318 129.328 171.236 85.5143 173.593C78.6831 173.961 72.3027 173.607 66.379 172.633C63.1946 172.11 60.1409 171.403 57.2241 170.531C30.7408 162.647 15.2656 141.193 11.8843 117.519C7.43202 86.383 27.8267 69.3865 41.1729 59.2995C54.5194 49.2125 68.3738 13.7541 111.428 11.0982C117.993 10.6961 124.606 10.9652 131.096 12.0744C145.91 14.5997 161.417 21.8381 171.158 33.6582C171.889 34.5462 172.593 35.4592 173.272 36.3932C186.542 54.6675 189.449 81.2276 183.763 102.439Z" fill="white"/>
<path opacity="0.3" d="M34.4605 43.1792V40.9694C34.4605 36.6065 31.5582 35.0625 28.5922 35.0625C25.5681 35.0625 22.7894 37.2855 22.7894 40.9694V43.1792H21.9634V55.4174H35.2214V43.1792H34.4605ZM28.9838 49.9051V52.1223H27.728V49.9051C27.1149 49.6567 26.6816 49.0573 26.6816 48.3549C26.6816 47.4302 27.4312 46.6806 28.3559 46.6806C29.2806 46.6806 30.0301 47.4302 30.0301 48.3549C30.0301 49.0573 29.5968 49.6563 28.9838 49.9051ZM32.6232 43.1792H24.5612V40.9694C24.5612 38.7468 26.3696 36.9384 28.5922 36.9384C30.8148 36.9384 32.6232 38.459 32.6232 40.9694V43.1792Z" stroke="black" stroke-miterlimit="10"/>
<path opacity="0.3" d="M81.2366 30.6433H43.6586C40.7562 30.6433 38.4033 28.2904 38.4033 25.3881C38.4033 22.4857 40.7562 20.1328 43.6586 20.1328H81.2366C84.139 20.1328 86.4919 22.4857 86.4919 25.3881C86.4919 28.2904 84.139 30.6433 81.2366 30.6433Z" stroke="black" stroke-miterlimit="10"/>
<g opacity="0.3">
<path d="M48.4023 24.902L49.4978 26.1114L48.9709 26.5045L48.1539 25.0673L47.3477 26.5045L46.8209 26.1114L47.9062 24.902L46.3037 24.5713L46.4999 23.9402L48.0092 24.6021L47.8232 22.9688H48.4846L48.3091 24.6021L49.8184 23.9512L50.0146 24.5814L48.4023 24.902Z" fill="black"/>
<path d="M52.4843 24.902L53.5798 26.1114L53.0526 26.5045L52.2355 25.0673L51.4294 26.5045L50.9021 26.1114L51.9875 24.902L50.3857 24.5713L50.5819 23.9402L52.0912 24.6021L51.9052 22.9688H52.567L52.3915 24.6021L53.9008 23.9512L54.097 24.5814L52.4843 24.902Z" fill="black"/>
<path d="M56.5669 24.902L57.6624 26.1114L57.1351 26.5045L56.318 25.0673L55.5115 26.5045L54.9842 26.1114L56.07 24.902L54.4683 24.5713L54.6644 23.9402L56.1737 24.6021L55.9877 22.9688H56.6495L56.474 24.6021L57.9833 23.9512L58.1795 24.5814L56.5669 24.902Z" fill="black"/>
<path d="M60.6489 24.902L61.7444 26.1114L61.2171 26.5045L60.4001 25.0673L59.5935 26.5045L59.0663 26.1114L60.152 24.902L58.5503 24.5713L58.7465 23.9402L60.2562 24.6021L60.0701 22.9688H60.732L60.5565 24.6021L62.0658 23.9512L62.2619 24.5814L60.6489 24.902Z" fill="black"/>
<path d="M64.7314 24.902L65.8269 26.1114L65.2996 26.5045L64.4826 25.0673L63.6765 26.5045L63.1492 26.1114L64.2345 24.902L62.6328 24.5713L62.829 23.9402L64.3383 24.6021L64.1523 22.9688H64.8141L64.6386 24.6021L66.1479 23.9512L66.344 24.5814L64.7314 24.902Z" fill="black"/>
<path d="M68.8134 24.902L69.9089 26.1114L69.3821 26.5045L68.565 25.0673L67.7589 26.5045L67.2316 26.1114L68.317 24.902L66.7148 24.5713L66.911 23.9402L68.4203 24.6021L68.2343 22.9688H68.8961L68.7206 24.6021L70.2299 23.9512L70.4261 24.5814L68.8134 24.902Z" fill="black"/>
<path d="M72.8968 24.902L73.9923 26.1114L73.4651 26.5045L72.648 25.0673L71.8415 26.5045L71.3146 26.1114L72.4 24.902L70.7979 24.5713L70.994 23.9402L72.5033 24.6021L72.3173 22.9688H72.9791L72.8036 24.6021L74.3129 23.9512L74.5091 24.5814L72.8968 24.902Z" fill="black"/>
<path d="M76.9789 24.902L78.0744 26.1114L77.5475 26.5045L76.7304 25.0673L75.9239 26.5045L75.3966 26.1114L76.4824 24.902L74.8799 24.5713L75.0761 23.9402L76.5854 24.6021L76.3993 22.9688H77.0612L76.8857 24.6021L78.395 23.9512L78.5911 24.5814L76.9789 24.902Z" fill="black"/>
</g>
<path opacity="0.3" d="M32.6448 91.8186C32.2981 91.2196 31.8125 90.8791 31.3043 90.8791H30.4198V90.0862C31.0512 89.3433 31.4596 88.2139 31.4596 87.0548C31.4596 85.0658 30.2626 83.4531 28.7861 83.4531C27.3096 83.4531 26.1127 85.0658 26.1127 87.0548C26.1127 88.169 26.4882 89.2575 27.0779 90.0001V90.8795H25.8954C25.3744 90.8795 24.8767 91.2196 24.5211 91.819L22.9189 94.5186H28.3403H28.9343H34.2071L32.6448 91.8186Z" stroke="black" stroke-miterlimit="10"/>
<path opacity="0.3" d="M36.3932 92.9824C38.1669 88.7003 36.1335 83.7911 31.8514 82.0174C27.5694 80.2436 22.6602 82.277 20.8864 86.5591C19.1127 90.8412 21.1461 95.7504 25.4282 97.5241C29.7103 99.2979 34.6195 97.2644 36.3932 92.9824Z" stroke="black" stroke-miterlimit="10"/>
<g opacity="0.2">
<path d="M91.3874 126.265C76.8583 118.151 67.0104 102.62 67.0104 84.8299C67.0104 58.6789 88.2857 37.4036 114.437 37.4036C117.702 37.4036 120.889 37.7421 123.97 38.3743L122.76 42.4307L136.237 39.2237L126.721 29.1562L125.565 33.0278C121.975 32.2571 118.253 31.8461 114.436 31.8461C85.2207 31.8461 61.4521 55.6146 61.4521 84.8303C61.4521 105.296 73.1167 123.087 90.146 131.909L86.794 126.355L91.3874 126.265Z" fill="black"/>
<path d="M133.988 35.5859L138.151 39.9902L133.039 41.207C149.97 48.4544 161.863 65.279 161.863 84.8305C161.863 110.981 140.588 132.257 114.437 132.257C109.663 132.257 105.054 131.544 100.706 130.226L102.352 127.242L88.502 127.51L95.6596 139.371L97.9665 135.191C103.153 136.892 108.688 137.815 114.436 137.815C143.652 137.815 167.42 114.047 167.42 84.8308C167.421 62.5166 153.555 43.382 133.988 35.5859Z" fill="black"/>
</g>
<path d="M123.933 46.4553L115.002 44.751L114.987 44.7814C114.541 45.6827 113.815 46.1842 113.141 46.0559L112.753 45.9818C112.079 45.8531 111.589 45.1191 111.506 44.1172L111.503 44.0833L102.573 42.379C100.085 41.9044 97.684 43.5357 97.2094 46.0231L85.6252 104.8C85.353 106.227 86.289 107.605 87.7164 107.878L112.915 112.686C114.343 112.958 115.721 112.022 115.993 110.595L127.577 51.8182C128.052 49.3311 126.42 46.9299 123.933 46.4553Z" fill="#0043B4" stroke="#263238" stroke-miterlimit="10" stroke-linecap="round" stroke-linejoin="round"/>
<path d="M127.327 53.1309L127.577 51.8185C128.052 49.3311 126.42 46.9299 123.933 46.4553L115.002 44.751L114.987 44.7814C114.541 45.6827 113.815 46.1842 113.141 46.0559L112.753 45.9818C112.079 45.8531 111.589 45.1191 111.506 44.1172L111.503 44.0833L102.573 42.379C100.085 41.9044 97.684 43.5357 97.2094 46.0231L96.959 47.3355L127.327 53.1309Z" fill="white" stroke="#263238" stroke-miterlimit="10" stroke-linecap="round" stroke-linejoin="round"/>
<path d="M125.369 71.9549L126.459 66.2476L125.942 66.149L129.189 51.0618C129.664 48.5744 128.032 46.1732 125.545 45.6985L101.354 41.0821C98.8662 40.6075 96.465 42.2389 95.9904 44.7263L84.0821 105.201C83.6075 107.689 85.2392 110.09 87.7263 110.565L111.918 115.181C114.405 115.656 116.806 114.024 117.281 111.537L123.925 76.7199L124.441 76.8186L125.085 73.4463L124.568 73.3476L124.853 71.8558L125.369 71.9549ZM116.479 108.05C116.005 110.538 113.604 112.169 111.116 111.694L89.7558 107.618C87.2684 107.143 85.637 104.742 86.1116 102.255L97.2095 46.0261C97.6841 43.5387 100.085 41.9074 102.573 42.382L111.503 44.0863L111.506 44.1202C111.589 45.1225 112.079 45.8561 112.753 45.9848L113.141 46.0589C113.815 46.1876 114.541 45.6861 114.987 44.7844L115.002 44.754L123.933 46.4583C126.42 46.9329 128.052 49.3341 127.577 51.8215L116.479 108.05Z" fill="#707070" stroke="#263238" stroke-miterlimit="10" stroke-linecap="round" stroke-linejoin="round"/>
<path d="M124.638 46.1679L102.025 41.8526C99.3895 41.3499 96.8459 43.0783 96.3428 45.7136L84.7735 104.412C84.2708 107.048 85.9992 109.591 88.6345 110.094L111.247 114.41C113.883 114.912 116.426 113.184 116.929 110.549L128.499 51.8502C129.001 49.2146 127.273 46.6706 124.638 46.1679ZM116.48 108.049C116.005 110.537 113.604 112.168 111.116 111.693L89.7561 107.617C87.2687 107.142 85.6373 104.741 86.1119 102.254L97.2098 46.0252C97.6844 43.5378 100.086 41.9064 102.573 42.381L111.504 44.0853L111.506 44.1192C111.589 45.1215 112.08 45.8551 112.754 45.9838L113.141 46.0579C113.815 46.1866 114.542 45.6851 114.988 44.7834L115.003 44.753L123.933 46.4573C126.421 46.9319 128.052 49.3332 127.578 51.8206L116.48 108.049Z" fill="#263238" stroke="#263238" stroke-miterlimit="10" stroke-linecap="round" stroke-linejoin="round"/>
<path d="M113.542 44.6987C113.586 44.4651 113.433 44.2396 113.2 44.1952C112.966 44.1507 112.741 44.3036 112.696 44.5372C112.652 44.7708 112.805 44.9962 113.038 45.0407C113.271 45.0856 113.497 44.9323 113.542 44.6987Z" fill="#707070"/>
<path d="M100.417 43.8729C100.335 44.3008 99.8252 44.3632 99.7612 44.6892L99.7569 44.7114L100.223 44.8003L100.196 44.9443L99.5732 44.8257L99.5966 44.704C99.684 44.2458 100.182 44.2485 100.258 43.8491C100.285 43.7033 100.251 43.6171 100.134 43.5945C100.019 43.5726 99.9519 43.6459 99.9278 43.7715L99.904 43.8971L99.7561 43.869L99.778 43.7536C99.8193 43.5367 99.9461 43.4116 100.165 43.4533C100.386 43.4954 100.458 43.6561 100.417 43.8729Z" fill="#263238"/>
<path d="M101.194 44.0203L101.187 44.0566C101.16 44.2024 101.081 44.2948 100.959 44.3155C101.071 44.383 101.103 44.5004 101.076 44.6423L101.055 44.7519C101.013 44.9688 100.885 45.0912 100.666 45.0495C100.449 45.0082 100.375 44.8467 100.416 44.6299L100.435 44.5324L100.583 44.5604L100.562 44.6677C100.538 44.7956 100.576 44.8826 100.689 44.9044C100.805 44.9262 100.87 44.8611 100.897 44.7172L100.918 44.6076C100.945 44.4676 100.899 44.3896 100.78 44.3627L100.695 44.3463L100.722 44.2044L100.815 44.2223C100.921 44.2383 100.999 44.1841 101.023 44.0605L101.035 43.9953C101.063 43.8495 101.027 43.7648 100.911 43.7426C100.798 43.7208 100.73 43.7898 100.706 43.9177L100.692 43.9906L100.544 43.9626L100.556 43.8978C100.598 43.681 100.725 43.5605 100.942 43.6018C101.161 43.6443 101.236 43.8034 101.194 44.0203Z" fill="#263238"/>
<path d="M101.48 44.1851L101.442 44.3817L101.29 44.3528L101.327 44.1562L101.48 44.1851ZM101.332 44.9573L101.295 45.1539L101.143 45.125L101.18 44.9284L101.332 44.9573Z" fill="#263238"/>
<path d="M101.776 44.374C101.835 44.3054 101.914 44.2785 102.009 44.2968C102.191 44.3315 102.247 44.4809 102.208 44.6837L102.155 44.9614C102.114 45.1782 101.984 45.3003 101.767 45.2589C101.55 45.2176 101.475 45.0561 101.517 44.8393L101.535 44.7441L101.683 44.7722L101.663 44.8775C101.638 45.0054 101.677 45.0924 101.79 45.1139C101.904 45.1357 101.971 45.0686 101.996 44.9407L102.048 44.665C102.073 44.5374 102.035 44.4501 101.921 44.4286C101.834 44.4119 101.766 44.4493 101.732 44.5503L101.726 44.5827L101.578 44.5546L101.767 43.7734L102.326 43.8803L102.3 44.0223L101.882 43.9427L101.776 44.374Z" fill="#263238"/>
<path d="M103.084 44.3774L103.079 44.404L102.931 44.3759L102.938 44.3396C102.963 44.2117 102.924 44.1267 102.809 44.1048C102.689 44.0818 102.622 44.1489 102.593 44.301L102.532 44.6192C102.589 44.5292 102.677 44.4894 102.79 44.5108C102.973 44.5455 103.028 44.693 102.989 44.8977L102.948 45.1126C102.907 45.3294 102.772 45.4507 102.555 45.4094C102.337 45.3677 102.256 45.205 102.298 44.9882L102.436 44.2643C102.479 44.0393 102.607 43.9188 102.832 43.9617C103.051 44.0031 103.126 44.1606 103.084 44.3774ZM102.495 44.8154L102.454 45.0284C102.429 45.1563 102.468 45.2432 102.583 45.2651C102.697 45.2865 102.766 45.2202 102.791 45.0923L102.831 44.8794C102.856 44.7515 102.815 44.6641 102.702 44.6426C102.586 44.6204 102.519 44.6875 102.495 44.8154Z" fill="#263238"/>
<path d="M118.571 47.3968L118.17 47.3203L117.979 48.3221L118.379 48.3986L118.571 47.3968Z" fill="#263238"/>
<path d="M119.14 47.2952L118.739 47.2188L118.51 48.4213L118.911 48.4977L119.14 47.2952Z" fill="#263238"/>
<path d="M119.702 47.2561L119.301 47.1797L119.044 48.5247L119.445 48.6012L119.702 47.2561Z" fill="#263238"/>
<path d="M120.283 47.1077L119.882 47.0312L119.578 48.6238L119.979 48.7002L120.283 47.1077Z" fill="#263238"/>
<path d="M124.939 49.6231L122.535 49.1644L122.816 47.6953L125.22 48.154L124.939 49.6231ZM122.694 49.0564L124.831 49.4644L125.06 48.2624L122.924 47.8544L122.694 49.0564Z" fill="#263238"/>
<path d="M124.37 48.2733L123.102 48.0312L122.928 48.9426L124.197 49.1847L124.37 48.2733Z" fill="#263238"/>
<path d="M125.334 48.7608L125.031 48.7031L124.965 49.0491L125.268 49.1067L125.334 48.7608Z" fill="#263238"/>
<path d="M121.715 48.6705C121.699 48.6674 121.684 48.6604 121.671 48.6491C121.237 48.2649 120.862 48.4732 120.846 48.4821C120.803 48.5075 120.747 48.4923 120.722 48.449C120.696 48.4053 120.71 48.3499 120.754 48.3246C120.774 48.3125 121.255 48.0372 121.792 48.5126C121.83 48.5461 121.833 48.6038 121.8 48.6417C121.778 48.6666 121.745 48.6764 121.715 48.6705Z" fill="#263238"/>
<path d="M121.953 48.4066C121.938 48.4035 121.922 48.3964 121.91 48.3851C121.283 47.8294 120.73 48.1457 120.724 48.1488C120.681 48.1745 120.624 48.1601 120.599 48.1164C120.573 48.0731 120.587 48.017 120.631 47.9912C120.638 47.9869 121.305 47.6055 122.031 48.2482C122.069 48.2818 122.073 48.3395 122.039 48.3773C122.016 48.4023 121.984 48.4124 121.953 48.4066Z" fill="#263238"/>
<path d="M122.184 48.0892C122.168 48.0861 122.153 48.0791 122.14 48.0678C121.346 47.3642 120.655 47.7519 120.626 47.769C120.582 47.7944 120.526 47.7795 120.501 47.7363C120.475 47.693 120.49 47.6372 120.533 47.6115C120.541 47.6064 121.365 47.136 122.262 47.9313C122.299 47.9648 122.303 48.0225 122.269 48.0603C122.248 48.0853 122.214 48.0951 122.184 48.0892Z" fill="#263238"/>
<path d="M121.416 48.7724C121.392 48.8969 121.272 48.9784 121.147 48.9546C121.023 48.9308 120.941 48.8107 120.965 48.6863C120.989 48.5618 121.109 48.4803 121.233 48.5041C121.357 48.5279 121.439 48.648 121.416 48.7724Z" fill="#263238"/>
<path d="M115.259 91.2117L94.0941 87.1729C92.9646 86.9572 92.224 85.8672 92.4397 84.7381L95.8299 66.9732C96.0456 65.8438 97.1357 65.1032 98.2647 65.3185L119.429 69.3573C120.559 69.573 121.299 70.663 121.084 71.7925L117.693 89.5574C117.478 90.6864 116.388 91.4274 115.259 91.2117Z" fill="white" stroke="#263238" stroke-miterlimit="10"/>
<path d="M102.176 62.6693L101.903 60.5859L102.257 60.6534L102.447 62.2458L103.213 60.8359L103.536 60.8975L102.512 62.7337L102.303 63.8292L101.967 63.7648L102.176 62.6693Z" fill="#263238"/>
<path d="M103.548 61.6681C103.638 61.2009 103.926 60.9439 104.393 61.0332C104.865 61.1233 105.038 61.4684 104.95 61.9357L104.648 63.5159C104.56 63.9789 104.27 64.2402 103.799 64.1501C103.331 64.0608 103.159 63.7113 103.247 63.2484L103.548 61.6681ZM103.579 63.3299C103.526 63.6092 103.613 63.7932 103.858 63.84C104.107 63.8876 104.251 63.7476 104.304 63.4684L104.612 61.8534C104.665 61.5784 104.583 61.3908 104.334 61.3433C104.09 61.2965 103.94 61.44 103.888 61.7149L103.579 63.3299Z" fill="#263238"/>
<path d="M105.292 63.6567C105.239 63.9317 105.317 64.1185 105.565 64.166C105.81 64.2128 105.951 64.0678 106.003 63.7928L106.449 61.4575L106.768 61.5183L106.325 63.8361C106.237 64.299 105.964 64.5677 105.493 64.478C105.026 64.3887 104.871 64.0381 104.959 63.5756L105.402 61.2578L105.737 61.3218L105.292 63.6567Z" fill="#263238"/>
<path d="M107.785 61.7084C108.265 61.8 108.419 62.0828 108.333 62.5367L108.285 62.7856C108.221 63.1217 108.063 63.3089 107.785 63.3417C108.049 63.4778 108.11 63.7251 108.048 64.0523L107.957 64.5281C107.931 64.6634 107.911 64.7906 107.948 64.9064L107.603 64.8405C107.581 64.7457 107.578 64.6638 107.617 64.4587L107.709 63.9786C107.775 63.6338 107.634 63.4938 107.35 63.4396L107.11 63.394L106.861 64.6989L106.521 64.6338L107.104 61.5781L107.785 61.7084ZM107.423 63.1323C107.694 63.1838 107.872 63.1276 107.935 62.7957L107.991 62.5032C108.043 62.2283 107.971 62.0648 107.717 62.0165L107.386 61.9533L107.17 63.0839L107.423 63.1323Z" fill="#263238"/>
<path d="M110.71 63.0344L110.658 63.3094L110.335 63.2478L110.391 62.9553C110.443 62.6803 110.366 62.4935 110.117 62.4459C109.872 62.3991 109.727 62.5434 109.674 62.8184L109.366 64.4334C109.314 64.7083 109.396 64.8959 109.64 64.9427C109.889 64.9903 110.03 64.8452 110.082 64.5703L110.158 64.1732L110.481 64.2349L110.408 64.6147C110.32 65.0776 110.043 65.3413 109.572 65.2512C109.105 65.1623 108.945 64.8152 109.033 64.3522L109.334 62.772C109.423 62.3094 109.699 62.0454 110.166 62.1343C110.639 62.2244 110.799 62.5719 110.71 63.0344Z" fill="#263238"/>
<path d="M110.995 63.0822C111.084 62.6153 111.373 62.3579 111.84 62.4472C112.312 62.5373 112.486 62.8825 112.397 63.3497L112.095 64.93C112.007 65.3929 111.717 65.6542 111.246 65.5641C110.779 65.4748 110.606 65.1254 110.694 64.6624L110.995 63.0822ZM111.026 64.744C110.973 65.0232 111.06 65.2073 111.304 65.2541C111.553 65.3017 111.698 65.1616 111.751 64.8824L112.059 63.2674C112.112 62.9925 112.029 62.8049 111.781 62.7573C111.536 62.7109 111.387 62.854 111.334 63.129L111.026 64.744Z" fill="#263238"/>
<path d="M113.577 62.8166C114.053 62.9074 114.216 63.237 114.126 63.7085L113.832 65.2494C113.743 65.7162 113.47 65.9627 112.994 65.8718L112.278 65.7353L112.861 62.6797L113.577 62.8166ZM113.049 65.5614C113.293 65.6082 113.44 65.4775 113.493 65.1983L113.793 63.627C113.847 63.3478 113.758 63.1723 113.509 63.1247L113.143 63.0549L112.678 65.4904L113.049 65.5614Z" fill="#263238"/>
<path d="M115.419 64.5682L115.361 64.8736L114.614 64.7312L114.407 65.8182L115.323 65.9933L115.264 66.3033L114.007 66.0635L114.59 63.0078L115.847 63.2477L115.788 63.5577L114.871 63.3826L114.672 64.4259L115.419 64.5682Z" fill="#263238"/>
<path d="M99.8262 75.05C100.067 74.7715 100.387 74.6619 100.774 74.7357C101.515 74.8772 101.741 75.4837 101.584 76.307L101.368 77.4352C101.2 78.3162 100.67 78.8127 99.7888 78.6446C98.9077 78.4765 98.6059 77.8213 98.774 76.9403L98.8481 76.5531L99.4495 76.6677L99.3676 77.0959C99.2685 77.615 99.4229 77.9688 99.8839 78.0565C100.345 78.1446 100.619 77.8724 100.718 77.3533L100.932 76.2333C101.031 75.7142 100.876 75.3604 100.415 75.2727C100.061 75.2052 99.7845 75.3573 99.6464 75.766L99.6214 75.8979L99.0205 75.7832L99.7884 72.6094L102.062 73.0431L101.952 73.6195L100.255 73.2958L99.8262 75.05Z" fill="#263238"/>
<path d="M105.141 75.0675L105.121 75.1747L104.52 75.0601L104.548 74.9119C104.647 74.3932 104.491 74.0476 104.022 73.9579C103.536 73.8651 103.262 74.1373 103.144 74.7551L102.897 76.0479C103.129 75.6825 103.484 75.5199 103.946 75.608C104.687 75.7496 104.914 76.3474 104.755 77.1793L104.589 78.0525C104.421 78.9335 103.874 79.4269 102.993 79.2588C102.103 79.0891 101.777 78.4293 101.945 77.5483L102.506 74.608C102.68 73.6939 103.201 73.204 104.115 73.3788C105.004 73.5476 105.309 74.1861 105.141 75.0675ZM102.744 76.8463L102.579 77.7109C102.48 78.23 102.635 78.5837 103.104 78.6734C103.565 78.7612 103.848 78.4909 103.947 77.9718L104.112 77.1072C104.211 76.5885 104.048 76.2328 103.587 76.145C103.118 76.0553 102.843 76.3276 102.744 76.8463Z" fill="#263238"/>
<path d="M108.345 75.6768L108.325 75.7841L107.724 75.6694L107.752 75.5212C107.851 75.0025 107.695 74.657 107.226 74.5673C106.74 74.4745 106.466 74.7467 106.348 75.3644L106.101 76.6573C106.333 76.2919 106.688 76.1292 107.15 76.2174C107.891 76.3589 108.118 76.9568 107.959 77.7887L107.793 78.6619C107.625 79.5429 107.078 80.0363 106.197 79.8682C105.307 79.6985 104.981 79.0386 105.149 78.1576L105.71 75.2174C105.885 74.3033 106.405 73.8134 107.319 73.9881C108.208 74.1574 108.513 74.7958 108.345 75.6768ZM105.948 77.456L105.783 78.3207C105.684 78.8397 105.839 79.1935 106.308 79.2832C106.769 79.3713 107.052 79.1007 107.151 78.5816L107.316 77.7169C107.415 77.1982 107.252 76.8426 106.791 76.7548C106.321 76.6651 106.048 76.9373 105.948 77.456Z" fill="#263238"/>
<path d="M111.547 76.2983L110.986 79.2385C110.812 80.1527 110.289 80.6507 109.367 80.4744C108.486 80.3064 108.174 79.6578 108.343 78.7768L108.363 78.6695L108.964 78.7842L108.935 78.9328C108.836 79.4515 109.001 79.7986 109.462 79.8867C109.956 79.9811 110.23 79.7089 110.346 79.0997L110.593 77.8068C110.361 78.1723 110.007 78.3267 109.546 78.2386C108.805 78.097 108.576 77.5073 108.735 76.6755L108.903 75.7941C109.071 74.913 109.608 74.4263 110.497 74.596C111.387 74.7656 111.716 75.4173 111.547 76.2983ZM109.544 75.8822L109.379 76.7468C109.28 77.2655 109.443 77.6212 109.904 77.709C110.373 77.7987 110.647 77.5264 110.746 77.0073L110.911 76.1427C111.012 75.6154 110.856 75.2699 110.387 75.1806C109.925 75.0924 109.645 75.3549 109.544 75.8822Z" fill="#263238"/>
<path d="M114.813 76.8918L114.778 77.0732C114.667 77.6578 114.379 78.047 113.893 78.1336C114.335 78.414 114.429 78.9015 114.319 79.4779L114.237 79.9062C114.068 80.7957 113.501 81.2595 112.604 81.0882C111.706 80.917 111.35 80.277 111.52 79.3875L111.601 78.9592C111.713 78.3746 111.977 77.9725 112.501 77.8676C112.066 77.5966 111.949 77.1391 112.06 76.5541L112.095 76.3728C112.265 75.4832 112.837 75.0378 113.726 75.2074C114.615 75.3779 114.983 76.0026 114.813 76.8918ZM112.727 76.5108L112.673 76.7908C112.566 77.3509 112.791 77.6496 113.244 77.7362C113.696 77.8228 114.016 77.6274 114.122 77.0673L114.176 76.7873C114.289 76.1941 114.069 75.8708 113.616 75.7842C113.163 75.6981 112.84 75.918 112.727 76.5108ZM112.25 79.0064L112.158 79.4924C112.044 80.0852 112.254 80.4155 112.716 80.5036C113.177 80.5914 113.485 80.3601 113.607 79.7689L113.7 79.2829C113.806 78.7229 113.611 78.4043 113.134 78.313C112.656 78.2217 112.357 78.4464 112.25 79.0064Z" fill="#263238"/>
<path d="M94.0361 92.1953L113.948 95.9951" stroke="#263238" stroke-miterlimit="10"/>
<path d="M93.2949 96.0859L113.207 99.8861" stroke="#263238" stroke-miterlimit="10"/>
<path d="M126.325 77.5613L131.142 76.8203" stroke="#263238" stroke-miterlimit="10"/>
<path d="M125.584 83.1172L128.178 83.8582" stroke="#263238" stroke-miterlimit="10"/>
<path d="M124.102 87.9375L128.918 91.2724" stroke="#263238" stroke-miterlimit="10"/>
<path d="M92.4124 188.644C106.191 188.644 117.36 178.148 117.36 165.201C117.36 152.254 106.191 141.758 92.4124 141.758C78.6342 141.758 67.4648 152.254 67.4648 165.201C67.4648 178.148 78.6342 188.644 92.4124 188.644Z" fill="#263238"/>
<path d="M91.8889 187.426C105.667 187.426 116.836 176.93 116.836 163.982C116.836 151.035 105.667 140.539 91.8889 140.539C78.1108 140.539 66.9414 151.035 66.9414 163.982C66.9414 176.93 78.1108 187.426 91.8889 187.426Z" fill="white" stroke="#263238" stroke-miterlimit="10"/>
<path d="M91.8889 184.221C103.782 184.221 113.422 175.161 113.422 163.986C113.422 152.81 103.782 143.75 91.8889 143.75C79.9963 143.75 70.3555 152.81 70.3555 163.986C70.3555 175.161 79.9963 184.221 91.8889 184.221Z" fill="white" stroke="#263238" stroke-miterlimit="10"/>
<path d="M97.8542 150.359C89.2114 150.359 82.2051 159.164 82.2051 170.024C82.2051 177.03 85.1234 183.177 89.5137 186.659C90.2387 186.72 90.9715 186.757 91.7133 186.757C100.798 186.757 108.722 182.106 112.951 175.203C113.309 173.552 113.503 171.817 113.503 170.024C113.503 159.164 106.497 150.359 97.8542 150.359Z" fill="#263238"/>
<path d="M82.3909 161.156H72.1982V163.595H82.3909V161.156Z" fill="white" stroke="#263238" stroke-miterlimit="10"/>
<path d="M95.4829 176.845C104.067 176.845 111.026 170.306 111.026 162.239C111.026 154.172 104.067 147.633 95.4829 147.633C86.8985 147.633 79.9395 154.172 79.9395 162.239C79.9395 170.306 86.8985 176.845 95.4829 176.845Z" fill="white" stroke="#263238" stroke-miterlimit="10"/>
<path d="M95.4823 174.435C102.649 174.435 108.459 168.976 108.459 162.241C108.459 155.506 102.649 150.047 95.4823 150.047C88.3156 150.047 82.5059 155.506 82.5059 162.241C82.5059 168.976 88.3156 174.435 95.4823 174.435Z" fill="#263238" stroke="#263238" stroke-miterlimit="10"/>
<path d="M90.0465 151.058C89.9639 150.855 89.8679 150.656 89.7568 150.462C88.4335 148.16 88.5989 145.229 89.5914 142.508" stroke="#263238" stroke-miterlimit="10"/>
<path d="M90.2526 155.902C90.2526 155.902 90.9464 153.267 90.0459 151.055" stroke="white" stroke-miterlimit="10"/>
<path d="M94.8837 150.462C93.5605 148.16 93.7258 145.229 94.7184 142.508" stroke="#263238" stroke-miterlimit="10"/>
<path d="M95.3799 155.903C95.3799 155.903 96.2067 152.763 94.8838 150.461" stroke="white" stroke-miterlimit="10"/>
<path d="M100.175 150.772C100.124 150.667 100.07 150.564 100.012 150.462C98.6884 148.16 98.8538 145.229 99.8463 142.508" stroke="#263238" stroke-miterlimit="10"/>
<path d="M100.508 155.906C100.508 155.906 101.263 153.037 100.175 150.773" stroke="white" stroke-miterlimit="10"/>
<path d="M149.813 140.496C149.813 140.496 149.407 140.518 148.681 140.597C147.992 138.259 145.927 131.338 144.57 127.763C142.922 123.418 140.675 117.277 139.177 114.73C137.679 112.183 137.829 110.685 134.983 108.289C132.137 105.892 129.59 106.94 129.59 106.94C129.59 106.94 129.141 105.143 126.294 104.244C123.448 103.345 119.553 105.143 119.553 105.143C119.553 105.143 118.954 104.094 116.108 104.394C113.262 104.693 112.213 107.24 112.213 107.24C112.213 107.24 106.371 95.5556 104.124 94.6567C101.876 93.7577 99.6297 96.0049 100.528 98.1019C101.427 100.199 108.168 111.884 109.067 114.58C109.966 117.277 111.913 121.771 111.913 121.771C111.913 121.771 105.472 117.127 103.524 116.677C101.577 116.228 98.7308 115.928 97.0826 117.726C95.4349 119.523 99.3298 119.973 102.476 122.819C105.621 125.666 110.715 132.257 113.111 136.451C115.508 140.646 120.601 141.395 122.848 143.792C124.43 145.479 126.678 147.832 127.872 149.079C127.119 149.862 126.743 150.383 126.743 150.383L131.687 162.517C131.687 162.517 132.736 160.869 136.93 157.573C141.125 154.278 154.157 150.233 154.157 150.233L149.813 140.496Z" fill="#263238" stroke="#263238" stroke-miterlimit="10"/>
<path d="M128.507 146.8C128.507 146.8 124.912 143.055 122.665 140.659C120.418 138.262 115.325 137.513 112.928 133.319C110.531 129.124 105.438 122.533 102.292 119.687C99.1462 116.84 95.2513 116.391 96.899 114.593C98.5468 112.796 101.393 113.095 103.341 113.544C105.288 113.994 111.73 118.638 111.73 118.638C111.73 118.638 109.782 114.144 108.883 111.447C107.984 108.751 101.244 97.0665 100.345 94.9691C99.4457 92.8721 101.693 90.6249 103.94 91.5238C106.187 92.4228 112.029 104.107 112.029 104.107C112.029 104.107 113.078 101.56 115.924 101.261C118.771 100.961 119.37 102.01 119.37 102.01C119.37 102.01 123.265 100.213 126.111 101.111C128.957 102.01 129.407 103.808 129.407 103.808C129.407 103.808 131.953 102.759 134.8 105.156C137.646 107.553 137.496 109.051 138.994 111.598C140.492 114.144 142.739 120.286 144.387 124.63C146.035 128.974 148.731 138.262 148.731 138.262L129.407 148.748L128.507 146.8Z" fill="white" stroke="#263238" stroke-miterlimit="10"/>
<path d="M112.029 104.109L117.272 111.899" stroke="#263238" stroke-miterlimit="10"/>
<path d="M119.37 102.008L124.164 109.498" stroke="#263238" stroke-miterlimit="10"/>
<path d="M129.406 103.805L132.702 109.647" stroke="#263238" stroke-miterlimit="10"/>
<path d="M114.04 125.336L114.725 127.323" stroke="#263238" stroke-miterlimit="10"/>
<path d="M111.729 118.641L113.564 123.961" stroke="#263238" stroke-miterlimit="10"/>
<path d="M120.118 113.695L121.317 115.343" stroke="#263238" stroke-miterlimit="10"/>
<path d="M125.661 112.047L127.009 113.844" stroke="#263238" stroke-miterlimit="10"/>
<path d="M133.001 111.148L133.9 113.995" stroke="#263238" stroke-miterlimit="10"/>
<path d="M126.561 147.246C126.561 147.246 130.006 142.453 137.046 140.056C144.087 137.659 149.63 137.359 149.63 137.359L153.974 147.097C153.974 147.097 140.941 151.141 136.747 154.437C132.553 157.732 131.504 159.38 131.504 159.38L126.561 147.246Z" fill="white" stroke="#263238" stroke-miterlimit="10"/>
<path d="M138.395 179.602C138.395 179.602 132.702 165.37 131.204 162.374C129.706 159.378 132.103 157.88 132.103 157.88C132.103 157.88 135.549 153.237 144.537 149.641C153.525 146.046 154.274 145.896 156.521 148.443C158.768 150.99 173.506 179.628 173.506 179.628" fill="white"/>
<path d="M138.395 179.602C138.395 179.602 132.702 165.37 131.204 162.374C129.706 159.378 132.103 157.88 132.103 157.88C132.103 157.88 135.549 153.237 144.537 149.641C153.525 146.046 154.274 145.896 156.521 148.443C158.768 150.99 173.506 179.628 173.506 179.628" stroke="#263238" stroke-miterlimit="10"/>
<path d="M44.882 164.626C44.882 164.626 46.9182 160.26 51.7675 157.786C56.6167 155.312 59.7683 154.248 64.4085 149.671C69.0487 145.094 76.6967 141.006 79.8502 140.442C83.0037 139.878 84.0505 138.522 82.6917 136.974C81.333 135.427 77.626 135.341 74.3243 136.457C71.0225 137.572 67.9723 138.937 67.9723 138.937C69.6443 135.644 70.757 131.68 72.4031 128.375C73.5712 126.03 75.4896 122.161 76.6249 119.799C77.3659 118.258 79.5745 115.692 78.5924 114.009C77.6038 112.316 75.2431 113.442 74.0458 115.052C72.1434 117.61 62.8337 131.644 62.8337 131.644C64.6024 127.9 66.3706 124.156 68.1389 120.413C70.8268 114.723 72.1083 112.01 71.7281 112.815C72.5123 111.155 74.038 108.932 73.1067 107.018C72.1625 105.077 69.4286 104.877 68.2941 106.726C67.0001 108.835 57.1062 127.559 57.1062 127.559C57.1062 127.559 63.2994 111.487 64.0907 109.64C65.0575 107.384 64.4865 105.418 63.0603 105.43C60.9874 105.446 60.0078 107.741 59.1954 109.302C59.3463 109.082 59.4973 108.863 59.6482 108.643C57.7103 111.227 56.4069 114.622 54.7864 117.426C52.8922 120.703 50.9309 123.942 48.9049 127.139C49.303 123.827 50.6322 120.725 52.2787 117.852C53.2725 116.119 57.4092 111.864 56.7025 109.772C56.0941 107.971 51.5572 111.355 48.9185 115.049C47.4802 117.063 43.7112 122.552 42.675 126.414C41.6388 130.275 34.3774 143.428 32.4383 147.093C30.4992 150.757 28.1709 157.228 28.1709 157.228L44.882 164.626Z" fill="#263238" stroke="#263238" stroke-miterlimit="10"/>
<path d="M50.4141 161.102C50.4141 161.102 46.6798 156.53 39.5046 154.572C32.3297 152.613 26.7789 152.656 26.7789 152.656L23.0435 162.643C23.0435 162.643 36.3007 165.876 40.6906 168.907C45.0804 171.938 46.2286 173.517 46.2286 173.517L50.4141 161.102Z" fill="#263238" stroke="#263238" stroke-miterlimit="10"/>
<path d="M44.3885 162.9C44.3885 162.9 46.4246 158.534 51.2739 156.06C56.1232 153.587 59.2748 152.522 63.915 147.945C68.5552 143.368 76.2031 139.28 79.3566 138.716C82.5102 138.153 83.5569 136.796 82.1982 135.248C80.8394 133.701 77.1325 133.615 73.8307 134.731C70.529 135.846 67.4788 137.21 67.4788 137.21C69.1507 133.918 70.2634 129.954 71.9096 126.649C73.0776 124.304 74.996 120.435 76.1313 118.073C76.8723 116.532 79.0809 113.966 78.0989 112.283C77.1102 110.589 74.7496 111.716 73.5523 113.326C71.6498 115.884 62.3402 129.917 62.3402 129.917C64.1088 126.174 65.8771 122.43 67.6453 118.687C70.3332 112.996 71.6147 110.284 71.2345 111.089C72.0188 109.429 73.5445 107.206 72.6131 105.292C71.6686 103.351 68.9351 103.151 67.8005 105C66.5065 107.109 56.613 125.833 56.613 125.833C56.613 125.833 62.8062 109.761 63.5975 107.914C64.5643 105.658 63.9934 103.692 62.5671 103.703C60.4943 103.72 59.5146 106.014 58.7022 107.575C58.8532 107.356 59.0041 107.136 59.155 106.917C57.2171 109.501 55.9137 112.896 54.2933 115.7C52.3991 118.977 50.4377 122.215 48.4117 125.413C48.8099 122.101 50.139 118.998 51.7856 116.125C52.7793 114.392 56.916 110.137 56.2094 108.045C55.601 106.244 51.0641 109.629 48.4253 113.323C46.987 115.336 43.2181 120.826 42.1818 124.687C41.1452 128.549 33.8842 141.702 31.9451 145.366C30.006 149.031 27.6777 155.502 27.6777 155.502L44.3885 162.9Z" fill="white" stroke="#263238" stroke-miterlimit="10"/>
<path d="M56.6132 125.836L54.8242 129.45" stroke="#263238" stroke-miterlimit="10"/>
<path d="M62.3402 129.922L60.9448 131.731" stroke="#263238" stroke-miterlimit="10"/>
<path d="M67.4784 137.211L65.6855 139.823" stroke="#263238" stroke-miterlimit="10"/>
<path d="M58.2045 135.492L58.0605 137.046" stroke="#263238" stroke-miterlimit="10"/>
<path d="M53.7354 132.656L53.7412 134.159" stroke="#263238" stroke-miterlimit="10"/>
<path d="M47.1606 129.531L47.5214 132.085" stroke="#263238" stroke-miterlimit="10"/>
<path d="M49.9199 159.367C49.9199 159.367 46.1857 154.795 39.0104 152.837C31.8356 150.879 26.2847 150.922 26.2847 150.922L22.5493 160.908C22.5493 160.908 35.8066 164.142 40.1964 167.172C44.5863 170.203 45.7344 171.783 45.7344 171.783L49.9199 159.367Z" fill="white" stroke="#263238" stroke-miterlimit="10"/>
<path d="M43.9786 180.962C43.9786 180.962 44.9076 177.839 46.218 174.756C47.5284 171.673 45.0437 170.326 45.0437 170.326C45.0437 170.326 41.3184 165.903 32.1257 162.869C22.933 159.835 22.1764 159.731 20.0907 162.412C18.005 165.092 11.2935 181.2 11.2935 181.2" fill="white"/>
<path d="M43.9786 180.962C43.9786 180.962 44.9076 177.839 46.218 174.756C47.5284 171.673 45.0437 170.326 45.0437 170.326C45.0437 170.326 41.3184 165.903 32.1257 162.869C22.933 159.835 22.1764 159.731 20.0907 162.412C18.005 165.092 11.2935 181.2 11.2935 181.2" stroke="#263238" stroke-miterlimit="10"/>
</svg>
