<svg width="26" height="26" viewBox="0 0 26 26" fill="none" xmlns="http://www.w3.org/2000/svg">
<path d="M19.0463 26.0006C17.6711 26.0006 16.3267 25.5928 15.1832 24.8288C14.0397 24.0647 13.1485 22.9787 12.6222 21.7082C12.0959 20.4376 11.9582 19.0395 12.2265 17.6906C12.4948 16.3418 13.1571 15.1028 14.1295 14.1304C15.102 13.1579 16.341 12.4957 17.6898 12.2274C19.0386 11.9591 20.4367 12.0968 21.7073 12.6231C22.9779 13.1493 24.0639 14.0406 24.8279 15.1841C25.592 16.3276 25.9998 17.6719 25.9998 19.0472C25.9975 20.8907 25.2642 22.658 23.9607 23.9615C22.6572 25.2651 20.8898 25.9984 19.0463 26.0006ZM19.0463 13.9077C18.0298 13.9077 17.0362 14.2091 16.191 14.7739C15.3458 15.3386 14.6871 16.1413 14.2981 17.0804C13.9091 18.0195 13.8073 19.0529 14.0056 20.0499C14.2039 21.0468 14.6934 21.9626 15.4122 22.6814C16.1309 23.4001 17.0467 23.8896 18.0437 24.0879C19.0406 24.2863 20.074 24.1845 21.0131 23.7955C21.9523 23.4065 22.7549 22.7477 23.3197 21.9025C23.8844 21.0574 24.1858 20.0637 24.1858 19.0472C24.1842 17.6846 23.6422 16.3783 22.6788 15.4148C21.7153 14.4513 20.4089 13.9093 19.0463 13.9077Z" fill="#2FA0D0" fill-opacity="0.9"/>
<path d="M17.8371 25.9998H3.32556C2.44376 25.9992 1.59827 25.6486 0.974741 25.0251C0.351217 24.4016 0.000640608 23.5561 0 22.6743V3.32556C0.000640608 2.44376 0.351217 1.59827 0.974741 0.974741C1.59827 0.351217 2.44376 0.000640608 3.32556 0H17.8371C18.7189 0.000640608 19.5644 0.351217 20.1879 0.974741C20.8114 1.59827 21.162 2.44376 21.1627 3.32556V13.1208C21.1627 13.3614 21.0671 13.5921 20.897 13.7622C20.7269 13.9323 20.4962 14.0278 20.2557 14.0278C20.0151 14.0278 19.7844 13.9323 19.6144 13.7622C19.4443 13.5921 19.3487 13.3614 19.3487 13.1208V3.32556C19.3481 2.92485 19.1886 2.54074 18.9053 2.25739C18.6219 1.97405 18.2378 1.81458 17.8371 1.81394H3.32556C2.92485 1.81458 2.54074 1.97405 2.25739 2.25739C1.97405 2.54074 1.81458 2.92485 1.81394 3.32556V22.6743C1.81458 23.075 1.97405 23.4591 2.25739 23.7424C2.54074 24.0258 2.92485 24.1852 3.32556 24.1859H17.8371C17.9301 24.1887 18.0231 24.1802 18.114 24.1605C18.2473 24.1315 18.3853 24.1325 18.5182 24.1632C18.6511 24.1939 18.7755 24.2537 18.8826 24.3382C18.9896 24.4227 19.0766 24.5298 19.1374 24.652C19.1981 24.7741 19.231 24.9081 19.2338 25.0445C19.235 25.263 19.1569 25.4746 19.0139 25.6398C18.8708 25.8051 18.6727 25.9128 18.4563 25.943C18.2523 25.983 18.0449 26.002 17.8371 25.9998Z" fill="#2FA0D0" fill-opacity="0.9"/>
<path d="M14.2092 7.86082H5.74413C5.50359 7.86082 5.27289 7.76526 5.1028 7.59517C4.93271 7.42508 4.83716 7.19439 4.83716 6.95385C4.83716 6.7133 4.93271 6.48261 5.1028 6.31252C5.27289 6.14243 5.50359 6.04688 5.74413 6.04688H14.2092C14.4497 6.04688 14.6804 6.14243 14.8505 6.31252C15.0206 6.48261 15.1162 6.7133 15.1162 6.95385C15.1162 7.19439 15.0206 7.42508 14.8505 7.59517C14.6804 7.76526 14.4497 7.86082 14.2092 7.86082Z" fill="#2FA0D0" fill-opacity="0.9"/>
<path d="M11.7906 12.6968H5.74413C5.50359 12.6968 5.27289 12.6012 5.1028 12.4311C4.93271 12.261 4.83716 12.0303 4.83716 11.7898C4.83716 11.5492 4.93271 11.3185 5.1028 11.1485C5.27289 10.9784 5.50359 10.8828 5.74413 10.8828H11.7906C12.0311 10.8828 12.2618 10.9784 12.4319 11.1485C12.602 11.3185 12.6976 11.5492 12.6976 11.7898C12.6976 12.0303 12.602 12.261 12.4319 12.4311C12.2618 12.6012 12.0311 12.6968 11.7906 12.6968Z" fill="#2FA0D0" fill-opacity="0.9"/>
<path d="M18.4417 21.1614C18.3226 21.1617 18.2046 21.1383 18.0946 21.0927C17.9846 21.047 17.8847 20.9799 17.8008 20.8954L16.5915 19.6861C16.5024 19.603 16.4309 19.5029 16.3814 19.3916C16.3318 19.2804 16.3051 19.1603 16.303 19.0385C16.3008 18.9167 16.3233 18.7958 16.3689 18.6828C16.4145 18.5699 16.4824 18.4673 16.5685 18.3812C16.6546 18.2951 16.7572 18.2272 16.8701 18.1816C16.9831 18.1359 17.104 18.1135 17.2258 18.1157C17.3476 18.1178 17.4677 18.1445 17.579 18.1941C17.6902 18.2436 17.7903 18.3151 17.8734 18.4042L18.4417 18.9714L20.2194 17.1949C20.3024 17.1058 20.4026 17.0343 20.5138 16.9848C20.6251 16.9352 20.7452 16.9085 20.867 16.9064C20.9887 16.9042 21.1097 16.9266 21.2226 16.9723C21.3356 17.0179 21.4382 17.0858 21.5243 17.1719C21.6104 17.258 21.6783 17.3606 21.7239 17.4735C21.7695 17.5865 21.7919 17.7074 21.7898 17.8292C21.7876 17.951 21.761 18.0711 21.7114 18.1824C21.6618 18.2936 21.5904 18.3937 21.5013 18.4768L19.0827 20.8954C18.9988 20.9799 18.8989 21.047 18.7889 21.0927C18.6789 21.1383 18.5609 21.1617 18.4417 21.1614Z" fill="#2FA0D0" fill-opacity="0.9"/>
</svg>
