<svg width="126" height="126" viewBox="0 0 126 126" fill="none" xmlns="http://www.w3.org/2000/svg">
<path d="M122.19 31.9553C118.883 19.781 106.221 7.11703 94.0447 3.80953C86.5782 1.94906 76.577 0.0319922 63 0C49.423 0.0319922 39.4218 1.94906 31.9553 3.80953C19.781 7.11703 7.11703 19.7786 3.80953 31.9553C1.94906 39.4218 0.0319922 49.423 0 63C0.0319922 76.577 1.94906 86.5782 3.80953 94.0447C7.11703 106.221 19.781 118.883 31.9553 122.19C39.4218 124.051 49.4279 125.968 63 126C76.5745 125.968 86.5782 124.051 94.0447 122.19C106.221 118.883 118.883 106.221 122.19 94.0447C124.051 86.5782 125.968 76.5721 126 63C125.968 49.423 124.051 39.4218 122.19 31.9553Z" fill="#DFF5FF"/>
<path d="M101.216 54.7088C99.4818 53.0222 97.7435 51.3299 96.0012 49.6319C95.952 47.2743 95.8904 44.9151 95.8166 42.5542C95.7182 39.3968 94.3548 36.3846 92.012 34.0418C89.7555 31.7387 86.7063 30.3817 83.4848 30.2471C81.1191 30.1732 78.7549 30.1117 76.3924 30.0625C74.6829 28.33 72.9906 26.5967 71.3155 24.8625C70.2527 23.7204 68.9659 22.8094 67.5354 22.1865C66.1049 21.5637 64.5614 21.2422 63.0012 21.2422C61.441 21.2422 59.8976 21.5637 58.4671 22.1865C57.0366 22.8094 55.7498 23.7204 54.687 24.8625C53.0102 26.5983 51.3146 28.3357 49.6002 30.0748C47.2377 30.1207 44.8752 30.1814 42.5127 30.2569C36.0035 30.4784 30.4024 36.0672 30.1809 42.5616C30.1071 44.9192 30.0456 47.2784 29.9964 49.6392C28.2557 51.3406 26.5174 53.0312 24.7816 54.7112C22.4659 56.963 21.1641 59.8964 21.1641 63.0071C21.1743 64.563 21.5002 66.1008 22.122 67.5271C22.7438 68.9535 23.6486 70.2388 24.7816 71.3053C26.5174 72.9837 28.2557 74.6727 29.9964 76.3724C30.0456 78.7349 30.1071 81.0966 30.1809 83.4575C30.2794 86.6198 31.6427 89.6246 33.9831 91.9698C36.2407 94.2728 39.2906 95.6296 42.5127 95.7646C44.8785 95.8384 47.2426 95.9 49.6051 95.9492C51.3163 97.685 53.0086 99.4191 54.682 101.152C55.7459 102.293 57.0335 103.204 58.4645 103.826C59.8955 104.449 61.4394 104.77 63 104.77C64.5606 104.77 66.1045 104.449 67.5355 103.826C68.9665 103.204 70.2541 102.293 71.318 101.152C73.0012 99.4207 74.6952 97.6858 76.3998 95.9467C78.7623 95.8991 81.1248 95.8384 83.4873 95.7646C89.994 95.5431 95.5976 89.9494 95.8191 83.4599C95.8929 81.1023 95.9544 78.7439 96.0036 76.3847C97.7443 74.685 99.4826 72.9911 101.218 71.3029C102.35 70.236 103.254 68.9509 103.876 67.5251C104.498 66.0994 104.824 64.5624 104.836 63.0071C104.836 59.8915 103.534 56.9581 101.216 54.7088Z" fill="url(#paint0_linear_3338_25027)"/>
<path d="M83.8022 57.7112C76.7541 65.0349 69.5928 72.5236 62.552 79.9507C61.9794 80.5566 61.2893 81.0395 60.5239 81.37C59.7586 81.7004 58.9339 81.8715 58.1002 81.8727H58.078C57.245 81.8667 56.4216 81.6943 55.6563 81.3655C54.8909 81.0367 54.199 80.5582 53.6213 79.9581C49.8585 76.0723 46.0687 72.1889 42.301 68.3375C41.7277 67.7614 41.2755 67.0765 40.9709 66.3231C40.6662 65.5697 40.5153 64.7629 40.527 63.9503C40.5387 63.1377 40.7128 62.3356 41.039 61.5913C41.3652 60.8469 41.8369 60.1753 42.4265 59.616C43.6136 58.4675 45.2065 57.8348 46.858 57.8555C48.5096 57.8763 50.0861 58.5488 51.244 59.7267C53.4933 62.0334 55.7475 64.3475 58.0067 66.669C63.5979 60.812 69.2138 54.923 74.741 49.1151C77.0888 46.6542 81.0041 46.605 83.5217 48.9872C86.0392 51.3694 86.1672 55.2552 83.8022 57.7112Z" fill="url(#paint1_linear_3338_25027)"/>
<defs>
<linearGradient id="paint0_linear_3338_25027" x1="91.98" y1="91.9895" x2="34.0175" y2="34.0295" gradientUnits="userSpaceOnUse">
<stop stop-color="#781EEB"/>
<stop offset="0.54" stop-color="#1EB4EB"/>
<stop offset="1" stop-color="#92F4FE"/>
</linearGradient>
<linearGradient id="paint1_linear_3338_25027" x1="73.2965" y1="69.2087" x2="53.0553" y2="48.9675" gradientUnits="userSpaceOnUse">
<stop stop-color="#BCE4ED"/>
<stop offset="0.57" stop-color="white"/>
<stop offset="1" stop-color="white"/>
</linearGradient>
</defs>
</svg>
