<svg width="21" height="19" viewBox="0 0 21 19" fill="none" xmlns="http://www.w3.org/2000/svg">
<path d="M7.83553 18.2023C12.163 18.2023 15.6711 14.6942 15.6711 10.3668C15.6711 6.03934 12.163 2.53125 7.83553 2.53125C3.50809 2.53125 0 6.03934 0 10.3668C0 14.6942 3.50809 18.2023 7.83553 18.2023Z" fill="#B0EF8F"/>
<path d="M7.92417 16.422L7.82478 16.2526C6.30668 13.6661 2.27253 8.17702 2.23178 8.12189L2.17358 8.04283L3.548 6.68453L7.89865 9.72246C10.6379 6.16784 13.1935 3.72636 14.8605 2.30063C16.684 0.741029 17.871 0.023038 17.883 0.0161577L17.91 0H20.2414L20.0187 0.19833C14.2912 5.29977 8.08326 16.1424 8.02143 16.2513L7.92417 16.422Z" fill="#009045"/>
</svg>
