<svg width="25" height="25" viewBox="0 0 25 25" fill="none" xmlns="http://www.w3.org/2000/svg">
<path d="M22.1178 9.05207C21.9254 8.90857 21.7752 8.71583 21.6832 8.49415C21.5911 8.27247 21.5606 8.03006 21.5947 7.79247C22.0431 4.97437 21.5307 4.10973 21.1464 3.72544C20.7621 3.34115 19.9082 2.83945 17.0901 3.28778C16.8526 3.31967 16.6109 3.28807 16.3897 3.19619C16.1684 3.10431 15.9755 2.95543 15.8305 2.76472C13.9731 0.288215 13.0017 0 12.4359 0C11.8702 0 10.8988 0.288215 9.0414 2.76472C8.89638 2.95543 8.70342 3.10431 8.48216 3.19619C8.2609 3.28807 8.01924 3.31967 7.78179 3.28778C4.96369 2.83945 4.10973 3.35183 3.72544 3.72544C3.34115 4.09905 2.82877 4.97437 3.27711 7.79247C3.31128 8.03006 3.28073 8.27247 3.18867 8.49415C3.09662 8.71583 2.94647 8.90857 2.75405 9.05207C0.27754 10.9095 0 11.8808 0 12.4466C0 13.0124 0.27754 13.9837 2.75405 15.8411C2.94647 15.9846 3.09662 16.1774 3.18867 16.399C3.28073 16.6207 3.31128 16.8631 3.27711 17.1007C2.87147 19.9402 3.34115 20.7835 3.72544 21.1678C4.10973 21.552 4.94235 22.011 7.78179 21.6054C8.01938 21.5712 8.26179 21.6018 8.48347 21.6938C8.70516 21.7859 8.8979 21.936 9.0414 22.1285C10.8988 24.605 11.8702 24.8932 12.4359 24.8932C13.0017 24.8932 13.9731 24.605 15.8305 22.1285C15.9739 21.936 16.1667 21.7859 16.3884 21.6938C16.6101 21.6018 16.8525 21.5712 17.0901 21.6054C19.9402 22.011 20.7621 21.5414 21.1464 21.1678C21.5307 20.7941 22.0004 19.9402 21.5947 17.1007C21.5606 16.8631 21.5911 16.6207 21.6832 16.399C21.7752 16.1774 21.9254 15.9846 22.1178 15.8411C24.5943 13.9837 24.8718 13.0124 24.8718 12.4466C24.8718 11.8808 24.5943 10.9095 22.1178 9.05207Z" fill="#009045"/>
<path d="M11.9022 16.1844C11.7617 16.1852 11.6224 16.1583 11.4924 16.1052C11.3623 16.052 11.244 15.9738 11.1443 15.8748L9.00937 13.7399C8.80836 13.5389 8.69543 13.2663 8.69543 12.982C8.69543 12.6977 8.80836 12.4251 9.00937 12.2241C9.21037 12.0231 9.483 11.9102 9.76726 11.9102C10.0515 11.9102 10.3242 12.0231 10.5252 12.2241L11.9022 13.6118L15.4141 10.0892C15.5134 9.98914 15.6314 9.90973 15.7615 9.85553C15.8916 9.80134 16.0311 9.77344 16.172 9.77344C16.3129 9.77344 16.4525 9.80134 16.5826 9.85553C16.7126 9.90973 16.8307 9.98914 16.9299 10.0892C17.03 10.1884 17.1094 10.3065 17.1636 10.4366C17.2178 10.5666 17.2457 10.7062 17.2457 10.8471C17.2457 10.988 17.2178 11.1275 17.1636 11.2576C17.1094 11.3877 17.03 11.5058 16.9299 11.605L12.6601 15.8748C12.5603 15.9738 12.442 16.052 12.312 16.1052C12.1819 16.1583 12.0427 16.1852 11.9022 16.1844Z" fill="white"/>
</svg>
