<svg width="23" height="14" viewBox="0 0 23 14" fill="none" xmlns="http://www.w3.org/2000/svg">
<path d="M6.90804 9.66406C5.83523 9.66406 4.96582 10.5331 4.96582 11.6061C4.96582 12.679 5.83523 13.5481 6.90804 13.5481C7.98123 13.5481 8.85042 12.679 8.85042 11.6061C8.85042 10.5331 7.98123 9.66406 6.90804 9.66406ZM6.90804 12.4504C6.44168 12.4504 6.06379 12.0724 6.06379 11.6061C6.06379 11.1395 6.44168 10.7618 6.90804 10.7618C7.37445 10.7618 7.75261 11.1395 7.75261 11.6061C7.75261 12.0724 7.37445 12.4504 6.90804 12.4504Z" fill="#FBFBFB"/>
<path d="M17.1497 9.66406C16.0769 9.66406 15.2075 10.5331 15.2075 11.6061C15.2075 12.679 16.0769 13.5481 17.1497 13.5481C18.2229 13.5481 19.0921 12.679 19.0921 11.6061C19.0921 10.5331 18.2229 9.66406 17.1497 9.66406ZM17.1497 12.4504C16.6833 12.4504 16.3055 12.0724 16.3055 11.6061C16.3055 11.1395 16.6833 10.7618 17.1497 10.7618C17.6162 10.7618 17.9943 11.1395 17.9943 11.6061C17.9943 12.0724 17.6162 12.4504 17.1497 12.4504Z" fill="#FBFBFB"/>
<path d="M9.09312 3.69784C9.09312 3.96998 8.87043 4.19262 8.59834 4.19262H1.7706C1.49846 4.19262 1.27588 3.96998 1.27588 3.69784V3.40098C1.27588 3.12889 1.49852 2.90625 1.7706 2.90625H8.59834C8.87048 2.90625 9.09312 3.12889 9.09312 3.40098V3.69784Z" fill="#FBFBFB"/>
<path d="M20.956 6.59325C20.2438 6.40811 19.8363 6.29171 19.5567 5.75166L18.6216 3.85846C18.3419 3.31842 17.6153 2.87651 17.0073 2.87651H15.7284C15.7284 2.87651 15.5563 2.8801 15.5563 2.70697C15.5563 2.31 15.5563 1.11916 15.5563 1.11916C15.5563 0.503637 15.208 0 14.4671 0H4.04393C2.98313 0 2.47949 0.503691 2.47949 1.11916V2.11421C2.47949 2.11421 2.47949 2.41015 2.76593 2.41015C4.22413 2.41015 8.59878 2.41015 8.59878 2.41015C9.14442 2.41015 9.58834 2.85401 9.58834 3.39966V3.69652C9.58834 4.24217 9.14442 4.68603 8.59878 4.68603H2.76593C2.76593 4.68603 2.47949 4.66223 2.47949 4.97143C2.47949 5.125 2.47949 5.22809 2.47949 5.31362C2.47949 5.58576 2.85249 5.5856 2.85249 5.5856H6.77888C7.32452 5.5856 7.76844 6.02951 7.76844 6.5751V6.87197C7.76844 7.41761 7.32452 7.86147 6.77888 7.86147H2.91444C2.91444 7.86147 2.47949 7.85343 2.47949 8.19975C2.47949 8.80087 2.47949 10.6041 2.47949 10.6041C2.47949 11.2196 2.98313 11.7233 3.59865 11.7233C3.59865 11.7233 4.0623 11.7233 4.21684 11.7233C4.35704 11.7233 4.37769 11.6452 4.37769 11.606C4.37769 10.2105 5.51311 9.07541 6.90859 9.07541C8.30419 9.07541 9.43955 10.2107 9.43955 11.606C9.43955 11.6454 9.42835 11.7233 9.53557 11.7233C10.761 11.7233 14.5244 11.7233 14.5244 11.7233C14.6233 11.7233 14.6193 11.6399 14.6193 11.606C14.6193 10.2105 15.7547 9.07541 17.1502 9.07541C18.5458 9.07541 19.6811 10.2107 19.6811 11.606C19.6811 11.6454 19.6801 11.7233 19.742 11.7233C20.3039 11.7233 20.9998 11.7233 20.9998 11.7233C21.6082 11.7233 22.1058 11.2257 22.1058 10.6174V8.51634C22.1058 6.74693 21.5472 6.74693 20.956 6.59325ZM18.8515 6.49484C18.8515 6.49484 16.5029 6.49484 15.7036 6.49484C15.5736 6.49484 15.5563 6.36822 15.5563 6.36822V3.74598C15.5563 3.74598 15.5489 3.64528 15.7159 3.64528C15.9405 3.64528 16.6141 3.64528 16.6141 3.64528C17.1553 3.64528 17.8018 4.0385 18.0506 4.51904L18.8827 6.20362C18.9177 6.27144 18.9552 6.33165 18.9953 6.38561C19.0248 6.42517 18.9753 6.49484 18.8515 6.49484Z" fill="#FBFBFB"/>
<path d="M7.27295 6.86972C7.27295 7.14186 7.05032 7.3645 6.77823 7.3645H0.494725C0.222583 7.3645 0 7.14186 0 6.86972V6.57285C0 6.30076 0.222637 6.07812 0.494725 6.07812H6.77823C7.05037 6.07812 7.27295 6.30076 7.27295 6.57285V6.86972Z" fill="#FBFBFB"/>
</svg>
