<svg width="23" height="14" viewBox="0 0 23 14" fill="none" xmlns="http://www.w3.org/2000/svg">
<path d="M6.90804 9.66406C5.83523 9.66406 4.96582 10.5331 4.96582 11.6061C4.96582 12.679 5.83523 13.5481 6.90804 13.5481C7.98123 13.5481 8.85042 12.679 8.85042 11.6061C8.85042 10.5331 7.98123 9.66406 6.90804 9.66406ZM6.90804 12.4504C6.44168 12.4504 6.06379 12.0724 6.06379 11.6061C6.06379 11.1395 6.44168 10.7618 6.90804 10.7618C7.37445 10.7618 7.75261 11.1395 7.75261 11.6061C7.75261 12.0724 7.37445 12.4504 6.90804 12.4504Z" fill="#455A64"/>
<path d="M17.1499 9.66406C16.0771 9.66406 15.2078 10.5331 15.2078 11.6061C15.2078 12.679 16.0771 13.5481 17.1499 13.5481C18.2232 13.5481 19.0923 12.679 19.0923 11.6061C19.0923 10.5331 18.2232 9.66406 17.1499 9.66406ZM17.1499 12.4504C16.6836 12.4504 16.3057 12.0724 16.3057 11.6061C16.3057 11.1395 16.6836 10.7618 17.1499 10.7618C17.6164 10.7618 17.9946 11.1395 17.9946 11.6061C17.9946 12.0724 17.6164 12.4504 17.1499 12.4504Z" fill="#455A64"/>
<path d="M9.09336 3.69784C9.09336 3.96998 8.87067 4.19262 8.59858 4.19262H1.77085C1.49871 4.19262 1.27612 3.96998 1.27612 3.69784V3.40098C1.27612 3.12889 1.49876 2.90625 1.77085 2.90625H8.59858C8.87072 2.90625 9.09336 3.12889 9.09336 3.40098V3.69784Z" fill="#455A64"/>
<path d="M20.9557 6.59325C20.2436 6.40811 19.8361 6.29171 19.5564 5.75166L18.6214 3.85846C18.3416 3.31842 17.6151 2.87651 17.0071 2.87651H15.7281C15.7281 2.87651 15.5561 2.8801 15.5561 2.70697C15.5561 2.31 15.5561 1.11916 15.5561 1.11916C15.5561 0.503637 15.2078 0 14.4668 0H4.04368C2.98288 0 2.47925 0.503691 2.47925 1.11916V2.11421C2.47925 2.11421 2.47925 2.41015 2.76568 2.41015C4.22388 2.41015 8.59853 2.41015 8.59853 2.41015C9.14418 2.41015 9.58809 2.85401 9.58809 3.39966V3.69652C9.58809 4.24217 9.14418 4.68603 8.59853 4.68603H2.76568C2.76568 4.68603 2.47925 4.66223 2.47925 4.97143C2.47925 5.125 2.47925 5.22809 2.47925 5.31362C2.47925 5.58576 2.85225 5.5856 2.85225 5.5856H6.77864C7.32428 5.5856 7.7682 6.02951 7.7682 6.5751V6.87197C7.7682 7.41761 7.32428 7.86147 6.77864 7.86147H2.9142C2.9142 7.86147 2.47925 7.85343 2.47925 8.19975C2.47925 8.80087 2.47925 10.6041 2.47925 10.6041C2.47925 11.2196 2.98288 11.7233 3.59841 11.7233C3.59841 11.7233 4.06205 11.7233 4.2166 11.7233C4.3568 11.7233 4.37745 11.6452 4.37745 11.606C4.37745 10.2105 5.51286 9.07541 6.90835 9.07541C8.30395 9.07541 9.4393 10.2107 9.4393 11.606C9.4393 11.6454 9.42811 11.7233 9.53533 11.7233C10.7607 11.7233 14.5242 11.7233 14.5242 11.7233C14.6231 11.7233 14.6191 11.6399 14.6191 11.606C14.6191 10.2105 15.7544 9.07541 17.15 9.07541C18.5455 9.07541 19.6809 10.2107 19.6809 11.606C19.6809 11.6454 19.6799 11.7233 19.7418 11.7233C20.3037 11.7233 20.9996 11.7233 20.9996 11.7233C21.6079 11.7233 22.1055 11.2257 22.1055 10.6174V8.51634C22.1056 6.74693 21.5469 6.74693 20.9557 6.59325ZM18.8512 6.49484C18.8512 6.49484 16.5027 6.49484 15.7034 6.49484C15.5733 6.49484 15.556 6.36822 15.556 6.36822V3.74598C15.556 3.74598 15.5487 3.64528 15.7157 3.64528C15.9403 3.64528 16.6139 3.64528 16.6139 3.64528C17.1551 3.64528 17.8015 4.0385 18.0504 4.51904L18.8824 6.20362C18.9175 6.27144 18.9549 6.33165 18.995 6.38561C19.0246 6.42517 18.975 6.49484 18.8512 6.49484Z" fill="#455A64"/>
<path d="M7.27295 6.86972C7.27295 7.14186 7.05032 7.3645 6.77823 7.3645H0.494725C0.222583 7.3645 0 7.14186 0 6.86972V6.57285C0 6.30076 0.222637 6.07812 0.494725 6.07812H6.77823C7.05037 6.07812 7.27295 6.30076 7.27295 6.57285V6.86972Z" fill="#455A64"/>
</svg>
