<svg width="30" height="24" viewBox="0 0 30 24" fill="none" xmlns="http://www.w3.org/2000/svg">
<path d="M29.018 10.5416V13.4499C29.018 14.2263 28.3968 14.8616 27.6062 14.8899H24.8392C23.3144 14.8899 21.9168 13.7746 21.7897 12.2499C21.705 11.3605 22.0439 10.5275 22.6368 9.94869C23.1591 9.41222 23.8791 9.10156 24.6697 9.10156H27.6062C28.3968 9.1298 29.018 9.76516 29.018 10.5416Z" fill="#484C52"/>
<path d="M26.8581 17.0118H24.8392C22.1569 17.0118 19.8981 14.9929 19.6722 12.4235C19.5451 10.9553 20.0816 9.48706 21.1545 8.44235C22.0581 7.51059 23.3145 6.98823 24.6698 6.98823H26.8581C27.2675 6.98823 27.6063 6.64941 27.5639 6.24C27.2534 2.80941 24.9804 0.465882 21.6063 0.0705882C21.2675 0.0141176 20.9145 0 20.5475 0H7.84154C7.44624 0 7.06507 0.0282352 6.69801 0.0847058C3.09801 0.536471 0.782715 3.21882 0.782715 7.05882V16.9412C0.782715 20.8376 3.94507 24 7.84154 24H20.5475C24.5004 24 27.2251 21.5294 27.5639 17.76C27.6063 17.3506 27.2675 17.0118 26.8581 17.0118ZM16.3122 8.82353H7.84154C7.26271 8.82353 6.78271 8.34353 6.78271 7.76471C6.78271 7.18588 7.26271 6.70588 7.84154 6.70588H16.3122C16.891 6.70588 17.371 7.18588 17.371 7.76471C17.371 8.34353 16.891 8.82353 16.3122 8.82353Z" fill="#484C52"/>
</svg>
