<svg width="20" height="17" viewBox="0 0 20 17" fill="none" xmlns="http://www.w3.org/2000/svg">
<path d="M14.3578 5.28971H19.6475V2.83377C19.6475 1.27122 18.3763 0 16.8137 0H2.83377C1.27122 0 0 1.27122 0 2.83377V13.4132C0 14.9757 1.27122 16.2469 2.83377 16.2469H16.8137C18.3763 16.2469 19.6475 14.9757 19.6475 13.4132V10.9572H14.3578C12.7952 10.9572 11.524 9.68603 11.524 8.12348C11.524 6.56092 12.7952 5.28971 14.3578 5.28971Z" fill="#0072E8"/>
<path d="M14.358 6.40625C13.4205 6.40625 12.6577 7.16897 12.6577 8.10653C12.6577 9.04408 13.4204 9.8068 14.358 9.8068H19.6477V6.40629L14.358 6.40625ZM15.1137 8.67327H14.358C14.045 8.67327 13.7912 8.41951 13.7912 8.10653C13.7912 7.79355 14.045 7.53978 14.358 7.53978H15.1137C15.4267 7.53978 15.6804 7.79355 15.6804 8.10653C15.6804 8.41951 15.4267 8.67327 15.1137 8.67327Z" fill="#0072E8"/>
</svg>
