<svg width="19" height="19" viewBox="0 0 19 19" fill="none" xmlns="http://www.w3.org/2000/svg">
<path d="M9.37891 18.7578C14.5587 18.7578 18.7578 14.5587 18.7578 9.37891C18.7578 4.19908 14.5587 0 9.37891 0C4.19908 0 0 4.19908 0 9.37891C0 14.5587 4.19908 18.7578 9.37891 18.7578Z" fill="#2AA81A"/>
<path d="M12.6872 6.06875C11.9068 5.27947 10.8699 4.79522 9.76371 4.70344C8.65753 4.61166 7.55499 4.91838 6.65514 5.56824C5.75529 6.2181 5.11743 7.16827 4.85672 8.2472C4.59601 9.32612 4.72964 10.4627 5.23348 11.4517L4.73985 13.8483C4.73456 13.8722 4.73436 13.897 4.73925 13.921C4.74414 13.9451 4.75401 13.9678 4.76823 13.9878C4.7886 14.018 4.81771 14.0413 4.85167 14.0545C4.88564 14.0677 4.92283 14.0703 4.95828 14.0618L7.30301 13.5052C8.28933 13.9959 9.41776 14.1206 10.4874 13.8572C11.5571 13.5938 12.4986 12.9594 13.1443 12.0669C13.7901 11.1744 14.0982 10.0817 14.0138 8.98332C13.9294 7.88494 13.458 6.85214 12.6835 6.06875H12.6872ZM11.9542 11.9145C11.4145 12.4533 10.7194 12.8094 9.96679 12.9327C9.21417 13.056 8.44183 12.9403 7.75838 12.6019L7.43011 12.439L5.98996 12.7796V12.7611L6.29354 11.3086L6.13311 10.9927C5.78365 10.3074 5.66026 9.52896 5.78065 8.76917C5.90103 8.00937 6.25901 7.30724 6.80321 6.76353C7.48652 6.08093 8.41286 5.69751 9.37871 5.69751C10.3446 5.69751 11.2709 6.08093 11.9542 6.76353L11.9702 6.78574C12.6447 7.47051 13.0212 8.39406 13.0177 9.35518C13.0142 10.3163 12.6311 11.2371 11.9517 11.917L11.9542 11.9145Z" fill="white"/>
<path d="M11.8279 10.8635C11.6514 11.1411 11.3713 11.4805 11.022 11.5657C10.405 11.7137 9.46587 11.5657 8.2898 10.4784L8.27499 10.4649C7.25195 9.5097 6.98046 8.71373 7.04093 8.08312C7.07672 7.72401 7.37536 7.40068 7.62711 7.18842C7.66714 7.15467 7.7145 7.13076 7.76542 7.11858C7.81634 7.1064 7.8694 7.10631 7.92037 7.1183C7.97133 7.13029 8.01878 7.15404 8.05893 7.18764C8.09908 7.22124 8.13081 7.26377 8.15159 7.31183L8.53045 8.16827C8.55518 8.2234 8.56445 8.28422 8.55728 8.34422C8.55011 8.40421 8.52676 8.46113 8.48972 8.50887L8.29721 8.75569C8.25719 8.80692 8.23336 8.86892 8.22874 8.93376C8.22412 8.9986 8.23894 9.06335 8.27129 9.11974C8.45416 9.38926 8.67296 9.63256 8.92165 9.8429C9.18921 10.1004 9.49264 10.3178 9.82251 10.4883C9.88272 10.5126 9.94878 10.5184 10.0123 10.505C10.0758 10.4916 10.1339 10.4596 10.1792 10.413L10.4001 10.1884C10.4421 10.1432 10.4958 10.1106 10.5553 10.094C10.6147 10.0774 10.6776 10.0777 10.737 10.0946L11.6378 10.3526C11.6889 10.3671 11.7358 10.3934 11.7748 10.4295C11.8137 10.4655 11.8437 10.5102 11.8622 10.5599C11.8807 10.6096 11.8872 10.6631 11.8813 10.7158C11.8753 10.7685 11.857 10.8191 11.8279 10.8635Z" fill="white"/>
</svg>
