<svg width="38" height="38" viewBox="0 0 38 38" fill="none" xmlns="http://www.w3.org/2000/svg">
<path d="M19 38C29.4934 38 38 29.4934 38 19C38 8.50659 29.4934 0 19 0C8.50659 0 0 8.50659 0 19C0 29.4934 8.50659 38 19 38Z" fill="#2AA81A"/>
<path d="M25.7021 12.2982C24.1211 10.6992 22.0205 9.71823 19.7796 9.53229C17.5386 9.34635 15.3051 9.96773 13.4821 11.2842C11.6592 12.6007 10.367 14.5256 9.83887 16.7113C9.31072 18.897 9.58143 21.1995 10.6021 23.2032L9.60211 28.0582C9.5914 28.1067 9.59099 28.1569 9.60089 28.2055C9.6108 28.2542 9.6308 28.3002 9.65961 28.3407C9.70087 28.4019 9.75984 28.4491 9.82865 28.4759C9.89745 28.5027 9.9728 28.5078 10.0446 28.4907L14.7946 27.3632C16.7927 28.3571 19.0787 28.6097 21.2457 28.0762C23.4126 27.5426 25.3199 26.2574 26.6281 24.4493C27.9363 22.6413 28.5605 20.4277 28.3895 18.2026C28.2186 15.9774 27.2636 13.8852 25.6946 12.2982H25.7021ZM24.2171 24.1407C23.1237 25.2322 21.7156 25.9535 20.191 26.2033C18.6663 26.4531 17.1017 26.2187 15.7171 25.5332L15.0521 25.2032L12.1346 25.8932V25.8557L12.7496 22.9132L12.4246 22.2732C11.7167 20.8848 11.4667 19.3079 11.7106 17.7687C11.9545 16.2295 12.6797 14.8071 13.7821 13.7057C15.1664 12.3228 17.043 11.5461 18.9996 11.5461C20.9562 11.5461 22.8328 12.3228 24.2171 13.7057L24.2496 13.7507C25.6159 15.1379 26.3786 17.0088 26.3716 18.9559C26.3645 20.9029 25.5884 22.7683 24.2121 24.1457L24.2171 24.1407Z" fill="white"/>
<path d="M23.9607 22.0036C23.6032 22.5661 23.0357 23.2536 22.3282 23.4261C21.0782 23.7261 19.1757 23.4261 16.7932 21.2236L16.7632 21.1961C14.6907 19.2611 14.1407 17.6486 14.2632 16.3711C14.3357 15.6436 14.9407 14.9886 15.4507 14.5586C15.5318 14.4902 15.6278 14.4417 15.7309 14.4171C15.8341 14.3924 15.9416 14.3922 16.0448 14.4165C16.148 14.4408 16.2442 14.4889 16.3255 14.557C16.4068 14.6251 16.4711 14.7112 16.5132 14.8086L17.2807 16.5436C17.3308 16.6553 17.3496 16.7785 17.3351 16.9C17.3205 17.0215 17.2732 17.1369 17.1982 17.2336L16.8082 17.7336C16.7272 17.8374 16.6789 17.963 16.6695 18.0943C16.6602 18.2257 16.6902 18.3568 16.7557 18.4711C17.1262 19.0171 17.5694 19.51 18.0732 19.9361C18.6152 20.4577 19.23 20.8981 19.8982 21.2436C20.0202 21.2927 20.154 21.3045 20.2827 21.2773C20.4113 21.2502 20.529 21.1853 20.6207 21.0911L21.0682 20.6361C21.1534 20.5445 21.2622 20.4783 21.3826 20.4448C21.5031 20.4112 21.6305 20.4117 21.7507 20.4461L23.5757 20.9686C23.6791 20.998 23.7742 21.0514 23.8531 21.1243C23.9321 21.1973 23.9928 21.2878 24.0303 21.3886C24.0677 21.4894 24.081 21.5976 24.0689 21.7044C24.0568 21.8112 24.0198 21.9137 23.9607 22.0036Z" fill="white"/>
</svg>
