<svg width="18" height="18" viewBox="0 0 18 18" fill="none" xmlns="http://www.w3.org/2000/svg">
<path d="M9 18C4.0372 18 0 13.9628 0 9C0 4.0372 4.0372 0 9 0C13.9628 0 18 4.0372 18 9C18 13.9628 13.9628 18 9 18ZM9 1.125C4.65752 1.125 1.125 4.65752 1.125 9C1.125 13.3425 4.65752 16.875 9 16.875C13.3425 16.875 16.875 13.3425 16.875 9C16.875 4.65752 13.3425 1.125 9 1.125Z" fill="#FF0835"/>
<path d="M6.21617 12.3427C6.07211 12.3427 5.92805 12.288 5.8186 12.1777C5.59888 11.958 5.59888 11.6018 5.8186 11.3821L11.3873 5.81323C11.6072 5.59351 11.9634 5.59351 12.1831 5.81323C12.4028 6.03296 12.4028 6.38919 12.1831 6.60905L6.61429 12.1777C6.50333 12.288 6.35941 12.3427 6.21617 12.3427Z" fill="#FF0835"/>
<path d="M11.784 12.342C11.6401 12.342 11.496 12.2873 11.3865 12.177L5.81785 6.60902C5.59799 6.38929 5.59799 6.03306 5.81785 5.81334C6.03758 5.59347 6.39381 5.59347 6.61354 5.81334L12.1822 11.382C12.4021 11.6018 12.4021 11.958 12.1822 12.1777C12.0721 12.2873 11.928 12.342 11.784 12.342Z" fill="#FF0835"/>
</svg>
